<?xml version="1.0" encoding="utf-8" standalone="no"?>
<!DOCTYPE svg PUBLIC "-//W3C//DTD SVG 1.1//EN"
  "http://www.w3.org/Graphics/SVG/1.1/DTD/svg11.dtd">
<!-- Created with matplotlib (http://matplotlib.org/) -->
<svg height="432pt" version="1.1" viewBox="0 0 864 432" width="864pt" xmlns="http://www.w3.org/2000/svg" xmlns:xlink="http://www.w3.org/1999/xlink">
 <defs>
  <style type="text/css">
*{stroke-linecap:butt;stroke-linejoin:round;}
  </style>
 </defs>
 <g id="figure_1">
  <g id="patch_1">
   <path d="M 0 432 
L 864 432 
L 864 0 
L 0 0 
z
" style="fill:#ffffff;"/>
  </g>
  <g id="axes_1">
   <g id="patch_2">
    <path d="M 22.93 326.99 
L 850.68 326.99 
L 850.68 25.44 
L 22.93 25.44 
z
" style="fill:#ffffff;"/>
   </g>
   <g id="PolyCollection_1">
    <path clip-path="url(#pb074470cad)" d="M 169.877113 123.311491 
L 151.899554 123.311491 
L 151.635369 122.570648 
L 151.366296 121.829804 
L 151.09162 121.088961 
L 150.81061 120.348117 
L 150.522532 119.607274 
L 150.226662 118.866431 
L 149.922306 118.125587 
L 149.608811 117.384744 
L 149.285588 116.6439 
L 148.95212 115.903057 
L 148.607985 115.162213 
L 148.252862 114.42137 
L 147.886551 113.680526 
L 147.508978 112.939683 
L 147.12021 112.19884 
L 146.720457 111.457996 
L 146.310076 110.717153 
L 145.889577 109.976309 
L 145.45962 109.235466 
L 145.021008 108.494622 
L 144.574685 107.753779 
L 144.121724 107.012935 
L 143.663312 106.272092 
L 143.20074 105.531249 
L 142.735383 104.790405 
L 142.26868 104.049562 
L 141.802116 103.308718 
L 141.337194 102.567875 
L 140.875419 101.827031 
L 140.418265 101.086188 
L 139.967161 100.345345 
L 139.523461 99.604501 
L 139.088422 98.863658 
L 138.663185 98.122814 
L 138.248757 97.381971 
L 137.845989 96.641127 
L 137.455566 95.900284 
L 137.077995 95.15944 
L 136.713595 94.418597 
L 136.362494 93.677754 
L 136.024629 92.93691 
L 135.699746 92.196067 
L 135.387408 91.455223 
L 135.087004 90.71438 
L 134.797765 89.973536 
L 134.518777 89.232693 
L 134.249001 88.491849 
L 133.987298 87.751006 
L 133.732451 87.010163 
L 133.48319 86.269319 
L 133.238221 85.528476 
L 132.996255 84.787632 
L 132.756032 84.046789 
L 132.516353 83.305945 
L 132.276108 82.565102 
L 132.034298 81.824258 
L 131.790063 81.083415 
L 131.542702 80.342572 
L 131.291693 79.601728 
L 131.036713 78.860885 
L 130.777648 78.120041 
L 130.514607 77.379198 
L 130.247924 76.638354 
L 129.978169 75.897511 
L 129.706141 75.156667 
L 129.43287 74.415824 
L 129.159607 73.674981 
L 128.887812 72.934137 
L 128.619145 72.193294 
L 128.355449 71.45245 
L 128.098725 70.711607 
L 127.85112 69.970763 
L 127.614895 69.22992 
L 127.392405 68.489076 
L 127.186073 67.748233 
L 126.998358 67.00739 
L 126.831734 66.266546 
L 126.688655 65.525703 
L 126.571531 64.784859 
L 126.4827 64.044016 
L 126.424402 63.303172 
L 126.39875 62.562329 
L 126.407711 61.821486 
L 126.453078 61.080642 
L 126.536454 60.339799 
L 126.65923 59.598955 
L 126.82257 58.858112 
L 127.027397 58.117268 
L 127.274382 57.376425 
L 127.563934 56.635581 
L 127.896195 55.894738 
L 128.271036 55.153895 
L 128.688054 54.413051 
L 129.14658 53.672208 
L 129.645677 52.931364 
L 130.184151 52.190521 
L 130.760559 51.449677 
L 131.373222 50.708834 
L 132.020239 49.96799 
L 189.756427 49.96799 
L 189.756427 49.96799 
L 190.403444 50.708834 
L 191.016108 51.449677 
L 191.592516 52.190521 
L 192.13099 52.931364 
L 192.630087 53.672208 
L 193.088612 54.413051 
L 193.505631 55.153895 
L 193.880471 55.894738 
L 194.212732 56.635581 
L 194.502285 57.376425 
L 194.74927 58.117268 
L 194.954097 58.858112 
L 195.117437 59.598955 
L 195.240213 60.339799 
L 195.323589 61.080642 
L 195.368956 61.821486 
L 195.377917 62.562329 
L 195.352265 63.303172 
L 195.293967 64.044016 
L 195.205136 64.784859 
L 195.088012 65.525703 
L 194.944933 66.266546 
L 194.778308 67.00739 
L 194.590594 67.748233 
L 194.384261 68.489076 
L 194.161772 69.22992 
L 193.925547 69.970763 
L 193.677941 70.711607 
L 193.421218 71.45245 
L 193.157521 72.193294 
L 192.888855 72.934137 
L 192.61706 73.674981 
L 192.343796 74.415824 
L 192.070525 75.156667 
L 191.798498 75.897511 
L 191.528743 76.638354 
L 191.26206 77.379198 
L 190.999018 78.120041 
L 190.739953 78.860885 
L 190.484974 79.601728 
L 190.233965 80.342572 
L 189.986604 81.083415 
L 189.742368 81.824258 
L 189.500558 82.565102 
L 189.260313 83.305945 
L 189.020635 84.046789 
L 188.780412 84.787632 
L 188.538445 85.528476 
L 188.293477 86.269319 
L 188.044215 87.010163 
L 187.789368 87.751006 
L 187.527666 88.491849 
L 187.25789 89.232693 
L 186.978902 89.973536 
L 186.689663 90.71438 
L 186.389259 91.455223 
L 186.076921 92.196067 
L 185.752038 92.93691 
L 185.414172 93.677754 
L 185.063072 94.418597 
L 184.698671 95.15944 
L 184.3211 95.900284 
L 183.930677 96.641127 
L 183.527909 97.381971 
L 183.113481 98.122814 
L 182.688245 98.863658 
L 182.253206 99.604501 
L 181.809506 100.345345 
L 181.358402 101.086188 
L 180.901248 101.827031 
L 180.439472 102.567875 
L 179.974551 103.308718 
L 179.507986 104.049562 
L 179.041284 104.790405 
L 178.575927 105.531249 
L 178.113355 106.272092 
L 177.654943 107.012935 
L 177.201981 107.753779 
L 176.755659 108.494622 
L 176.317047 109.235466 
L 175.88709 109.976309 
L 175.466591 110.717153 
L 175.05621 111.457996 
L 174.656456 112.19884 
L 174.267688 112.939683 
L 173.890116 113.680526 
L 173.523805 114.42137 
L 173.168682 115.162213 
L 172.824546 115.903057 
L 172.491079 116.6439 
L 172.167856 117.384744 
L 171.854361 118.125587 
L 171.550004 118.866431 
L 171.254135 119.607274 
L 170.966056 120.348117 
L 170.685047 121.088961 
L 170.410371 121.829804 
L 170.141298 122.570648 
L 169.877113 123.311491 
z
" style="fill:#1f77b4;fill-opacity:0.3;"/>
   </g>
   <g id="PolyCollection_2">
    <path clip-path="url(#pb074470cad)" d="M 312.517101 156.97736 
L 285.176232 156.97736 
L 284.797034 155.787153 
L 284.426097 154.596945 
L 284.064209 153.406738 
L 283.712095 152.21653 
L 283.37041 151.026323 
L 283.039738 149.836115 
L 282.720581 148.645908 
L 282.413357 147.4557 
L 282.118393 146.265493 
L 281.835925 145.075285 
L 281.566089 143.885078 
L 281.308924 142.69487 
L 281.064365 141.504663 
L 280.832247 140.314455 
L 280.612297 139.124248 
L 280.404143 137.93404 
L 280.207308 136.743833 
L 280.021214 135.553625 
L 279.845185 134.363418 
L 279.67845 133.17321 
L 279.52015 131.983003 
L 279.369337 130.792795 
L 279.224985 129.602588 
L 279.085995 128.412381 
L 278.951204 127.222173 
L 278.819388 126.031966 
L 278.689281 124.841758 
L 278.559573 123.651551 
L 278.42893 122.461343 
L 278.296001 121.271136 
L 278.159427 120.080928 
L 278.01786 118.890721 
L 277.869967 117.700513 
L 277.71445 116.510306 
L 277.550055 115.320098 
L 277.375585 114.129891 
L 277.189915 112.939683 
L 276.992003 111.749476 
L 276.780903 110.559268 
L 276.555779 109.369061 
L 276.315913 108.178853 
L 276.060721 106.988646 
L 275.789757 105.798438 
L 275.502728 104.608231 
L 275.1995 103.418023 
L 274.880107 102.227816 
L 274.544753 101.037608 
L 274.19382 99.847401 
L 273.82787 98.657193 
L 273.447649 97.466986 
L 273.054083 96.276778 
L 272.648279 95.086571 
L 272.231521 93.896363 
L 271.805266 92.706156 
L 271.371137 91.515948 
L 270.930913 90.325741 
L 270.486521 89.135533 
L 270.040026 87.945326 
L 269.593615 86.755118 
L 269.149581 85.564911 
L 268.710316 84.374703 
L 268.278283 83.184496 
L 267.856007 81.994288 
L 267.446053 80.804081 
L 267.051006 79.613873 
L 266.673454 78.423666 
L 266.315963 77.233458 
L 265.981066 76.043251 
L 265.671231 74.853043 
L 265.388853 73.662836 
L 265.136227 72.472628 
L 264.915533 71.282421 
L 264.728817 70.092213 
L 264.577974 68.902006 
L 264.464736 67.711798 
L 264.390653 66.521591 
L 264.357083 65.331383 
L 264.365182 64.141176 
L 264.415892 62.950968 
L 264.509936 61.760761 
L 264.647808 60.570553 
L 264.829776 59.380346 
L 265.055873 58.190138 
L 265.325901 56.999931 
L 265.639431 55.809723 
L 265.995806 54.619516 
L 266.39415 53.429308 
L 266.83337 52.239101 
L 267.312168 51.048893 
L 267.82905 49.858686 
L 268.382337 48.668478 
L 268.97018 47.478271 
L 269.590573 46.288063 
L 270.241367 45.097856 
L 270.920286 43.907648 
L 271.624947 42.717441 
L 272.352874 41.527233 
L 273.101515 40.337026 
L 273.868262 39.146818 
L 323.825072 39.146818 
L 323.825072 39.146818 
L 324.591819 40.337026 
L 325.340459 41.527233 
L 326.068386 42.717441 
L 326.773047 43.907648 
L 327.451967 45.097856 
L 328.10276 46.288063 
L 328.723153 47.478271 
L 329.310996 48.668478 
L 329.864283 49.858686 
L 330.381165 51.048893 
L 330.859963 52.239101 
L 331.299183 53.429308 
L 331.697527 54.619516 
L 332.053903 55.809723 
L 332.367432 56.999931 
L 332.63746 58.190138 
L 332.863557 59.380346 
L 333.045525 60.570553 
L 333.183398 61.760761 
L 333.277441 62.950968 
L 333.328151 64.141176 
L 333.33625 65.331383 
L 333.30268 66.521591 
L 333.228597 67.711798 
L 333.115359 68.902006 
L 332.964516 70.092213 
L 332.7778 71.282421 
L 332.557106 72.472628 
L 332.30448 73.662836 
L 332.022102 74.853043 
L 331.712268 76.043251 
L 331.37737 77.233458 
L 331.01988 78.423666 
L 330.642327 79.613873 
L 330.24728 80.804081 
L 329.837326 81.994288 
L 329.41505 83.184496 
L 328.983018 84.374703 
L 328.543752 85.564911 
L 328.099719 86.755118 
L 327.653307 87.945326 
L 327.206812 89.135533 
L 326.762421 90.325741 
L 326.322196 91.515948 
L 325.888067 92.706156 
L 325.461812 93.896363 
L 325.045054 95.086571 
L 324.63925 96.276778 
L 324.245684 97.466986 
L 323.865463 98.657193 
L 323.499514 99.847401 
L 323.148581 101.037608 
L 322.813226 102.227816 
L 322.493833 103.418023 
L 322.190606 104.608231 
L 321.903577 105.798438 
L 321.632613 106.988646 
L 321.37742 108.178853 
L 321.137554 109.369061 
L 320.91243 110.559268 
L 320.701331 111.749476 
L 320.503419 112.939683 
L 320.317749 114.129891 
L 320.143279 115.320098 
L 319.978884 116.510306 
L 319.823367 117.700513 
L 319.675474 118.890721 
L 319.533906 120.080928 
L 319.397333 121.271136 
L 319.264403 122.461343 
L 319.13376 123.651551 
L 319.004053 124.841758 
L 318.873945 126.031966 
L 318.74213 127.222173 
L 318.607338 128.412381 
L 318.468348 129.602588 
L 318.323996 130.792795 
L 318.173183 131.983003 
L 318.014883 133.17321 
L 317.848149 134.363418 
L 317.67212 135.553625 
L 317.486025 136.743833 
L 317.28919 137.93404 
L 317.081036 139.124248 
L 316.861087 140.314455 
L 316.628968 141.504663 
L 316.38441 142.69487 
L 316.127245 143.885078 
L 315.857409 145.075285 
L 315.57494 146.265493 
L 315.279976 147.4557 
L 314.972752 148.645908 
L 314.653595 149.836115 
L 314.322923 151.026323 
L 313.981238 152.21653 
L 313.629124 153.406738 
L 313.267236 154.596945 
L 312.896299 155.787153 
L 312.517101 156.97736 
z
" style="fill:#1f77b4;fill-opacity:0.3;"/>
   </g>
   <g id="PolyCollection_3">
    <path clip-path="url(#pb074470cad)" d="M 442.495227 149.763246 
L 431.114773 149.763246 
L 431.093384 148.658053 
L 431.084189 147.55286 
L 431.086246 146.447668 
L 431.098386 145.342475 
L 431.119209 144.237282 
L 431.147098 143.13209 
L 431.180222 142.026897 
L 431.21655 140.921704 
L 431.253865 139.816512 
L 431.289779 138.711319 
L 431.321754 137.606126 
L 431.347125 136.500933 
L 431.36312 135.395741 
L 431.366887 134.290548 
L 431.355523 133.185355 
L 431.3261 132.080163 
L 431.275697 130.97497 
L 431.201429 129.869777 
L 431.100481 128.764585 
L 430.970137 127.659392 
L 430.807815 126.554199 
L 430.611098 125.449007 
L 430.377764 124.343814 
L 430.105822 123.238621 
L 429.793536 122.133429 
L 429.439455 121.028236 
L 429.042444 119.923043 
L 428.601702 118.817851 
L 428.116784 117.712658 
L 427.587626 116.607465 
L 427.014551 115.502273 
L 426.398286 114.39708 
L 425.739966 113.291887 
L 425.041136 112.186695 
L 424.303749 111.081502 
L 423.530158 109.976309 
L 422.723101 108.871117 
L 421.885686 107.765924 
L 421.021361 106.660731 
L 420.13389 105.555539 
L 419.227319 104.450346 
L 418.305932 103.345153 
L 417.374214 102.239961 
L 416.436801 101.134768 
L 415.498434 100.029575 
L 414.563903 98.924383 
L 413.637998 97.81919 
L 412.725457 96.713997 
L 411.830909 95.608804 
L 410.958826 94.503612 
L 410.113474 93.398419 
L 409.298869 92.293226 
L 408.518732 91.188034 
L 407.776458 90.082841 
L 407.075083 88.977648 
L 406.417258 87.872456 
L 405.805237 86.767263 
L 405.240861 85.66207 
L 404.725557 84.556878 
L 404.260343 83.451685 
L 403.845835 82.346492 
L 403.482266 81.2413 
L 403.169509 80.136107 
L 402.907104 79.030914 
L 402.694293 77.925722 
L 402.530053 76.820529 
L 402.413136 75.715336 
L 402.342115 74.610144 
L 402.315417 73.504951 
L 402.331371 72.399758 
L 402.388249 71.294566 
L 402.484297 70.189373 
L 402.617779 69.08418 
L 402.787003 67.978988 
L 402.99035 66.873795 
L 403.226297 65.768602 
L 403.493433 64.66341 
L 403.790474 63.558217 
L 404.116264 62.453024 
L 404.469784 61.347832 
L 404.850138 60.242639 
L 405.256556 59.137446 
L 405.688372 58.032253 
L 406.145008 56.927061 
L 406.625961 55.821868 
L 407.130772 54.716675 
L 407.659006 53.611483 
L 408.21023 52.50629 
L 408.783981 51.401097 
L 409.379746 50.295905 
L 409.99694 49.190712 
L 410.634882 48.085519 
L 411.292776 46.980327 
L 411.969699 45.875134 
L 412.664584 44.769941 
L 413.376216 43.664749 
L 414.103225 42.559556 
L 414.844087 41.454363 
L 415.597127 40.349171 
L 458.012873 40.349171 
L 458.012873 40.349171 
L 458.765913 41.454363 
L 459.506775 42.559556 
L 460.233784 43.664749 
L 460.945416 44.769941 
L 461.640301 45.875134 
L 462.317224 46.980327 
L 462.975118 48.085519 
L 463.61306 49.190712 
L 464.230254 50.295905 
L 464.826019 51.401097 
L 465.39977 52.50629 
L 465.950994 53.611483 
L 466.479228 54.716675 
L 466.984039 55.821868 
L 467.464992 56.927061 
L 467.921628 58.032253 
L 468.353444 59.137446 
L 468.759862 60.242639 
L 469.140216 61.347832 
L 469.493736 62.453024 
L 469.819526 63.558217 
L 470.116567 64.66341 
L 470.383703 65.768602 
L 470.61965 66.873795 
L 470.822997 67.978988 
L 470.992221 69.08418 
L 471.125703 70.189373 
L 471.221751 71.294566 
L 471.278629 72.399758 
L 471.294583 73.504951 
L 471.267885 74.610144 
L 471.196864 75.715336 
L 471.079947 76.820529 
L 470.915707 77.925722 
L 470.702896 79.030914 
L 470.440491 80.136107 
L 470.127734 81.2413 
L 469.764165 82.346492 
L 469.349657 83.451685 
L 468.884443 84.556878 
L 468.369139 85.66207 
L 467.804763 86.767263 
L 467.192742 87.872456 
L 466.534917 88.977648 
L 465.833542 90.082841 
L 465.091268 91.188034 
L 464.311131 92.293226 
L 463.496526 93.398419 
L 462.651174 94.503612 
L 461.779091 95.608804 
L 460.884543 96.713997 
L 459.972002 97.81919 
L 459.046097 98.924383 
L 458.111566 100.029575 
L 457.173199 101.134768 
L 456.235786 102.239961 
L 455.304068 103.345153 
L 454.382681 104.450346 
L 453.47611 105.555539 
L 452.588639 106.660731 
L 451.724314 107.765924 
L 450.886899 108.871117 
L 450.079842 109.976309 
L 449.306251 111.081502 
L 448.568864 112.186695 
L 447.870034 113.291887 
L 447.211714 114.39708 
L 446.595449 115.502273 
L 446.022374 116.607465 
L 445.493216 117.712658 
L 445.008298 118.817851 
L 444.567556 119.923043 
L 444.170545 121.028236 
L 443.816464 122.133429 
L 443.504178 123.238621 
L 443.232236 124.343814 
L 442.998902 125.449007 
L 442.802185 126.554199 
L 442.639863 127.659392 
L 442.509519 128.764585 
L 442.408571 129.869777 
L 442.334303 130.97497 
L 442.2839 132.080163 
L 442.254477 133.185355 
L 442.243113 134.290548 
L 442.24688 135.395741 
L 442.262875 136.500933 
L 442.288246 137.606126 
L 442.320221 138.711319 
L 442.356135 139.816512 
L 442.39345 140.921704 
L 442.429778 142.026897 
L 442.462902 143.13209 
L 442.490791 144.237282 
L 442.511614 145.342475 
L 442.523754 146.447668 
L 442.525811 147.55286 
L 442.516616 148.658053 
L 442.495227 149.763246 
z
" style="fill:#1f77b4;fill-opacity:0.3;"/>
   </g>
   <g id="PolyCollection_4">
    <path clip-path="url(#pb074470cad)" d="M 605.319758 201.464402 
L 544.206909 201.464402 
L 543.721662 200.01915 
L 543.266487 198.573898 
L 542.842262 197.128646 
L 542.449715 195.683394 
L 542.089427 194.238142 
L 541.761828 192.79289 
L 541.467196 191.347638 
L 541.205659 189.902386 
L 540.977199 188.457134 
L 540.781653 187.011882 
L 540.61872 185.56663 
L 540.487965 184.121378 
L 540.388826 182.676126 
L 540.320623 181.230874 
L 540.282562 179.785622 
L 540.27375 178.340371 
L 540.293197 176.895119 
L 540.33983 175.449867 
L 540.412502 174.004615 
L 540.51 172.559363 
L 540.631058 171.114111 
L 540.774362 169.668859 
L 540.938563 168.223607 
L 541.122287 166.778355 
L 541.324139 165.333103 
L 541.542718 163.887851 
L 541.776617 162.442599 
L 542.024437 160.997347 
L 542.28479 159.552095 
L 542.556308 158.106843 
L 542.837644 156.661591 
L 543.127481 155.216339 
L 543.424533 153.771087 
L 543.727553 152.325835 
L 544.035332 150.880583 
L 544.346702 149.435331 
L 544.660539 147.990079 
L 544.975768 146.544827 
L 545.291357 145.099575 
L 545.606324 143.654323 
L 545.919737 142.209071 
L 546.230712 140.76382 
L 546.538415 139.318568 
L 546.842063 137.873316 
L 547.140923 136.428064 
L 547.434315 134.982812 
L 547.721608 133.53756 
L 548.002224 132.092308 
L 548.275637 130.647056 
L 548.541374 129.201804 
L 548.799016 127.756552 
L 549.0482 126.3113 
L 549.288615 124.866048 
L 549.52001 123.420796 
L 549.742191 121.975544 
L 549.955022 120.530292 
L 550.158426 119.08504 
L 550.352389 117.639788 
L 550.536958 116.194536 
L 550.712243 114.749284 
L 550.878417 113.304032 
L 551.035717 111.85878 
L 551.184443 110.413528 
L 551.324959 108.968276 
L 551.457694 107.523024 
L 551.583135 106.077772 
L 551.701834 104.632521 
L 551.814397 103.187269 
L 551.92149 101.742017 
L 552.02383 100.296765 
L 552.122184 98.851513 
L 552.217365 97.406261 
L 552.310228 95.961009 
L 552.40166 94.515757 
L 552.492585 93.070505 
L 552.583946 91.625253 
L 552.676706 90.180001 
L 552.771842 88.734749 
L 552.870332 87.289497 
L 552.973152 85.844245 
L 553.081271 84.398993 
L 553.195637 82.953741 
L 553.317174 81.508489 
L 553.446773 80.063237 
L 553.585286 78.617985 
L 553.733517 77.172733 
L 553.892217 75.727481 
L 554.062076 74.282229 
L 554.243716 72.836977 
L 554.437689 71.391725 
L 554.644469 69.946473 
L 554.864449 68.501221 
L 555.097936 67.05597 
L 555.345149 65.610718 
L 555.606217 64.165466 
L 555.881178 62.720214 
L 556.169974 61.274962 
L 556.472459 59.82971 
L 556.788393 58.384458 
L 592.738274 58.384458 
L 592.738274 58.384458 
L 593.054207 59.82971 
L 593.356692 61.274962 
L 593.645489 62.720214 
L 593.920449 64.165466 
L 594.181518 65.610718 
L 594.428731 67.05597 
L 594.662218 68.501221 
L 594.882198 69.946473 
L 595.088978 71.391725 
L 595.282951 72.836977 
L 595.464591 74.282229 
L 595.634449 75.727481 
L 595.793149 77.172733 
L 595.94138 78.617985 
L 596.079894 80.063237 
L 596.209493 81.508489 
L 596.33103 82.953741 
L 596.445395 84.398993 
L 596.553514 85.844245 
L 596.656335 87.289497 
L 596.754825 88.734749 
L 596.84996 90.180001 
L 596.942721 91.625253 
L 597.034082 93.070505 
L 597.125006 94.515757 
L 597.216439 95.961009 
L 597.309301 97.406261 
L 597.404483 98.851513 
L 597.502837 100.296765 
L 597.605177 101.742017 
L 597.71227 103.187269 
L 597.824833 104.632521 
L 597.943531 106.077772 
L 598.068973 107.523024 
L 598.201707 108.968276 
L 598.342224 110.413528 
L 598.49095 111.85878 
L 598.648249 113.304032 
L 598.814423 114.749284 
L 598.989708 116.194536 
L 599.174277 117.639788 
L 599.368241 119.08504 
L 599.571645 120.530292 
L 599.784475 121.975544 
L 600.006656 123.420796 
L 600.238052 124.866048 
L 600.478467 126.3113 
L 600.727651 127.756552 
L 600.985293 129.201804 
L 601.25103 130.647056 
L 601.524443 132.092308 
L 601.805059 133.53756 
L 602.092352 134.982812 
L 602.385743 136.428064 
L 602.684604 137.873316 
L 602.988252 139.318568 
L 603.295955 140.76382 
L 603.60693 142.209071 
L 603.920343 143.654323 
L 604.23531 145.099575 
L 604.550899 146.544827 
L 604.866127 147.990079 
L 605.179965 149.435331 
L 605.491335 150.880583 
L 605.799113 152.325835 
L 606.102133 153.771087 
L 606.399186 155.216339 
L 606.689023 156.661591 
L 606.970359 158.106843 
L 607.241877 159.552095 
L 607.50223 160.997347 
L 607.75005 162.442599 
L 607.983949 163.887851 
L 608.202527 165.333103 
L 608.40438 166.778355 
L 608.588104 168.223607 
L 608.752305 169.668859 
L 608.895609 171.114111 
L 609.016666 172.559363 
L 609.114165 174.004615 
L 609.186837 175.449867 
L 609.23347 176.895119 
L 609.252917 178.340371 
L 609.244104 179.785622 
L 609.206044 181.230874 
L 609.137841 182.676126 
L 609.038702 184.121378 
L 608.907947 185.56663 
L 608.745014 187.011882 
L 608.549468 188.457134 
L 608.321007 189.902386 
L 608.059471 191.347638 
L 607.764838 192.79289 
L 607.437239 194.238142 
L 607.076952 195.683394 
L 606.684405 197.128646 
L 606.260179 198.573898 
L 605.805004 200.01915 
L 605.319758 201.464402 
z
" style="fill:#1f77b4;fill-opacity:0.3;"/>
   </g>
   <g id="PolyCollection_5">
    <path clip-path="url(#pb074470cad)" d="M 722.027666 313.283182 
L 703.415668 313.283182 
L 703.006324 312.372309 
L 702.584428 311.461436 
L 702.14853 310.550563 
L 701.697083 309.639689 
L 701.228472 308.728816 
L 700.741053 307.817943 
L 700.233192 306.90707 
L 699.703315 305.996197 
L 699.149949 305.085324 
L 698.571781 304.174451 
L 697.967706 303.263578 
L 697.336879 302.352705 
L 696.678768 301.441832 
L 695.993201 300.530959 
L 695.280414 299.620086 
L 694.541087 298.709212 
L 693.776379 297.798339 
L 692.987958 296.887466 
L 692.178012 295.976593 
L 691.349263 295.06572 
L 690.504963 294.154847 
L 689.648882 293.243974 
L 688.785281 292.333101 
L 687.918883 291.422228 
L 687.054825 290.511355 
L 686.1986 289.600482 
L 685.355997 288.689609 
L 684.533025 287.778735 
L 683.735833 286.867862 
L 682.970626 285.956989 
L 682.243576 285.046116 
L 681.560731 284.135243 
L 680.927925 283.22437 
L 680.350691 282.313497 
L 679.834177 281.402624 
L 679.383065 280.491751 
L 679.001508 279.580878 
L 678.693062 278.670005 
L 678.46064 277.759132 
L 678.306474 276.848258 
L 678.232083 275.937385 
L 678.238263 275.026512 
L 678.325083 274.115639 
L 678.491894 273.204766 
L 678.737351 272.293893 
L 679.059442 271.38302 
L 679.455533 270.472147 
L 679.922411 269.561274 
L 680.456341 268.650401 
L 681.053126 267.739528 
L 681.708169 266.828654 
L 682.416541 265.917781 
L 683.173039 265.006908 
L 683.972261 264.096035 
L 684.808659 263.185162 
L 685.676605 262.274289 
L 686.570445 261.363416 
L 687.48455 260.452543 
L 688.413369 259.54167 
L 689.351463 258.630797 
L 690.293553 257.719924 
L 691.234548 256.809051 
L 692.169579 255.898177 
L 693.094023 254.987304 
L 694.003525 254.076431 
L 694.894025 253.165558 
L 695.761765 252.254685 
L 696.603315 251.343812 
L 697.415579 250.432939 
L 698.195811 249.522066 
L 698.941623 248.611193 
L 699.650994 247.70032 
L 700.322276 246.789447 
L 700.9542 245.878574 
L 701.545878 244.9677 
L 702.096801 244.056827 
L 702.606839 243.145954 
L 703.076233 242.235081 
L 703.50559 241.324208 
L 703.895863 240.413335 
L 704.24834 239.502462 
L 704.564623 238.591589 
L 704.846602 237.680716 
L 705.096427 236.769843 
L 705.316479 235.85897 
L 705.509333 234.948097 
L 705.677722 234.037223 
L 705.824495 233.12635 
L 705.95258 232.215477 
L 706.064939 231.304604 
L 706.164525 230.393731 
L 706.254245 229.482858 
L 706.336915 228.571985 
L 706.415225 227.661112 
L 706.491704 226.750239 
L 706.568687 225.839366 
L 706.648289 224.928493 
L 706.732381 224.017619 
L 706.822574 223.106746 
L 718.620759 223.106746 
L 718.620759 223.106746 
L 718.710952 224.017619 
L 718.795044 224.928493 
L 718.874646 225.839366 
L 718.951629 226.750239 
L 719.028108 227.661112 
L 719.106419 228.571985 
L 719.189089 229.482858 
L 719.278808 230.393731 
L 719.378395 231.304604 
L 719.490753 232.215477 
L 719.618838 233.12635 
L 719.765611 234.037223 
L 719.934 234.948097 
L 720.126854 235.85897 
L 720.346906 236.769843 
L 720.596732 237.680716 
L 720.87871 238.591589 
L 721.194993 239.502462 
L 721.547471 240.413335 
L 721.937743 241.324208 
L 722.3671 242.235081 
L 722.836495 243.145954 
L 723.346533 244.056827 
L 723.897455 244.9677 
L 724.489133 245.878574 
L 725.121057 246.789447 
L 725.792339 247.70032 
L 726.50171 248.611193 
L 727.247522 249.522066 
L 728.027754 250.432939 
L 728.840018 251.343812 
L 729.681568 252.254685 
L 730.549309 253.165558 
L 731.439808 254.076431 
L 732.349311 254.987304 
L 733.273754 255.898177 
L 734.208785 256.809051 
L 735.14978 257.719924 
L 736.09187 258.630797 
L 737.029965 259.54167 
L 737.958783 260.452543 
L 738.872889 261.363416 
L 739.766729 262.274289 
L 740.634675 263.185162 
L 741.471073 264.096035 
L 742.270294 265.006908 
L 743.026793 265.917781 
L 743.735164 266.828654 
L 744.390208 267.739528 
L 744.986993 268.650401 
L 745.520922 269.561274 
L 745.9878 270.472147 
L 746.383891 271.38302 
L 746.705983 272.293893 
L 746.951439 273.204766 
L 747.11825 274.115639 
L 747.20507 275.026512 
L 747.21125 275.937385 
L 747.136859 276.848258 
L 746.982693 277.759132 
L 746.750272 278.670005 
L 746.441826 279.580878 
L 746.060268 280.491751 
L 745.609157 281.402624 
L 745.092642 282.313497 
L 744.515408 283.22437 
L 743.882602 284.135243 
L 743.199757 285.046116 
L 742.472707 285.956989 
L 741.7075 286.867862 
L 740.910308 287.778735 
L 740.087336 288.689609 
L 739.244733 289.600482 
L 738.388508 290.511355 
L 737.52445 291.422228 
L 736.658052 292.333101 
L 735.794452 293.243974 
L 734.93837 294.154847 
L 734.09407 295.06572 
L 733.265322 295.976593 
L 732.455376 296.887466 
L 731.666954 297.798339 
L 730.902247 298.709212 
L 730.162919 299.620086 
L 729.450132 300.530959 
L 728.764566 301.441832 
L 728.106455 302.352705 
L 727.475628 303.263578 
L 726.871552 304.174451 
L 726.293384 305.085324 
L 725.740019 305.996197 
L 725.210141 306.90707 
L 724.702281 307.817943 
L 724.214862 308.728816 
L 723.746251 309.639689 
L 723.294803 310.550563 
L 722.858905 311.461436 
L 722.437009 312.372309 
L 722.027666 313.283182 
z
" style="fill:#1f77b4;fill-opacity:0.3;"/>
   </g>
   <g id="matplotlib.axis_1">
    <g id="xtick_1">
     <g id="line2d_1">
      <defs>
       <path d="M 0 0 
L 0 3.5 
" id="m3021b78ccf" style="stroke:#000000;stroke-width:0.8;"/>
      </defs>
      <g>
       <use style="stroke:#000000;stroke-width:0.8;" x="160.888333" xlink:href="#m3021b78ccf" y="326.99"/>
      </g>
     </g>
     <g id="text_1">
      <!-- Tit For Tat -->
      <defs>
       <path d="M -0.296875 72.90625 
L 61.375 72.90625 
L 61.375 64.59375 
L 35.5 64.59375 
L 35.5 0 
L 25.59375 0 
L 25.59375 64.59375 
L -0.296875 64.59375 
z
" id="DejaVuSans-54"/>
       <path d="M 9.421875 54.6875 
L 18.40625 54.6875 
L 18.40625 0 
L 9.421875 0 
z
M 9.421875 75.984375 
L 18.40625 75.984375 
L 18.40625 64.59375 
L 9.421875 64.59375 
z
" id="DejaVuSans-69"/>
       <path d="M 18.3125 70.21875 
L 18.3125 54.6875 
L 36.8125 54.6875 
L 36.8125 47.703125 
L 18.3125 47.703125 
L 18.3125 18.015625 
Q 18.3125 11.328125 20.140625 9.421875 
Q 21.96875 7.515625 27.59375 7.515625 
L 36.8125 7.515625 
L 36.8125 0 
L 27.59375 0 
Q 17.1875 0 13.234375 3.875 
Q 9.28125 7.765625 9.28125 18.015625 
L 9.28125 47.703125 
L 2.6875 47.703125 
L 2.6875 54.6875 
L 9.28125 54.6875 
L 9.28125 70.21875 
z
" id="DejaVuSans-74"/>
       <path id="DejaVuSans-20"/>
       <path d="M 9.8125 72.90625 
L 51.703125 72.90625 
L 51.703125 64.59375 
L 19.671875 64.59375 
L 19.671875 43.109375 
L 48.578125 43.109375 
L 48.578125 34.8125 
L 19.671875 34.8125 
L 19.671875 0 
L 9.8125 0 
z
" id="DejaVuSans-46"/>
       <path d="M 30.609375 48.390625 
Q 23.390625 48.390625 19.1875 42.75 
Q 14.984375 37.109375 14.984375 27.296875 
Q 14.984375 17.484375 19.15625 11.84375 
Q 23.34375 6.203125 30.609375 6.203125 
Q 37.796875 6.203125 41.984375 11.859375 
Q 46.1875 17.53125 46.1875 27.296875 
Q 46.1875 37.015625 41.984375 42.703125 
Q 37.796875 48.390625 30.609375 48.390625 
z
M 30.609375 56 
Q 42.328125 56 49.015625 48.375 
Q 55.71875 40.765625 55.71875 27.296875 
Q 55.71875 13.875 49.015625 6.21875 
Q 42.328125 -1.421875 30.609375 -1.421875 
Q 18.84375 -1.421875 12.171875 6.21875 
Q 5.515625 13.875 5.515625 27.296875 
Q 5.515625 40.765625 12.171875 48.375 
Q 18.84375 56 30.609375 56 
z
" id="DejaVuSans-6f"/>
       <path d="M 41.109375 46.296875 
Q 39.59375 47.171875 37.8125 47.578125 
Q 36.03125 48 33.890625 48 
Q 26.265625 48 22.1875 43.046875 
Q 18.109375 38.09375 18.109375 28.8125 
L 18.109375 0 
L 9.078125 0 
L 9.078125 54.6875 
L 18.109375 54.6875 
L 18.109375 46.1875 
Q 20.953125 51.171875 25.484375 53.578125 
Q 30.03125 56 36.53125 56 
Q 37.453125 56 38.578125 55.875 
Q 39.703125 55.765625 41.0625 55.515625 
z
" id="DejaVuSans-72"/>
       <path d="M 34.28125 27.484375 
Q 23.390625 27.484375 19.1875 25 
Q 14.984375 22.515625 14.984375 16.5 
Q 14.984375 11.71875 18.140625 8.90625 
Q 21.296875 6.109375 26.703125 6.109375 
Q 34.1875 6.109375 38.703125 11.40625 
Q 43.21875 16.703125 43.21875 25.484375 
L 43.21875 27.484375 
z
M 52.203125 31.203125 
L 52.203125 0 
L 43.21875 0 
L 43.21875 8.296875 
Q 40.140625 3.328125 35.546875 0.953125 
Q 30.953125 -1.421875 24.3125 -1.421875 
Q 15.921875 -1.421875 10.953125 3.296875 
Q 6 8.015625 6 15.921875 
Q 6 25.140625 12.171875 29.828125 
Q 18.359375 34.515625 30.609375 34.515625 
L 43.21875 34.515625 
L 43.21875 35.40625 
Q 43.21875 41.609375 39.140625 45 
Q 35.0625 48.390625 27.6875 48.390625 
Q 23 48.390625 18.546875 47.265625 
Q 14.109375 46.140625 10.015625 43.890625 
L 10.015625 52.203125 
Q 14.9375 54.109375 19.578125 55.046875 
Q 24.21875 56 28.609375 56 
Q 40.484375 56 46.34375 49.84375 
Q 52.203125 43.703125 52.203125 31.203125 
z
" id="DejaVuSans-61"/>
      </defs>
      <g transform="translate(163.095833 375.0025)rotate(-90)scale(0.08 -0.08)">
       <use xlink:href="#DejaVuSans-54"/>
       <use x="61.037109" xlink:href="#DejaVuSans-69"/>
       <use x="88.820312" xlink:href="#DejaVuSans-74"/>
       <use x="128.029297" xlink:href="#DejaVuSans-20"/>
       <use x="159.816406" xlink:href="#DejaVuSans-46"/>
       <use x="217.289062" xlink:href="#DejaVuSans-6f"/>
       <use x="278.470703" xlink:href="#DejaVuSans-72"/>
       <use x="319.583984" xlink:href="#DejaVuSans-20"/>
       <use x="351.371094" xlink:href="#DejaVuSans-54"/>
       <use x="412.205078" xlink:href="#DejaVuSans-61"/>
       <use x="473.484375" xlink:href="#DejaVuSans-74"/>
      </g>
     </g>
    </g>
    <g id="xtick_2">
     <g id="line2d_2">
      <g>
       <use style="stroke:#000000;stroke-width:0.8;" x="298.846667" xlink:href="#m3021b78ccf" y="326.99"/>
      </g>
     </g>
     <g id="text_2">
      <!-- Average Copier -->
      <defs>
       <path d="M 34.1875 63.1875 
L 20.796875 26.90625 
L 47.609375 26.90625 
z
M 28.609375 72.90625 
L 39.796875 72.90625 
L 67.578125 0 
L 57.328125 0 
L 50.6875 18.703125 
L 17.828125 18.703125 
L 11.1875 0 
L 0.78125 0 
z
" id="DejaVuSans-41"/>
       <path d="M 2.984375 54.6875 
L 12.5 54.6875 
L 29.59375 8.796875 
L 46.6875 54.6875 
L 56.203125 54.6875 
L 35.6875 0 
L 23.484375 0 
z
" id="DejaVuSans-76"/>
       <path d="M 56.203125 29.59375 
L 56.203125 25.203125 
L 14.890625 25.203125 
Q 15.484375 15.921875 20.484375 11.0625 
Q 25.484375 6.203125 34.421875 6.203125 
Q 39.59375 6.203125 44.453125 7.46875 
Q 49.3125 8.734375 54.109375 11.28125 
L 54.109375 2.78125 
Q 49.265625 0.734375 44.1875 -0.34375 
Q 39.109375 -1.421875 33.890625 -1.421875 
Q 20.796875 -1.421875 13.15625 6.1875 
Q 5.515625 13.8125 5.515625 26.8125 
Q 5.515625 40.234375 12.765625 48.109375 
Q 20.015625 56 32.328125 56 
Q 43.359375 56 49.78125 48.890625 
Q 56.203125 41.796875 56.203125 29.59375 
z
M 47.21875 32.234375 
Q 47.125 39.59375 43.09375 43.984375 
Q 39.0625 48.390625 32.421875 48.390625 
Q 24.90625 48.390625 20.390625 44.140625 
Q 15.875 39.890625 15.1875 32.171875 
z
" id="DejaVuSans-65"/>
       <path d="M 45.40625 27.984375 
Q 45.40625 37.75 41.375 43.109375 
Q 37.359375 48.484375 30.078125 48.484375 
Q 22.859375 48.484375 18.828125 43.109375 
Q 14.796875 37.75 14.796875 27.984375 
Q 14.796875 18.265625 18.828125 12.890625 
Q 22.859375 7.515625 30.078125 7.515625 
Q 37.359375 7.515625 41.375 12.890625 
Q 45.40625 18.265625 45.40625 27.984375 
z
M 54.390625 6.78125 
Q 54.390625 -7.171875 48.1875 -13.984375 
Q 42 -20.796875 29.203125 -20.796875 
Q 24.46875 -20.796875 20.265625 -20.09375 
Q 16.0625 -19.390625 12.109375 -17.921875 
L 12.109375 -9.1875 
Q 16.0625 -11.328125 19.921875 -12.34375 
Q 23.78125 -13.375 27.78125 -13.375 
Q 36.625 -13.375 41.015625 -8.765625 
Q 45.40625 -4.15625 45.40625 5.171875 
L 45.40625 9.625 
Q 42.625 4.78125 38.28125 2.390625 
Q 33.9375 0 27.875 0 
Q 17.828125 0 11.671875 7.65625 
Q 5.515625 15.328125 5.515625 27.984375 
Q 5.515625 40.671875 11.671875 48.328125 
Q 17.828125 56 27.875 56 
Q 33.9375 56 38.28125 53.609375 
Q 42.625 51.21875 45.40625 46.390625 
L 45.40625 54.6875 
L 54.390625 54.6875 
z
" id="DejaVuSans-67"/>
       <path d="M 64.40625 67.28125 
L 64.40625 56.890625 
Q 59.421875 61.53125 53.78125 63.8125 
Q 48.140625 66.109375 41.796875 66.109375 
Q 29.296875 66.109375 22.65625 58.46875 
Q 16.015625 50.828125 16.015625 36.375 
Q 16.015625 21.96875 22.65625 14.328125 
Q 29.296875 6.6875 41.796875 6.6875 
Q 48.140625 6.6875 53.78125 8.984375 
Q 59.421875 11.28125 64.40625 15.921875 
L 64.40625 5.609375 
Q 59.234375 2.09375 53.4375 0.328125 
Q 47.65625 -1.421875 41.21875 -1.421875 
Q 24.65625 -1.421875 15.125 8.703125 
Q 5.609375 18.84375 5.609375 36.375 
Q 5.609375 53.953125 15.125 64.078125 
Q 24.65625 74.21875 41.21875 74.21875 
Q 47.75 74.21875 53.53125 72.484375 
Q 59.328125 70.75 64.40625 67.28125 
z
" id="DejaVuSans-43"/>
       <path d="M 18.109375 8.203125 
L 18.109375 -20.796875 
L 9.078125 -20.796875 
L 9.078125 54.6875 
L 18.109375 54.6875 
L 18.109375 46.390625 
Q 20.953125 51.265625 25.265625 53.625 
Q 29.59375 56 35.59375 56 
Q 45.5625 56 51.78125 48.09375 
Q 58.015625 40.1875 58.015625 27.296875 
Q 58.015625 14.40625 51.78125 6.484375 
Q 45.5625 -1.421875 35.59375 -1.421875 
Q 29.59375 -1.421875 25.265625 0.953125 
Q 20.953125 3.328125 18.109375 8.203125 
z
M 48.6875 27.296875 
Q 48.6875 37.203125 44.609375 42.84375 
Q 40.53125 48.484375 33.40625 48.484375 
Q 26.265625 48.484375 22.1875 42.84375 
Q 18.109375 37.203125 18.109375 27.296875 
Q 18.109375 17.390625 22.1875 11.75 
Q 26.265625 6.109375 33.40625 6.109375 
Q 40.53125 6.109375 44.609375 11.75 
Q 48.6875 17.390625 48.6875 27.296875 
z
" id="DejaVuSans-70"/>
      </defs>
      <g transform="translate(301.054167 395.8425)rotate(-90)scale(0.08 -0.08)">
       <use xlink:href="#DejaVuSans-41"/>
       <use x="68.330078" xlink:href="#DejaVuSans-76"/>
       <use x="127.509766" xlink:href="#DejaVuSans-65"/>
       <use x="189.033203" xlink:href="#DejaVuSans-72"/>
       <use x="230.146484" xlink:href="#DejaVuSans-61"/>
       <use x="291.425781" xlink:href="#DejaVuSans-67"/>
       <use x="354.902344" xlink:href="#DejaVuSans-65"/>
       <use x="416.425781" xlink:href="#DejaVuSans-20"/>
       <use x="448.212891" xlink:href="#DejaVuSans-43"/>
       <use x="518.037109" xlink:href="#DejaVuSans-6f"/>
       <use x="579.21875" xlink:href="#DejaVuSans-70"/>
       <use x="642.695312" xlink:href="#DejaVuSans-69"/>
       <use x="670.478516" xlink:href="#DejaVuSans-65"/>
       <use x="732.001953" xlink:href="#DejaVuSans-72"/>
      </g>
     </g>
    </g>
    <g id="xtick_3">
     <g id="line2d_3">
      <g>
       <use style="stroke:#000000;stroke-width:0.8;" x="436.805" xlink:href="#m3021b78ccf" y="326.99"/>
      </g>
     </g>
     <g id="text_3">
      <!-- Adaptive Pavlov 2011 -->
      <defs>
       <path d="M 45.40625 46.390625 
L 45.40625 75.984375 
L 54.390625 75.984375 
L 54.390625 0 
L 45.40625 0 
L 45.40625 8.203125 
Q 42.578125 3.328125 38.25 0.953125 
Q 33.9375 -1.421875 27.875 -1.421875 
Q 17.96875 -1.421875 11.734375 6.484375 
Q 5.515625 14.40625 5.515625 27.296875 
Q 5.515625 40.1875 11.734375 48.09375 
Q 17.96875 56 27.875 56 
Q 33.9375 56 38.25 53.625 
Q 42.578125 51.265625 45.40625 46.390625 
z
M 14.796875 27.296875 
Q 14.796875 17.390625 18.875 11.75 
Q 22.953125 6.109375 30.078125 6.109375 
Q 37.203125 6.109375 41.296875 11.75 
Q 45.40625 17.390625 45.40625 27.296875 
Q 45.40625 37.203125 41.296875 42.84375 
Q 37.203125 48.484375 30.078125 48.484375 
Q 22.953125 48.484375 18.875 42.84375 
Q 14.796875 37.203125 14.796875 27.296875 
z
" id="DejaVuSans-64"/>
       <path d="M 19.671875 64.796875 
L 19.671875 37.40625 
L 32.078125 37.40625 
Q 38.96875 37.40625 42.71875 40.96875 
Q 46.484375 44.53125 46.484375 51.125 
Q 46.484375 57.671875 42.71875 61.234375 
Q 38.96875 64.796875 32.078125 64.796875 
z
M 9.8125 72.90625 
L 32.078125 72.90625 
Q 44.34375 72.90625 50.609375 67.359375 
Q 56.890625 61.8125 56.890625 51.125 
Q 56.890625 40.328125 50.609375 34.8125 
Q 44.34375 29.296875 32.078125 29.296875 
L 19.671875 29.296875 
L 19.671875 0 
L 9.8125 0 
z
" id="DejaVuSans-50"/>
       <path d="M 9.421875 75.984375 
L 18.40625 75.984375 
L 18.40625 0 
L 9.421875 0 
z
" id="DejaVuSans-6c"/>
       <path d="M 19.1875 8.296875 
L 53.609375 8.296875 
L 53.609375 0 
L 7.328125 0 
L 7.328125 8.296875 
Q 12.9375 14.109375 22.625 23.890625 
Q 32.328125 33.6875 34.8125 36.53125 
Q 39.546875 41.84375 41.421875 45.53125 
Q 43.3125 49.21875 43.3125 52.78125 
Q 43.3125 58.59375 39.234375 62.25 
Q 35.15625 65.921875 28.609375 65.921875 
Q 23.96875 65.921875 18.8125 64.3125 
Q 13.671875 62.703125 7.8125 59.421875 
L 7.8125 69.390625 
Q 13.765625 71.78125 18.9375 73 
Q 24.125 74.21875 28.421875 74.21875 
Q 39.75 74.21875 46.484375 68.546875 
Q 53.21875 62.890625 53.21875 53.421875 
Q 53.21875 48.921875 51.53125 44.890625 
Q 49.859375 40.875 45.40625 35.40625 
Q 44.1875 33.984375 37.640625 27.21875 
Q 31.109375 20.453125 19.1875 8.296875 
z
" id="DejaVuSans-32"/>
       <path d="M 31.78125 66.40625 
Q 24.171875 66.40625 20.328125 58.90625 
Q 16.5 51.421875 16.5 36.375 
Q 16.5 21.390625 20.328125 13.890625 
Q 24.171875 6.390625 31.78125 6.390625 
Q 39.453125 6.390625 43.28125 13.890625 
Q 47.125 21.390625 47.125 36.375 
Q 47.125 51.421875 43.28125 58.90625 
Q 39.453125 66.40625 31.78125 66.40625 
z
M 31.78125 74.21875 
Q 44.046875 74.21875 50.515625 64.515625 
Q 56.984375 54.828125 56.984375 36.375 
Q 56.984375 17.96875 50.515625 8.265625 
Q 44.046875 -1.421875 31.78125 -1.421875 
Q 19.53125 -1.421875 13.0625 8.265625 
Q 6.59375 17.96875 6.59375 36.375 
Q 6.59375 54.828125 13.0625 64.515625 
Q 19.53125 74.21875 31.78125 74.21875 
z
" id="DejaVuSans-30"/>
       <path d="M 12.40625 8.296875 
L 28.515625 8.296875 
L 28.515625 63.921875 
L 10.984375 60.40625 
L 10.984375 69.390625 
L 28.421875 72.90625 
L 38.28125 72.90625 
L 38.28125 8.296875 
L 54.390625 8.296875 
L 54.390625 0 
L 12.40625 0 
z
" id="DejaVuSans-31"/>
      </defs>
      <g transform="translate(439.0125 421.29125)rotate(-90)scale(0.08 -0.08)">
       <use xlink:href="#DejaVuSans-41"/>
       <use x="68.392578" xlink:href="#DejaVuSans-64"/>
       <use x="131.869141" xlink:href="#DejaVuSans-61"/>
       <use x="193.148438" xlink:href="#DejaVuSans-70"/>
       <use x="256.625" xlink:href="#DejaVuSans-74"/>
       <use x="295.833984" xlink:href="#DejaVuSans-69"/>
       <use x="323.617188" xlink:href="#DejaVuSans-76"/>
       <use x="382.796875" xlink:href="#DejaVuSans-65"/>
       <use x="444.320312" xlink:href="#DejaVuSans-20"/>
       <use x="476.107422" xlink:href="#DejaVuSans-50"/>
       <use x="536.347656" xlink:href="#DejaVuSans-61"/>
       <use x="597.626953" xlink:href="#DejaVuSans-76"/>
       <use x="656.806641" xlink:href="#DejaVuSans-6c"/>
       <use x="684.589844" xlink:href="#DejaVuSans-6f"/>
       <use x="745.771484" xlink:href="#DejaVuSans-76"/>
       <use x="804.951172" xlink:href="#DejaVuSans-20"/>
       <use x="836.738281" xlink:href="#DejaVuSans-32"/>
       <use x="900.361328" xlink:href="#DejaVuSans-30"/>
       <use x="963.984375" xlink:href="#DejaVuSans-31"/>
       <use x="1027.607422" xlink:href="#DejaVuSans-31"/>
      </g>
     </g>
    </g>
    <g id="xtick_4">
     <g id="line2d_4">
      <g>
       <use style="stroke:#000000;stroke-width:0.8;" x="574.763333" xlink:href="#m3021b78ccf" y="326.99"/>
      </g>
     </g>
     <g id="text_4">
      <!-- Random: 0.5 -->
      <defs>
       <path d="M 44.390625 34.1875 
Q 47.5625 33.109375 50.5625 29.59375 
Q 53.5625 26.078125 56.59375 19.921875 
L 66.609375 0 
L 56 0 
L 46.6875 18.703125 
Q 43.0625 26.03125 39.671875 28.421875 
Q 36.28125 30.8125 30.421875 30.8125 
L 19.671875 30.8125 
L 19.671875 0 
L 9.8125 0 
L 9.8125 72.90625 
L 32.078125 72.90625 
Q 44.578125 72.90625 50.734375 67.671875 
Q 56.890625 62.453125 56.890625 51.90625 
Q 56.890625 45.015625 53.6875 40.46875 
Q 50.484375 35.9375 44.390625 34.1875 
z
M 19.671875 64.796875 
L 19.671875 38.921875 
L 32.078125 38.921875 
Q 39.203125 38.921875 42.84375 42.21875 
Q 46.484375 45.515625 46.484375 51.90625 
Q 46.484375 58.296875 42.84375 61.546875 
Q 39.203125 64.796875 32.078125 64.796875 
z
" id="DejaVuSans-52"/>
       <path d="M 54.890625 33.015625 
L 54.890625 0 
L 45.90625 0 
L 45.90625 32.71875 
Q 45.90625 40.484375 42.875 44.328125 
Q 39.84375 48.1875 33.796875 48.1875 
Q 26.515625 48.1875 22.3125 43.546875 
Q 18.109375 38.921875 18.109375 30.90625 
L 18.109375 0 
L 9.078125 0 
L 9.078125 54.6875 
L 18.109375 54.6875 
L 18.109375 46.1875 
Q 21.34375 51.125 25.703125 53.5625 
Q 30.078125 56 35.796875 56 
Q 45.21875 56 50.046875 50.171875 
Q 54.890625 44.34375 54.890625 33.015625 
z
" id="DejaVuSans-6e"/>
       <path d="M 52 44.1875 
Q 55.375 50.25 60.0625 53.125 
Q 64.75 56 71.09375 56 
Q 79.640625 56 84.28125 50.015625 
Q 88.921875 44.046875 88.921875 33.015625 
L 88.921875 0 
L 79.890625 0 
L 79.890625 32.71875 
Q 79.890625 40.578125 77.09375 44.375 
Q 74.3125 48.1875 68.609375 48.1875 
Q 61.625 48.1875 57.5625 43.546875 
Q 53.515625 38.921875 53.515625 30.90625 
L 53.515625 0 
L 44.484375 0 
L 44.484375 32.71875 
Q 44.484375 40.625 41.703125 44.40625 
Q 38.921875 48.1875 33.109375 48.1875 
Q 26.21875 48.1875 22.15625 43.53125 
Q 18.109375 38.875 18.109375 30.90625 
L 18.109375 0 
L 9.078125 0 
L 9.078125 54.6875 
L 18.109375 54.6875 
L 18.109375 46.1875 
Q 21.1875 51.21875 25.484375 53.609375 
Q 29.78125 56 35.6875 56 
Q 41.65625 56 45.828125 52.96875 
Q 50 49.953125 52 44.1875 
z
" id="DejaVuSans-6d"/>
       <path d="M 11.71875 12.40625 
L 22.015625 12.40625 
L 22.015625 0 
L 11.71875 0 
z
M 11.71875 51.703125 
L 22.015625 51.703125 
L 22.015625 39.3125 
L 11.71875 39.3125 
z
" id="DejaVuSans-3a"/>
       <path d="M 10.6875 12.40625 
L 21 12.40625 
L 21 0 
L 10.6875 0 
z
" id="DejaVuSans-2e"/>
       <path d="M 10.796875 72.90625 
L 49.515625 72.90625 
L 49.515625 64.59375 
L 19.828125 64.59375 
L 19.828125 46.734375 
Q 21.96875 47.46875 24.109375 47.828125 
Q 26.265625 48.1875 28.421875 48.1875 
Q 40.625 48.1875 47.75 41.5 
Q 54.890625 34.8125 54.890625 23.390625 
Q 54.890625 11.625 47.5625 5.09375 
Q 40.234375 -1.421875 26.90625 -1.421875 
Q 22.3125 -1.421875 17.546875 -0.640625 
Q 12.796875 0.140625 7.71875 1.703125 
L 7.71875 11.625 
Q 12.109375 9.234375 16.796875 8.0625 
Q 21.484375 6.890625 26.703125 6.890625 
Q 35.15625 6.890625 40.078125 11.328125 
Q 45.015625 15.765625 45.015625 23.390625 
Q 45.015625 31 40.078125 35.4375 
Q 35.15625 39.890625 26.703125 39.890625 
Q 22.75 39.890625 18.8125 39.015625 
Q 14.890625 38.140625 10.796875 36.28125 
z
" id="DejaVuSans-35"/>
      </defs>
      <g transform="translate(576.970833 385.245)rotate(-90)scale(0.08 -0.08)">
       <use xlink:href="#DejaVuSans-52"/>
       <use x="69.451172" xlink:href="#DejaVuSans-61"/>
       <use x="130.730469" xlink:href="#DejaVuSans-6e"/>
       <use x="194.109375" xlink:href="#DejaVuSans-64"/>
       <use x="257.585938" xlink:href="#DejaVuSans-6f"/>
       <use x="318.767578" xlink:href="#DejaVuSans-6d"/>
       <use x="416.179688" xlink:href="#DejaVuSans-3a"/>
       <use x="449.871094" xlink:href="#DejaVuSans-20"/>
       <use x="481.658203" xlink:href="#DejaVuSans-30"/>
       <use x="545.28125" xlink:href="#DejaVuSans-2e"/>
       <use x="577.068359" xlink:href="#DejaVuSans-35"/>
      </g>
     </g>
    </g>
    <g id="xtick_5">
     <g id="line2d_5">
      <g>
       <use style="stroke:#000000;stroke-width:0.8;" x="712.721667" xlink:href="#m3021b78ccf" y="326.99"/>
      </g>
     </g>
     <g id="text_5">
      <!-- Defector -->
      <defs>
       <path d="M 19.671875 64.796875 
L 19.671875 8.109375 
L 31.59375 8.109375 
Q 46.6875 8.109375 53.6875 14.9375 
Q 60.6875 21.78125 60.6875 36.53125 
Q 60.6875 51.171875 53.6875 57.984375 
Q 46.6875 64.796875 31.59375 64.796875 
z
M 9.8125 72.90625 
L 30.078125 72.90625 
Q 51.265625 72.90625 61.171875 64.09375 
Q 71.09375 55.28125 71.09375 36.53125 
Q 71.09375 17.671875 61.125 8.828125 
Q 51.171875 0 30.078125 0 
L 9.8125 0 
z
" id="DejaVuSans-44"/>
       <path d="M 37.109375 75.984375 
L 37.109375 68.5 
L 28.515625 68.5 
Q 23.6875 68.5 21.796875 66.546875 
Q 19.921875 64.59375 19.921875 59.515625 
L 19.921875 54.6875 
L 34.71875 54.6875 
L 34.71875 47.703125 
L 19.921875 47.703125 
L 19.921875 0 
L 10.890625 0 
L 10.890625 47.703125 
L 2.296875 47.703125 
L 2.296875 54.6875 
L 10.890625 54.6875 
L 10.890625 58.5 
Q 10.890625 67.625 15.140625 71.796875 
Q 19.390625 75.984375 28.609375 75.984375 
z
" id="DejaVuSans-66"/>
       <path d="M 48.78125 52.59375 
L 48.78125 44.1875 
Q 44.96875 46.296875 41.140625 47.34375 
Q 37.3125 48.390625 33.40625 48.390625 
Q 24.65625 48.390625 19.8125 42.84375 
Q 14.984375 37.3125 14.984375 27.296875 
Q 14.984375 17.28125 19.8125 11.734375 
Q 24.65625 6.203125 33.40625 6.203125 
Q 37.3125 6.203125 41.140625 7.25 
Q 44.96875 8.296875 48.78125 10.40625 
L 48.78125 2.09375 
Q 45.015625 0.34375 40.984375 -0.53125 
Q 36.96875 -1.421875 32.421875 -1.421875 
Q 20.0625 -1.421875 12.78125 6.34375 
Q 5.515625 14.109375 5.515625 27.296875 
Q 5.515625 40.671875 12.859375 48.328125 
Q 20.21875 56 33.015625 56 
Q 37.15625 56 41.109375 55.140625 
Q 45.0625 54.296875 48.78125 52.59375 
z
" id="DejaVuSans-63"/>
      </defs>
      <g transform="translate(714.929167 368.53)rotate(-90)scale(0.08 -0.08)">
       <use xlink:href="#DejaVuSans-44"/>
       <use x="77.001953" xlink:href="#DejaVuSans-65"/>
       <use x="138.525391" xlink:href="#DejaVuSans-66"/>
       <use x="173.730469" xlink:href="#DejaVuSans-65"/>
       <use x="235.253906" xlink:href="#DejaVuSans-63"/>
       <use x="290.234375" xlink:href="#DejaVuSans-74"/>
       <use x="329.443359" xlink:href="#DejaVuSans-6f"/>
       <use x="390.625" xlink:href="#DejaVuSans-72"/>
      </g>
     </g>
    </g>
   </g>
   <g id="matplotlib.axis_2">
    <g id="ytick_1">
     <g id="line2d_6">
      <defs>
       <path d="M 0 0 
L -3.5 0 
" id="me4e71fb780" style="stroke:#000000;stroke-width:0.8;"/>
      </defs>
      <g>
       <use style="stroke:#000000;stroke-width:0.8;" x="22.93" xlink:href="#me4e71fb780" y="289.236132"/>
      </g>
     </g>
     <g id="text_6">
      <!-- 2 -->
      <g transform="translate(10.84 292.275507)scale(0.08 -0.08)">
       <use xlink:href="#DejaVuSans-32"/>
      </g>
     </g>
    </g>
    <g id="ytick_2">
     <g id="line2d_7">
      <g>
       <use style="stroke:#000000;stroke-width:0.8;" x="22.93" xlink:href="#me4e71fb780" y="241.142033"/>
      </g>
     </g>
     <g id="text_7">
      <!-- 3 -->
      <defs>
       <path d="M 40.578125 39.3125 
Q 47.65625 37.796875 51.625 33 
Q 55.609375 28.21875 55.609375 21.1875 
Q 55.609375 10.40625 48.1875 4.484375 
Q 40.765625 -1.421875 27.09375 -1.421875 
Q 22.515625 -1.421875 17.65625 -0.515625 
Q 12.796875 0.390625 7.625 2.203125 
L 7.625 11.71875 
Q 11.71875 9.328125 16.59375 8.109375 
Q 21.484375 6.890625 26.8125 6.890625 
Q 36.078125 6.890625 40.9375 10.546875 
Q 45.796875 14.203125 45.796875 21.1875 
Q 45.796875 27.640625 41.28125 31.265625 
Q 36.765625 34.90625 28.71875 34.90625 
L 20.21875 34.90625 
L 20.21875 43.015625 
L 29.109375 43.015625 
Q 36.375 43.015625 40.234375 45.921875 
Q 44.09375 48.828125 44.09375 54.296875 
Q 44.09375 59.90625 40.109375 62.90625 
Q 36.140625 65.921875 28.71875 65.921875 
Q 24.65625 65.921875 20.015625 65.03125 
Q 15.375 64.15625 9.8125 62.3125 
L 9.8125 71.09375 
Q 15.4375 72.65625 20.34375 73.4375 
Q 25.25 74.21875 29.59375 74.21875 
Q 40.828125 74.21875 47.359375 69.109375 
Q 53.90625 64.015625 53.90625 55.328125 
Q 53.90625 49.265625 50.4375 45.09375 
Q 46.96875 40.921875 40.578125 39.3125 
z
" id="DejaVuSans-33"/>
      </defs>
      <g transform="translate(10.84 244.181408)scale(0.08 -0.08)">
       <use xlink:href="#DejaVuSans-33"/>
      </g>
     </g>
    </g>
    <g id="ytick_3">
     <g id="line2d_8">
      <g>
       <use style="stroke:#000000;stroke-width:0.8;" x="22.93" xlink:href="#me4e71fb780" y="193.047935"/>
      </g>
     </g>
     <g id="text_8">
      <!-- 4 -->
      <defs>
       <path d="M 37.796875 64.3125 
L 12.890625 25.390625 
L 37.796875 25.390625 
z
M 35.203125 72.90625 
L 47.609375 72.90625 
L 47.609375 25.390625 
L 58.015625 25.390625 
L 58.015625 17.1875 
L 47.609375 17.1875 
L 47.609375 0 
L 37.796875 0 
L 37.796875 17.1875 
L 4.890625 17.1875 
L 4.890625 26.703125 
z
" id="DejaVuSans-34"/>
      </defs>
      <g transform="translate(10.84 196.08731)scale(0.08 -0.08)">
       <use xlink:href="#DejaVuSans-34"/>
      </g>
     </g>
    </g>
    <g id="ytick_4">
     <g id="line2d_9">
      <g>
       <use style="stroke:#000000;stroke-width:0.8;" x="22.93" xlink:href="#me4e71fb780" y="144.953836"/>
      </g>
     </g>
     <g id="text_9">
      <!-- 5 -->
      <g transform="translate(10.84 147.993211)scale(0.08 -0.08)">
       <use xlink:href="#DejaVuSans-35"/>
      </g>
     </g>
    </g>
    <g id="ytick_5">
     <g id="line2d_10">
      <g>
       <use style="stroke:#000000;stroke-width:0.8;" x="22.93" xlink:href="#me4e71fb780" y="96.859737"/>
      </g>
     </g>
     <g id="text_10">
      <!-- 6 -->
      <defs>
       <path d="M 33.015625 40.375 
Q 26.375 40.375 22.484375 35.828125 
Q 18.609375 31.296875 18.609375 23.390625 
Q 18.609375 15.53125 22.484375 10.953125 
Q 26.375 6.390625 33.015625 6.390625 
Q 39.65625 6.390625 43.53125 10.953125 
Q 47.40625 15.53125 47.40625 23.390625 
Q 47.40625 31.296875 43.53125 35.828125 
Q 39.65625 40.375 33.015625 40.375 
z
M 52.59375 71.296875 
L 52.59375 62.3125 
Q 48.875 64.0625 45.09375 64.984375 
Q 41.3125 65.921875 37.59375 65.921875 
Q 27.828125 65.921875 22.671875 59.328125 
Q 17.53125 52.734375 16.796875 39.40625 
Q 19.671875 43.65625 24.015625 45.921875 
Q 28.375 48.1875 33.59375 48.1875 
Q 44.578125 48.1875 50.953125 41.515625 
Q 57.328125 34.859375 57.328125 23.390625 
Q 57.328125 12.15625 50.6875 5.359375 
Q 44.046875 -1.421875 33.015625 -1.421875 
Q 20.359375 -1.421875 13.671875 8.265625 
Q 6.984375 17.96875 6.984375 36.375 
Q 6.984375 53.65625 15.1875 63.9375 
Q 23.390625 74.21875 37.203125 74.21875 
Q 40.921875 74.21875 44.703125 73.484375 
Q 48.484375 72.75 52.59375 71.296875 
z
" id="DejaVuSans-36"/>
      </defs>
      <g transform="translate(10.84 99.899112)scale(0.08 -0.08)">
       <use xlink:href="#DejaVuSans-36"/>
      </g>
     </g>
    </g>
    <g id="ytick_6">
     <g id="line2d_11">
      <g>
       <use style="stroke:#000000;stroke-width:0.8;" x="22.93" xlink:href="#me4e71fb780" y="48.765638"/>
      </g>
     </g>
     <g id="text_11">
      <!-- 7 -->
      <defs>
       <path d="M 8.203125 72.90625 
L 55.078125 72.90625 
L 55.078125 68.703125 
L 28.609375 0 
L 18.3125 0 
L 43.21875 64.59375 
L 8.203125 64.59375 
z
" id="DejaVuSans-37"/>
      </defs>
      <g transform="translate(10.84 51.805013)scale(0.08 -0.08)">
       <use xlink:href="#DejaVuSans-37"/>
      </g>
     </g>
    </g>
   </g>
   <g id="LineCollection_1">
    <path clip-path="url(#pb074470cad)" d="M 143.643542 69.20563 
L 178.133125 69.20563 
" style="fill:none;stroke:#1f77b4;stroke-width:1.5;"/>
    <path clip-path="url(#pb074470cad)" d="M 281.601875 74.01504 
L 316.091458 74.01504 
" style="fill:none;stroke:#1f77b4;stroke-width:1.5;"/>
    <path clip-path="url(#pb074470cad)" d="M 419.560208 77.020921 
L 454.049792 77.020921 
" style="fill:none;stroke:#1f77b4;stroke-width:1.5;"/>
    <path clip-path="url(#pb074470cad)" d="M 557.518542 152.769127 
L 592.008125 152.769127 
" style="fill:none;stroke:#1f77b4;stroke-width:1.5;"/>
    <path clip-path="url(#pb074470cad)" d="M 695.476875 277.212608 
L 729.966458 277.212608 
" style="fill:none;stroke:#1f77b4;stroke-width:1.5;"/>
   </g>
   <g id="patch_3">
    <path d="M 22.93 326.99 
L 22.93 25.44 
" style="fill:none;stroke:#000000;stroke-linecap:square;stroke-linejoin:miter;stroke-width:0.8;"/>
   </g>
   <g id="patch_4">
    <path d="M 850.68 326.99 
L 850.68 25.44 
" style="fill:none;stroke:#000000;stroke-linecap:square;stroke-linejoin:miter;stroke-width:0.8;"/>
   </g>
   <g id="patch_5">
    <path d="M 22.93 326.99 
L 850.68 326.99 
" style="fill:none;stroke:#000000;stroke-linecap:square;stroke-linejoin:miter;stroke-width:0.8;"/>
   </g>
   <g id="patch_6">
    <path d="M 22.93 25.44 
L 850.68 25.44 
" style="fill:none;stroke:#000000;stroke-linecap:square;stroke-linejoin:miter;stroke-width:0.8;"/>
   </g>
   <g id="text_12">
    <!-- axelrod - Payoff -->
    <defs>
     <path d="M 54.890625 54.6875 
L 35.109375 28.078125 
L 55.90625 0 
L 45.3125 0 
L 29.390625 21.484375 
L 13.484375 0 
L 2.875 0 
L 24.125 28.609375 
L 4.6875 54.6875 
L 15.28125 54.6875 
L 29.78125 35.203125 
L 44.28125 54.6875 
z
" id="DejaVuSans-78"/>
     <path d="M 4.890625 31.390625 
L 31.203125 31.390625 
L 31.203125 23.390625 
L 4.890625 23.390625 
z
" id="DejaVuSans-2d"/>
     <path d="M 32.171875 -5.078125 
Q 28.375 -14.84375 24.75 -17.8125 
Q 21.140625 -20.796875 15.09375 -20.796875 
L 7.90625 -20.796875 
L 7.90625 -13.28125 
L 13.1875 -13.28125 
Q 16.890625 -13.28125 18.9375 -11.515625 
Q 21 -9.765625 23.484375 -3.21875 
L 25.09375 0.875 
L 2.984375 54.6875 
L 12.5 54.6875 
L 29.59375 11.921875 
L 46.6875 54.6875 
L 56.203125 54.6875 
z
" id="DejaVuSans-79"/>
    </defs>
    <g transform="translate(389.559688 19.44)scale(0.12 -0.12)">
     <use xlink:href="#DejaVuSans-61"/>
     <use x="61.279297" xlink:href="#DejaVuSans-78"/>
     <use x="120.412109" xlink:href="#DejaVuSans-65"/>
     <use x="181.935547" xlink:href="#DejaVuSans-6c"/>
     <use x="209.71875" xlink:href="#DejaVuSans-72"/>
     <use x="250.800781" xlink:href="#DejaVuSans-6f"/>
     <use x="311.982422" xlink:href="#DejaVuSans-64"/>
     <use x="375.458984" xlink:href="#DejaVuSans-20"/>
     <use x="407.246094" xlink:href="#DejaVuSans-2d"/>
     <use x="443.330078" xlink:href="#DejaVuSans-20"/>
     <use x="475.117188" xlink:href="#DejaVuSans-50"/>
     <use x="535.357422" xlink:href="#DejaVuSans-61"/>
     <use x="596.636719" xlink:href="#DejaVuSans-79"/>
     <use x="655.816406" xlink:href="#DejaVuSans-6f"/>
     <use x="716.998047" xlink:href="#DejaVuSans-66"/>
     <use x="752.203125" xlink:href="#DejaVuSans-66"/>
    </g>
   </g>
  </g>
 </g>
 <defs>
  <clipPath id="pb074470cad">
   <rect height="301.55" width="827.75" x="22.93" y="25.44"/>
  </clipPath>
 </defs>
</svg>
