<?xml version="1.0" encoding="utf-8" standalone="no"?>
<!DOCTYPE svg PUBLIC "-//W3C//DTD SVG 1.1//EN"
  "http://www.w3.org/Graphics/SVG/1.1/DTD/svg11.dtd">
<!-- Created with matplotlib (http://matplotlib.org/) -->
<svg height="432pt" version="1.1" viewBox="0 0 864 432" width="864pt" xmlns="http://www.w3.org/2000/svg" xmlns:xlink="http://www.w3.org/1999/xlink">
 <defs>
  <style type="text/css">
*{stroke-linecap:butt;stroke-linejoin:round;}
  </style>
 </defs>
 <g id="figure_1">
  <g id="patch_1">
   <path d="M 0 432 
L 864 432 
L 864 0 
L 0 0 
z
" style="fill:#ffffff;"/>
  </g>
  <g id="axes_1">
   <g id="patch_2">
    <path d="M 37.15 326.99 
L 850.68 326.99 
L 850.68 25.44 
L 37.15 25.44 
z
" style="fill:#ffffff;"/>
   </g>
   <g id="PolyCollection_1">
    <path clip-path="url(#pbefdbe2ef1)" d="M 185.92079 199.059697 
L 159.555876 199.059697 
L 159.571419 198.828942 
L 159.618076 198.598188 
L 159.69551 198.367433 
L 159.803169 198.136679 
L 159.940286 197.905924 
L 160.105892 197.67517 
L 160.298828 197.444415 
L 160.517753 197.213661 
L 160.761165 196.982906 
L 161.027412 196.752152 
L 161.314713 196.521397 
L 161.621175 196.290643 
L 161.944813 196.059888 
L 162.283572 195.829134 
L 162.635342 195.598379 
L 162.997983 195.367625 
L 163.369342 195.13687 
L 163.74727 194.906116 
L 164.129643 194.675361 
L 164.514374 194.444607 
L 164.899432 194.213852 
L 165.282852 193.983098 
L 165.662746 193.752343 
L 166.037315 193.521589 
L 166.404853 193.290834 
L 166.763757 193.06008 
L 167.112523 192.829325 
L 167.449755 192.598571 
L 167.774159 192.367816 
L 168.084544 192.137062 
L 168.379814 191.906307 
L 168.658967 191.675552 
L 168.921082 191.444798 
L 169.165316 191.214043 
L 169.390894 190.983289 
L 169.597095 190.752534 
L 169.783246 190.52178 
L 169.948706 190.291025 
L 170.092861 190.060271 
L 170.215111 189.829516 
L 170.314856 189.598762 
L 170.391491 189.368007 
L 170.444396 189.137253 
L 170.472927 188.906498 
L 170.476413 188.675744 
L 170.454145 188.444989 
L 170.405381 188.214235 
L 170.329336 187.98348 
L 170.225192 187.752726 
L 170.092091 187.521971 
L 169.929148 187.291217 
L 169.735452 187.060462 
L 169.510081 186.829708 
L 169.252106 186.598953 
L 168.960613 186.368199 
L 168.634709 186.137444 
L 168.273549 185.90669 
L 167.876349 185.675935 
L 167.442406 185.445181 
L 166.971124 185.214426 
L 166.462035 184.983672 
L 165.914822 184.752917 
L 165.329342 184.522163 
L 164.705651 184.291408 
L 164.04403 184.060654 
L 163.344999 183.829899 
L 162.60935 183.599144 
L 161.838154 183.36839 
L 161.032787 183.137635 
L 160.194941 182.906881 
L 159.326634 182.676126 
L 158.430221 182.445372 
L 157.508392 182.214617 
L 156.564181 181.983863 
L 155.600952 181.753108 
L 154.622396 181.522354 
L 153.632512 181.291599 
L 152.635593 181.060845 
L 151.636197 180.83009 
L 150.639122 180.599336 
L 149.649374 180.368581 
L 148.672124 180.137827 
L 147.712673 179.907072 
L 146.776402 179.676318 
L 145.868729 179.445563 
L 144.995053 179.214809 
L 144.16071 178.984054 
L 143.370912 178.7533 
L 142.630699 178.522545 
L 141.944885 178.291791 
L 141.318006 178.061036 
L 140.75427 177.830282 
L 140.257512 177.599527 
L 139.83115 177.368773 
L 139.478146 177.138018 
L 139.200973 176.907264 
L 139.001584 176.676509 
L 138.881391 176.445755 
L 138.84125 176.215 
L 206.635417 176.215 
L 206.635417 176.215 
L 206.595275 176.445755 
L 206.475083 176.676509 
L 206.275694 176.907264 
L 205.99852 177.138018 
L 205.645516 177.368773 
L 205.219154 177.599527 
L 204.722397 177.830282 
L 204.158661 178.061036 
L 203.531781 178.291791 
L 202.845967 178.522545 
L 202.105755 178.7533 
L 201.315957 178.984054 
L 200.481613 179.214809 
L 199.607938 179.445563 
L 198.700264 179.676318 
L 197.763994 179.907072 
L 196.804542 180.137827 
L 195.827293 180.368581 
L 194.837544 180.599336 
L 193.84047 180.83009 
L 192.841074 181.060845 
L 191.844155 181.291599 
L 190.854271 181.522354 
L 189.875714 181.753108 
L 188.912485 181.983863 
L 187.968274 182.214617 
L 187.046446 182.445372 
L 186.150032 182.676126 
L 185.281725 182.906881 
L 184.443879 183.137635 
L 183.638513 183.36839 
L 182.867317 183.599144 
L 182.131667 183.829899 
L 181.432637 184.060654 
L 180.771015 184.291408 
L 180.147325 184.522163 
L 179.561845 184.752917 
L 179.014631 184.983672 
L 178.505543 185.214426 
L 178.034261 185.445181 
L 177.600318 185.675935 
L 177.203117 185.90669 
L 176.841957 186.137444 
L 176.516054 186.368199 
L 176.22456 186.598953 
L 175.966586 186.829708 
L 175.741214 187.060462 
L 175.547519 187.291217 
L 175.384576 187.521971 
L 175.251475 187.752726 
L 175.14733 187.98348 
L 175.071286 188.214235 
L 175.022522 188.444989 
L 175.000254 188.675744 
L 175.003739 188.906498 
L 175.032271 189.137253 
L 175.085176 189.368007 
L 175.161811 189.598762 
L 175.261556 189.829516 
L 175.383805 190.060271 
L 175.527961 190.291025 
L 175.693421 190.52178 
L 175.879571 190.752534 
L 176.085772 190.983289 
L 176.31135 191.214043 
L 176.555585 191.444798 
L 176.8177 191.675552 
L 177.096852 191.906307 
L 177.392122 192.137062 
L 177.702507 192.367816 
L 178.026912 192.598571 
L 178.364144 192.829325 
L 178.71291 193.06008 
L 179.071813 193.290834 
L 179.439352 193.521589 
L 179.813921 193.752343 
L 180.193815 193.983098 
L 180.577234 194.213852 
L 180.962292 194.444607 
L 181.347024 194.675361 
L 181.729397 194.906116 
L 182.107325 195.13687 
L 182.478684 195.367625 
L 182.841325 195.598379 
L 183.193095 195.829134 
L 183.531854 196.059888 
L 183.855492 196.290643 
L 184.161954 196.521397 
L 184.449254 196.752152 
L 184.715501 196.982906 
L 184.958913 197.213661 
L 185.177839 197.444415 
L 185.370775 197.67517 
L 185.536381 197.905924 
L 185.673498 198.136679 
L 185.781156 198.367433 
L 185.858591 198.598188 
L 185.905248 198.828942 
L 185.92079 199.059697 
z
" style="fill:#1f77b4;fill-opacity:0.3;"/>
   </g>
   <g id="PolyCollection_2">
    <path clip-path="url(#pbefdbe2ef1)" d="M 309.311692 267.593788 
L 307.341641 267.593788 
L 307.354781 265.747752 
L 307.393547 263.901716 
L 307.454528 262.05568 
L 307.532525 260.209643 
L 307.621099 258.363607 
L 307.713192 256.517571 
L 307.801704 254.671535 
L 307.879955 252.825499 
L 307.941973 250.979463 
L 307.982627 249.133427 
L 307.997637 247.287391 
L 307.983554 245.441354 
L 307.937771 243.595318 
L 307.858612 241.749282 
L 307.745509 239.903246 
L 307.599218 238.05721 
L 307.421959 236.211174 
L 307.217372 234.365138 
L 306.990168 232.519102 
L 306.745407 230.673066 
L 306.487453 228.827029 
L 306.218724 226.980993 
L 305.938517 225.134957 
L 305.642199 223.288921 
L 305.321077 221.442885 
L 304.963145 219.596849 
L 304.554709 217.750813 
L 304.082639 215.904777 
L 303.536773 214.05874 
L 302.911784 212.212704 
L 302.20787 210.366668 
L 301.429725 208.520632 
L 300.583715 206.674596 
L 299.673615 204.82856 
L 298.695852 202.982524 
L 297.635611 201.136488 
L 296.465283 199.290451 
L 295.146521 197.444415 
L 293.636499 195.598379 
L 291.89804 193.752343 
L 289.912161 191.906307 
L 287.690638 190.060271 
L 285.285685 188.214235 
L 282.793942 186.368199 
L 280.35279 184.522163 
L 278.128457 182.676126 
L 276.297117 180.83009 
L 275.021865 178.984054 
L 274.429583 177.138018 
L 274.591993 175.291982 
L 275.514558 173.445946 
L 277.135362 171.59991 
L 279.334081 169.753874 
L 281.949209 167.907837 
L 284.800113 166.061801 
L 287.70982 164.215765 
L 290.524632 162.369729 
L 293.127669 160.523693 
L 295.444972 158.677657 
L 297.444383 156.831621 
L 299.128716 154.985585 
L 300.525559 153.139549 
L 301.676169 151.293512 
L 302.625605 149.447476 
L 303.415454 147.60144 
L 304.079722 145.755404 
L 304.643658 143.909368 
L 305.12476 142.063332 
L 305.534998 140.217296 
L 305.883294 138.37126 
L 306.177566 136.525223 
L 306.425939 134.679187 
L 306.637071 132.833151 
L 306.819775 130.987115 
L 306.982255 129.141079 
L 307.131288 127.295043 
L 307.271625 125.449007 
L 307.405745 123.602971 
L 307.534 121.756934 
L 307.655044 119.910898 
L 307.766443 118.064862 
L 307.865283 116.218826 
L 307.948695 114.37279 
L 308.014211 112.526754 
L 308.05996 110.680718 
L 308.084736 108.834682 
L 308.088001 106.988646 
L 308.069891 105.142609 
L 308.031271 103.296573 
L 307.97384 101.450537 
L 307.900266 99.604501 
L 307.814299 97.758465 
L 307.72079 95.912429 
L 307.625558 94.066393 
L 307.53507 92.220357 
L 307.455941 90.37432 
L 307.39431 88.528284 
L 307.355182 86.682248 
L 307.341846 84.836212 
L 309.311487 84.836212 
L 309.311487 84.836212 
L 309.298151 86.682248 
L 309.259023 88.528284 
L 309.197392 90.37432 
L 309.118263 92.220357 
L 309.027775 94.066393 
L 308.932544 95.912429 
L 308.839035 97.758465 
L 308.753067 99.604501 
L 308.679493 101.450537 
L 308.622062 103.296573 
L 308.583442 105.142609 
L 308.565333 106.988646 
L 308.568597 108.834682 
L 308.593373 110.680718 
L 308.639123 112.526754 
L 308.704639 114.37279 
L 308.78805 116.218826 
L 308.88689 118.064862 
L 308.998289 119.910898 
L 309.119334 121.756934 
L 309.247588 123.602971 
L 309.381708 125.449007 
L 309.522045 127.295043 
L 309.671078 129.141079 
L 309.833558 130.987115 
L 310.016263 132.833151 
L 310.227395 134.679187 
L 310.475767 136.525223 
L 310.770039 138.37126 
L 311.118335 140.217296 
L 311.528573 142.063332 
L 312.009675 143.909368 
L 312.573611 145.755404 
L 313.23788 147.60144 
L 314.027728 149.447476 
L 314.977164 151.293512 
L 316.127775 153.139549 
L 317.524617 154.985585 
L 319.20895 156.831621 
L 321.208361 158.677657 
L 323.525665 160.523693 
L 326.128701 162.369729 
L 328.943513 164.215765 
L 331.853221 166.061801 
L 334.704124 167.907837 
L 337.319252 169.753874 
L 339.517971 171.59991 
L 341.138775 173.445946 
L 342.061341 175.291982 
L 342.22375 177.138018 
L 341.631468 178.984054 
L 340.356217 180.83009 
L 338.524876 182.676126 
L 336.300543 184.522163 
L 333.859392 186.368199 
L 331.367649 188.214235 
L 328.962695 190.060271 
L 326.741172 191.906307 
L 324.755293 193.752343 
L 323.016835 195.598379 
L 321.506812 197.444415 
L 320.18805 199.290451 
L 319.017723 201.136488 
L 317.957481 202.982524 
L 316.979718 204.82856 
L 316.069618 206.674596 
L 315.223609 208.520632 
L 314.445464 210.366668 
L 313.741549 212.212704 
L 313.116561 214.05874 
L 312.570694 215.904777 
L 312.098625 217.750813 
L 311.690188 219.596849 
L 311.332256 221.442885 
L 311.011134 223.288921 
L 310.714816 225.134957 
L 310.43461 226.980993 
L 310.165881 228.827029 
L 309.907926 230.673066 
L 309.663166 232.519102 
L 309.435961 234.365138 
L 309.231374 236.211174 
L 309.054115 238.05721 
L 308.907824 239.903246 
L 308.794722 241.749282 
L 308.715562 243.595318 
L 308.669779 245.441354 
L 308.655697 247.287391 
L 308.670706 249.133427 
L 308.71136 250.979463 
L 308.773379 252.825499 
L 308.85163 254.671535 
L 308.940141 256.517571 
L 309.032234 258.363607 
L 309.120809 260.209643 
L 309.198806 262.05568 
L 309.259787 263.901716 
L 309.298552 265.747752 
L 309.311692 267.593788 
z
" style="fill:#1f77b4;fill-opacity:0.3;"/>
   </g>
   <g id="PolyCollection_3">
    <path clip-path="url(#pbefdbe2ef1)" d="M 449.230723 221.904394 
L 438.599277 221.904394 
L 438.168574 220.519867 
L 437.70928 219.13534 
L 437.216207 217.750813 
L 436.684742 216.366286 
L 436.111385 214.981758 
L 435.494162 213.597231 
L 434.832881 212.212704 
L 434.129134 210.828177 
L 433.386045 209.44365 
L 432.607746 208.059123 
L 431.798645 206.674596 
L 430.962564 205.290069 
L 430.101863 203.905542 
L 429.21671 202.521015 
L 428.304608 201.136488 
L 427.360341 199.751961 
L 426.376386 198.367433 
L 425.343861 196.982906 
L 424.253932 195.598379 
L 423.099597 194.213852 
L 421.877651 192.829325 
L 420.590622 191.444798 
L 419.248406 190.060271 
L 417.869383 188.675744 
L 416.480785 187.291217 
L 415.118193 185.90669 
L 413.82411 184.522163 
L 412.645684 183.137635 
L 411.631735 181.753108 
L 410.829341 180.368581 
L 410.280317 178.984054 
L 410.017917 177.599527 
L 410.064102 176.215 
L 410.427649 174.830473 
L 411.103296 173.445946 
L 412.072004 172.061419 
L 413.302297 170.676892 
L 414.752539 169.292365 
L 416.373892 167.907837 
L 418.113676 166.52331 
L 419.918773 165.138783 
L 421.738795 163.754256 
L 423.528725 162.369729 
L 425.250866 160.985202 
L 426.875983 159.600675 
L 428.383645 158.216148 
L 429.761839 156.831621 
L 431.006009 155.447094 
L 432.117698 154.062567 
L 433.103001 152.678039 
L 433.971015 151.293512 
L 434.732443 149.908985 
L 435.398473 148.524458 
L 435.979967 147.139931 
L 436.487 145.755404 
L 436.928679 144.370877 
L 437.313197 142.98635 
L 437.648027 141.601823 
L 437.940161 140.217296 
L 438.196333 138.832769 
L 438.423161 137.448242 
L 438.627172 136.063714 
L 438.814716 134.679187 
L 438.991784 133.29466 
L 439.163758 131.910133 
L 439.33516 130.525606 
L 439.509419 129.141079 
L 439.688719 127.756552 
L 439.873942 126.372025 
L 440.064723 124.987498 
L 440.259611 123.602971 
L 440.456315 122.218444 
L 440.652008 120.833916 
L 440.843649 119.449389 
L 441.028289 118.064862 
L 441.203327 116.680335 
L 441.366699 115.295808 
L 441.516976 113.911281 
L 441.653388 112.526754 
L 441.775769 111.142227 
L 441.884447 109.7577 
L 441.980107 108.373173 
L 442.06365 106.988646 
L 442.13606 105.604118 
L 442.198313 104.219591 
L 442.251324 102.835064 
L 442.295943 101.450537 
L 442.33298 100.06601 
L 442.363267 98.681483 
L 442.387729 97.296956 
L 442.40744 95.912429 
L 442.423673 94.527902 
L 442.437911 93.143375 
L 442.451819 91.758848 
L 442.46718 90.37432 
L 442.485808 88.989793 
L 442.509422 87.605266 
L 442.539532 86.220739 
L 442.57732 84.836212 
L 445.25268 84.836212 
L 445.25268 84.836212 
L 445.290468 86.220739 
L 445.320578 87.605266 
L 445.344192 88.989793 
L 445.36282 90.37432 
L 445.378181 91.758848 
L 445.392089 93.143375 
L 445.406327 94.527902 
L 445.42256 95.912429 
L 445.442271 97.296956 
L 445.466733 98.681483 
L 445.49702 100.06601 
L 445.534057 101.450537 
L 445.578676 102.835064 
L 445.631687 104.219591 
L 445.69394 105.604118 
L 445.76635 106.988646 
L 445.849893 108.373173 
L 445.945553 109.7577 
L 446.054231 111.142227 
L 446.176612 112.526754 
L 446.313024 113.911281 
L 446.463301 115.295808 
L 446.626673 116.680335 
L 446.801711 118.064862 
L 446.986351 119.449389 
L 447.177992 120.833916 
L 447.373685 122.218444 
L 447.570389 123.602971 
L 447.765277 124.987498 
L 447.956058 126.372025 
L 448.141281 127.756552 
L 448.320581 129.141079 
L 448.49484 130.525606 
L 448.666242 131.910133 
L 448.838216 133.29466 
L 449.015284 134.679187 
L 449.202828 136.063714 
L 449.406839 137.448242 
L 449.633667 138.832769 
L 449.889839 140.217296 
L 450.181973 141.601823 
L 450.516803 142.98635 
L 450.901321 144.370877 
L 451.343 145.755404 
L 451.850033 147.139931 
L 452.431527 148.524458 
L 453.097557 149.908985 
L 453.858985 151.293512 
L 454.726999 152.678039 
L 455.712302 154.062567 
L 456.823991 155.447094 
L 458.068161 156.831621 
L 459.446355 158.216148 
L 460.954017 159.600675 
L 462.579134 160.985202 
L 464.301275 162.369729 
L 466.091205 163.754256 
L 467.911227 165.138783 
L 469.716324 166.52331 
L 471.456108 167.907837 
L 473.077461 169.292365 
L 474.527703 170.676892 
L 475.757996 172.061419 
L 476.726704 173.445946 
L 477.402351 174.830473 
L 477.765898 176.215 
L 477.812083 177.599527 
L 477.549683 178.984054 
L 477.000659 180.368581 
L 476.198265 181.753108 
L 475.184316 183.137635 
L 474.00589 184.522163 
L 472.711807 185.90669 
L 471.349215 187.291217 
L 469.960617 188.675744 
L 468.581594 190.060271 
L 467.239378 191.444798 
L 465.952349 192.829325 
L 464.730403 194.213852 
L 463.576068 195.598379 
L 462.486139 196.982906 
L 461.453614 198.367433 
L 460.469659 199.751961 
L 459.525392 201.136488 
L 458.61329 202.521015 
L 457.728137 203.905542 
L 456.867436 205.290069 
L 456.031355 206.674596 
L 455.222254 208.059123 
L 454.443955 209.44365 
L 453.700866 210.828177 
L 452.997119 212.212704 
L 452.335838 213.597231 
L 451.718615 214.981758 
L 451.145258 216.366286 
L 450.613793 217.750813 
L 450.12072 219.13534 
L 449.661426 220.519867 
L 449.230723 221.904394 
z
" style="fill:#1f77b4;fill-opacity:0.3;"/>
   </g>
   <g id="PolyCollection_4">
    <path clip-path="url(#pbefdbe2ef1)" d="M 581.747613 313.283182 
L 577.259054 313.283182 
L 577.096968 311.437146 
L 576.925952 309.59111 
L 576.744585 307.745073 
L 576.551372 305.899037 
L 576.344824 304.053001 
L 576.123563 302.206965 
L 575.886419 300.360929 
L 575.63254 298.514893 
L 575.361496 296.668857 
L 575.073372 294.822821 
L 574.768838 292.976785 
L 574.449209 291.130748 
L 574.116458 289.284712 
L 573.773212 287.438676 
L 573.422704 285.59264 
L 573.068688 283.746604 
L 572.715328 281.900568 
L 572.36705 280.054532 
L 572.028378 278.208496 
L 571.703753 276.362459 
L 571.397344 274.516423 
L 571.112869 272.670387 
L 570.85343 270.824351 
L 570.621373 268.978315 
L 570.418178 267.132279 
L 570.244388 265.286243 
L 570.099583 263.440207 
L 569.982387 261.59417 
L 569.890524 259.748134 
L 569.820903 257.902098 
L 569.769731 256.056062 
L 569.732648 254.210026 
L 569.704872 252.36399 
L 569.681345 250.517954 
L 569.656876 248.671918 
L 569.626264 246.825882 
L 569.584403 244.979845 
L 569.526366 243.133809 
L 569.44746 241.287773 
L 569.343248 239.441737 
L 569.209562 237.595701 
L 569.042483 235.749665 
L 568.838307 233.903629 
L 568.593507 232.057593 
L 568.304694 230.211556 
L 567.968577 228.36552 
L 567.581946 226.519484 
L 567.14167 224.673448 
L 566.644726 222.827412 
L 566.088264 220.981376 
L 565.469699 219.13534 
L 564.786857 217.289304 
L 564.038144 215.443268 
L 563.22276 213.597231 
L 562.340931 211.751195 
L 561.39417 209.905159 
L 560.385526 208.059123 
L 559.319837 206.213087 
L 558.203942 204.367051 
L 557.046844 202.521015 
L 555.859806 200.674979 
L 554.656352 198.828942 
L 553.452174 196.982906 
L 552.264907 195.13687 
L 551.113798 193.290834 
L 550.019248 191.444798 
L 549.002247 189.598762 
L 548.083727 187.752726 
L 547.283848 185.90669 
L 546.62126 184.060654 
L 546.112376 182.214617 
L 545.7707 180.368581 
L 545.60625 178.522545 
L 545.625105 176.676509 
L 545.82912 174.830473 
L 546.215811 172.984437 
L 546.778437 171.138401 
L 547.506264 169.292365 
L 548.384997 167.446328 
L 549.397364 165.600292 
L 550.523807 163.754256 
L 551.743248 161.90822 
L 553.033875 160.062184 
L 554.373925 158.216148 
L 555.742403 156.370112 
L 557.119716 154.524076 
L 558.488194 152.678039 
L 559.832472 150.832003 
L 561.139742 148.985967 
L 562.399858 147.139931 
L 563.605314 145.293895 
L 564.75111 143.447859 
L 565.834521 141.601823 
L 566.854799 139.755787 
L 567.812827 137.909751 
L 568.710757 136.063714 
L 569.551642 134.217678 
L 570.339096 132.371642 
L 571.076983 130.525606 
L 587.929684 130.525606 
L 587.929684 130.525606 
L 588.66757 132.371642 
L 589.455024 134.217678 
L 590.29591 136.063714 
L 591.19384 137.909751 
L 592.151868 139.755787 
L 593.172145 141.601823 
L 594.255556 143.447859 
L 595.401353 145.293895 
L 596.606809 147.139931 
L 597.866925 148.985967 
L 599.174195 150.832003 
L 600.518473 152.678039 
L 601.886951 154.524076 
L 603.264264 156.370112 
L 604.632742 158.216148 
L 605.972792 160.062184 
L 607.263419 161.90822 
L 608.482859 163.754256 
L 609.609303 165.600292 
L 610.62167 167.446328 
L 611.500403 169.292365 
L 612.228229 171.138401 
L 612.790856 172.984437 
L 613.177547 174.830473 
L 613.381561 176.676509 
L 613.400417 178.522545 
L 613.235966 180.368581 
L 612.894291 182.214617 
L 612.385406 184.060654 
L 611.722818 185.90669 
L 610.92294 187.752726 
L 610.00442 189.598762 
L 608.987419 191.444798 
L 607.892868 193.290834 
L 606.741759 195.13687 
L 605.554493 196.982906 
L 604.350314 198.828942 
L 603.146861 200.674979 
L 601.959822 202.521015 
L 600.802724 204.367051 
L 599.686829 206.213087 
L 598.621141 208.059123 
L 597.612497 209.905159 
L 596.665735 211.751195 
L 595.783907 213.597231 
L 594.968522 215.443268 
L 594.21981 217.289304 
L 593.536968 219.13534 
L 592.918403 220.981376 
L 592.36194 222.827412 
L 591.864997 224.673448 
L 591.424721 226.519484 
L 591.03809 228.36552 
L 590.701973 230.211556 
L 590.41316 232.057593 
L 590.16836 233.903629 
L 589.964184 235.749665 
L 589.797104 237.595701 
L 589.663419 239.441737 
L 589.559207 241.287773 
L 589.4803 243.133809 
L 589.422264 244.979845 
L 589.380403 246.825882 
L 589.349791 248.671918 
L 589.325322 250.517954 
L 589.301795 252.36399 
L 589.274019 254.210026 
L 589.236935 256.056062 
L 589.185763 257.902098 
L 589.116142 259.748134 
L 589.02428 261.59417 
L 588.907084 263.440207 
L 588.762278 265.286243 
L 588.588489 267.132279 
L 588.385293 268.978315 
L 588.153236 270.824351 
L 587.893798 272.670387 
L 587.609323 274.516423 
L 587.302913 276.362459 
L 586.978288 278.208496 
L 586.639617 280.054532 
L 586.291339 281.900568 
L 585.937979 283.746604 
L 585.583963 285.59264 
L 585.233454 287.438676 
L 584.890209 289.284712 
L 584.557458 291.130748 
L 584.237829 292.976785 
L 583.933295 294.822821 
L 583.64517 296.668857 
L 583.374127 298.514893 
L 583.120248 300.360929 
L 582.883103 302.206965 
L 582.661842 304.053001 
L 582.455295 305.899037 
L 582.262081 307.745073 
L 582.080715 309.59111 
L 581.909699 311.437146 
L 581.747613 313.283182 
z
" style="fill:#1f77b4;fill-opacity:0.3;"/>
   </g>
   <g id="PolyCollection_5">
    <path clip-path="url(#pbefdbe2ef1)" d="M 739.685786 176.215 
L 690.497548 176.215 
L 689.322864 174.830473 
L 688.195734 173.445946 
L 687.122449 172.061419 
L 686.10966 170.676892 
L 685.164653 169.292365 
L 684.295564 167.907837 
L 683.511495 166.52331 
L 682.822512 165.138783 
L 682.239509 163.754256 
L 681.773921 162.369729 
L 681.437307 160.985202 
L 681.240817 159.600675 
L 681.194583 158.216148 
L 681.307066 156.831621 
L 681.584421 155.447094 
L 682.029918 154.062567 
L 682.643477 152.678039 
L 683.421345 151.293512 
L 684.355949 149.908985 
L 685.435952 148.524458 
L 686.646488 147.139931 
L 687.969594 145.755404 
L 689.384783 144.370877 
L 690.869747 142.98635 
L 692.401132 141.601823 
L 693.955337 140.217296 
L 695.509302 138.832769 
L 697.04123 137.448242 
L 698.531213 136.063714 
L 699.961729 134.679187 
L 701.31801 133.29466 
L 702.588246 131.910133 
L 703.763659 130.525606 
L 704.838439 129.141079 
L 705.809564 127.756552 
L 706.676539 126.372025 
L 707.441062 124.987498 
L 708.10665 123.602971 
L 708.678262 122.218444 
L 709.161911 120.833916 
L 709.564317 119.449389 
L 709.89258 118.064862 
L 710.153916 116.680335 
L 710.355431 115.295808 
L 710.50396 113.911281 
L 710.605946 112.526754 
L 710.667379 111.142227 
L 710.69377 109.7577 
L 710.690165 108.373173 
L 710.661183 106.988646 
L 710.611083 105.604118 
L 710.543829 104.219591 
L 710.463171 102.835064 
L 710.372711 101.450537 
L 710.275965 100.06601 
L 710.176402 98.681483 
L 710.077464 97.296956 
L 709.982563 95.912429 
L 709.89505 94.527902 
L 709.818166 93.143375 
L 709.754973 91.758848 
L 709.708268 90.37432 
L 709.680495 88.989793 
L 709.673654 87.605266 
L 709.689225 86.220739 
L 709.728096 84.836212 
L 709.790529 83.451685 
L 709.876131 82.067158 
L 709.983876 80.682631 
L 710.112139 79.298104 
L 710.258764 77.913577 
L 710.421152 76.52905 
L 710.596372 75.144522 
L 710.781276 73.759995 
L 710.972621 72.375468 
L 711.167193 70.990941 
L 711.361911 69.606414 
L 711.55393 68.221887 
L 711.740716 66.83736 
L 711.920107 65.452833 
L 712.09035 64.068306 
L 712.25012 62.683779 
L 712.398524 61.299252 
L 712.53508 59.914725 
L 712.659693 58.530197 
L 712.772617 57.14567 
L 712.87441 55.761143 
L 712.96589 54.376616 
L 713.04808 52.992089 
L 713.122162 51.607562 
L 713.189425 50.223035 
L 713.251219 48.838508 
L 713.308905 47.453981 
L 713.363818 46.069454 
L 713.41722 44.684927 
L 713.470267 43.300399 
L 713.523976 41.915872 
L 713.579197 40.531345 
L 713.636589 39.146818 
L 716.546744 39.146818 
L 716.546744 39.146818 
L 716.604137 40.531345 
L 716.659357 41.915872 
L 716.713066 43.300399 
L 716.766113 44.684927 
L 716.819516 46.069454 
L 716.874428 47.453981 
L 716.932115 48.838508 
L 716.993908 50.223035 
L 717.061171 51.607562 
L 717.135253 52.992089 
L 717.217443 54.376616 
L 717.308923 55.761143 
L 717.410716 57.14567 
L 717.52364 58.530197 
L 717.648253 59.914725 
L 717.784809 61.299252 
L 717.933213 62.683779 
L 718.092984 64.068306 
L 718.263226 65.452833 
L 718.442617 66.83736 
L 718.629403 68.221887 
L 718.821422 69.606414 
L 719.01614 70.990941 
L 719.210712 72.375468 
L 719.402058 73.759995 
L 719.586962 75.144522 
L 719.762182 76.52905 
L 719.92457 77.913577 
L 720.071194 79.298104 
L 720.199457 80.682631 
L 720.307202 82.067158 
L 720.392805 83.451685 
L 720.455237 84.836212 
L 720.494109 86.220739 
L 720.509679 87.605266 
L 720.502839 88.989793 
L 720.475065 90.37432 
L 720.42836 91.758848 
L 720.365167 93.143375 
L 720.288284 94.527902 
L 720.200771 95.912429 
L 720.105869 97.296956 
L 720.006931 98.681483 
L 719.907368 100.06601 
L 719.810622 101.450537 
L 719.720162 102.835064 
L 719.639504 104.219591 
L 719.572251 105.604118 
L 719.52215 106.988646 
L 719.493169 108.373173 
L 719.489563 109.7577 
L 719.515954 111.142227 
L 719.577387 112.526754 
L 719.679373 113.911281 
L 719.827902 115.295808 
L 720.029418 116.680335 
L 720.290754 118.064862 
L 720.619017 119.449389 
L 721.021422 120.833916 
L 721.505072 122.218444 
L 722.076683 123.602971 
L 722.742272 124.987498 
L 723.506794 126.372025 
L 724.373769 127.756552 
L 725.344895 129.141079 
L 726.419674 130.525606 
L 727.595088 131.910133 
L 728.865324 133.29466 
L 730.221604 134.679187 
L 731.652121 136.063714 
L 733.142103 137.448242 
L 734.674031 138.832769 
L 736.227997 140.217296 
L 737.782201 141.601823 
L 739.313586 142.98635 
L 740.79855 144.370877 
L 742.213739 145.755404 
L 743.536845 147.139931 
L 744.747382 148.524458 
L 745.827384 149.908985 
L 746.761989 151.293512 
L 747.539856 152.678039 
L 748.153415 154.062567 
L 748.598913 155.447094 
L 748.876267 156.831621 
L 748.98875 158.216148 
L 748.942516 159.600675 
L 748.746027 160.985202 
L 748.409413 162.369729 
L 747.943825 163.754256 
L 747.360821 165.138783 
L 746.671839 166.52331 
L 745.887769 167.907837 
L 745.01868 169.292365 
L 744.073674 170.676892 
L 743.060885 172.061419 
L 741.987599 173.445946 
L 740.86047 174.830473 
L 739.685786 176.215 
z
" style="fill:#1f77b4;fill-opacity:0.3;"/>
   </g>
   <g id="matplotlib.axis_1">
    <g id="xtick_1">
     <g id="line2d_1">
      <defs>
       <path d="M 0 0 
L 0 3.5 
" id="m39ea8ae966" style="stroke:#000000;stroke-width:0.8;"/>
      </defs>
      <g>
       <use style="stroke:#000000;stroke-width:0.8;" x="172.738333" xlink:href="#m39ea8ae966" y="326.99"/>
      </g>
     </g>
     <g id="text_1">
      <!-- Tit For Tat -->
      <defs>
       <path d="M -0.296875 72.90625 
L 61.375 72.90625 
L 61.375 64.59375 
L 35.5 64.59375 
L 35.5 0 
L 25.59375 0 
L 25.59375 64.59375 
L -0.296875 64.59375 
z
" id="DejaVuSans-54"/>
       <path d="M 9.421875 54.6875 
L 18.40625 54.6875 
L 18.40625 0 
L 9.421875 0 
z
M 9.421875 75.984375 
L 18.40625 75.984375 
L 18.40625 64.59375 
L 9.421875 64.59375 
z
" id="DejaVuSans-69"/>
       <path d="M 18.3125 70.21875 
L 18.3125 54.6875 
L 36.8125 54.6875 
L 36.8125 47.703125 
L 18.3125 47.703125 
L 18.3125 18.015625 
Q 18.3125 11.328125 20.140625 9.421875 
Q 21.96875 7.515625 27.59375 7.515625 
L 36.8125 7.515625 
L 36.8125 0 
L 27.59375 0 
Q 17.1875 0 13.234375 3.875 
Q 9.28125 7.765625 9.28125 18.015625 
L 9.28125 47.703125 
L 2.6875 47.703125 
L 2.6875 54.6875 
L 9.28125 54.6875 
L 9.28125 70.21875 
z
" id="DejaVuSans-74"/>
       <path id="DejaVuSans-20"/>
       <path d="M 9.8125 72.90625 
L 51.703125 72.90625 
L 51.703125 64.59375 
L 19.671875 64.59375 
L 19.671875 43.109375 
L 48.578125 43.109375 
L 48.578125 34.8125 
L 19.671875 34.8125 
L 19.671875 0 
L 9.8125 0 
z
" id="DejaVuSans-46"/>
       <path d="M 30.609375 48.390625 
Q 23.390625 48.390625 19.1875 42.75 
Q 14.984375 37.109375 14.984375 27.296875 
Q 14.984375 17.484375 19.15625 11.84375 
Q 23.34375 6.203125 30.609375 6.203125 
Q 37.796875 6.203125 41.984375 11.859375 
Q 46.1875 17.53125 46.1875 27.296875 
Q 46.1875 37.015625 41.984375 42.703125 
Q 37.796875 48.390625 30.609375 48.390625 
z
M 30.609375 56 
Q 42.328125 56 49.015625 48.375 
Q 55.71875 40.765625 55.71875 27.296875 
Q 55.71875 13.875 49.015625 6.21875 
Q 42.328125 -1.421875 30.609375 -1.421875 
Q 18.84375 -1.421875 12.171875 6.21875 
Q 5.515625 13.875 5.515625 27.296875 
Q 5.515625 40.765625 12.171875 48.375 
Q 18.84375 56 30.609375 56 
z
" id="DejaVuSans-6f"/>
       <path d="M 41.109375 46.296875 
Q 39.59375 47.171875 37.8125 47.578125 
Q 36.03125 48 33.890625 48 
Q 26.265625 48 22.1875 43.046875 
Q 18.109375 38.09375 18.109375 28.8125 
L 18.109375 0 
L 9.078125 0 
L 9.078125 54.6875 
L 18.109375 54.6875 
L 18.109375 46.1875 
Q 20.953125 51.171875 25.484375 53.578125 
Q 30.03125 56 36.53125 56 
Q 37.453125 56 38.578125 55.875 
Q 39.703125 55.765625 41.0625 55.515625 
z
" id="DejaVuSans-72"/>
       <path d="M 34.28125 27.484375 
Q 23.390625 27.484375 19.1875 25 
Q 14.984375 22.515625 14.984375 16.5 
Q 14.984375 11.71875 18.140625 8.90625 
Q 21.296875 6.109375 26.703125 6.109375 
Q 34.1875 6.109375 38.703125 11.40625 
Q 43.21875 16.703125 43.21875 25.484375 
L 43.21875 27.484375 
z
M 52.203125 31.203125 
L 52.203125 0 
L 43.21875 0 
L 43.21875 8.296875 
Q 40.140625 3.328125 35.546875 0.953125 
Q 30.953125 -1.421875 24.3125 -1.421875 
Q 15.921875 -1.421875 10.953125 3.296875 
Q 6 8.015625 6 15.921875 
Q 6 25.140625 12.171875 29.828125 
Q 18.359375 34.515625 30.609375 34.515625 
L 43.21875 34.515625 
L 43.21875 35.40625 
Q 43.21875 41.609375 39.140625 45 
Q 35.0625 48.390625 27.6875 48.390625 
Q 23 48.390625 18.546875 47.265625 
Q 14.109375 46.140625 10.015625 43.890625 
L 10.015625 52.203125 
Q 14.9375 54.109375 19.578125 55.046875 
Q 24.21875 56 28.609375 56 
Q 40.484375 56 46.34375 49.84375 
Q 52.203125 43.703125 52.203125 31.203125 
z
" id="DejaVuSans-61"/>
      </defs>
      <g transform="translate(174.945833 375.0025)rotate(-90)scale(0.08 -0.08)">
       <use xlink:href="#DejaVuSans-54"/>
       <use x="61.037109" xlink:href="#DejaVuSans-69"/>
       <use x="88.820312" xlink:href="#DejaVuSans-74"/>
       <use x="128.029297" xlink:href="#DejaVuSans-20"/>
       <use x="159.816406" xlink:href="#DejaVuSans-46"/>
       <use x="217.289062" xlink:href="#DejaVuSans-6f"/>
       <use x="278.470703" xlink:href="#DejaVuSans-72"/>
       <use x="319.583984" xlink:href="#DejaVuSans-20"/>
       <use x="351.371094" xlink:href="#DejaVuSans-54"/>
       <use x="412.205078" xlink:href="#DejaVuSans-61"/>
       <use x="473.484375" xlink:href="#DejaVuSans-74"/>
      </g>
     </g>
    </g>
    <g id="xtick_2">
     <g id="line2d_2">
      <g>
       <use style="stroke:#000000;stroke-width:0.8;" x="308.326667" xlink:href="#m39ea8ae966" y="326.99"/>
      </g>
     </g>
     <g id="text_2">
      <!-- Average Copier -->
      <defs>
       <path d="M 34.1875 63.1875 
L 20.796875 26.90625 
L 47.609375 26.90625 
z
M 28.609375 72.90625 
L 39.796875 72.90625 
L 67.578125 0 
L 57.328125 0 
L 50.6875 18.703125 
L 17.828125 18.703125 
L 11.1875 0 
L 0.78125 0 
z
" id="DejaVuSans-41"/>
       <path d="M 2.984375 54.6875 
L 12.5 54.6875 
L 29.59375 8.796875 
L 46.6875 54.6875 
L 56.203125 54.6875 
L 35.6875 0 
L 23.484375 0 
z
" id="DejaVuSans-76"/>
       <path d="M 56.203125 29.59375 
L 56.203125 25.203125 
L 14.890625 25.203125 
Q 15.484375 15.921875 20.484375 11.0625 
Q 25.484375 6.203125 34.421875 6.203125 
Q 39.59375 6.203125 44.453125 7.46875 
Q 49.3125 8.734375 54.109375 11.28125 
L 54.109375 2.78125 
Q 49.265625 0.734375 44.1875 -0.34375 
Q 39.109375 -1.421875 33.890625 -1.421875 
Q 20.796875 -1.421875 13.15625 6.1875 
Q 5.515625 13.8125 5.515625 26.8125 
Q 5.515625 40.234375 12.765625 48.109375 
Q 20.015625 56 32.328125 56 
Q 43.359375 56 49.78125 48.890625 
Q 56.203125 41.796875 56.203125 29.59375 
z
M 47.21875 32.234375 
Q 47.125 39.59375 43.09375 43.984375 
Q 39.0625 48.390625 32.421875 48.390625 
Q 24.90625 48.390625 20.390625 44.140625 
Q 15.875 39.890625 15.1875 32.171875 
z
" id="DejaVuSans-65"/>
       <path d="M 45.40625 27.984375 
Q 45.40625 37.75 41.375 43.109375 
Q 37.359375 48.484375 30.078125 48.484375 
Q 22.859375 48.484375 18.828125 43.109375 
Q 14.796875 37.75 14.796875 27.984375 
Q 14.796875 18.265625 18.828125 12.890625 
Q 22.859375 7.515625 30.078125 7.515625 
Q 37.359375 7.515625 41.375 12.890625 
Q 45.40625 18.265625 45.40625 27.984375 
z
M 54.390625 6.78125 
Q 54.390625 -7.171875 48.1875 -13.984375 
Q 42 -20.796875 29.203125 -20.796875 
Q 24.46875 -20.796875 20.265625 -20.09375 
Q 16.0625 -19.390625 12.109375 -17.921875 
L 12.109375 -9.1875 
Q 16.0625 -11.328125 19.921875 -12.34375 
Q 23.78125 -13.375 27.78125 -13.375 
Q 36.625 -13.375 41.015625 -8.765625 
Q 45.40625 -4.15625 45.40625 5.171875 
L 45.40625 9.625 
Q 42.625 4.78125 38.28125 2.390625 
Q 33.9375 0 27.875 0 
Q 17.828125 0 11.671875 7.65625 
Q 5.515625 15.328125 5.515625 27.984375 
Q 5.515625 40.671875 11.671875 48.328125 
Q 17.828125 56 27.875 56 
Q 33.9375 56 38.28125 53.609375 
Q 42.625 51.21875 45.40625 46.390625 
L 45.40625 54.6875 
L 54.390625 54.6875 
z
" id="DejaVuSans-67"/>
       <path d="M 64.40625 67.28125 
L 64.40625 56.890625 
Q 59.421875 61.53125 53.78125 63.8125 
Q 48.140625 66.109375 41.796875 66.109375 
Q 29.296875 66.109375 22.65625 58.46875 
Q 16.015625 50.828125 16.015625 36.375 
Q 16.015625 21.96875 22.65625 14.328125 
Q 29.296875 6.6875 41.796875 6.6875 
Q 48.140625 6.6875 53.78125 8.984375 
Q 59.421875 11.28125 64.40625 15.921875 
L 64.40625 5.609375 
Q 59.234375 2.09375 53.4375 0.328125 
Q 47.65625 -1.421875 41.21875 -1.421875 
Q 24.65625 -1.421875 15.125 8.703125 
Q 5.609375 18.84375 5.609375 36.375 
Q 5.609375 53.953125 15.125 64.078125 
Q 24.65625 74.21875 41.21875 74.21875 
Q 47.75 74.21875 53.53125 72.484375 
Q 59.328125 70.75 64.40625 67.28125 
z
" id="DejaVuSans-43"/>
       <path d="M 18.109375 8.203125 
L 18.109375 -20.796875 
L 9.078125 -20.796875 
L 9.078125 54.6875 
L 18.109375 54.6875 
L 18.109375 46.390625 
Q 20.953125 51.265625 25.265625 53.625 
Q 29.59375 56 35.59375 56 
Q 45.5625 56 51.78125 48.09375 
Q 58.015625 40.1875 58.015625 27.296875 
Q 58.015625 14.40625 51.78125 6.484375 
Q 45.5625 -1.421875 35.59375 -1.421875 
Q 29.59375 -1.421875 25.265625 0.953125 
Q 20.953125 3.328125 18.109375 8.203125 
z
M 48.6875 27.296875 
Q 48.6875 37.203125 44.609375 42.84375 
Q 40.53125 48.484375 33.40625 48.484375 
Q 26.265625 48.484375 22.1875 42.84375 
Q 18.109375 37.203125 18.109375 27.296875 
Q 18.109375 17.390625 22.1875 11.75 
Q 26.265625 6.109375 33.40625 6.109375 
Q 40.53125 6.109375 44.609375 11.75 
Q 48.6875 17.390625 48.6875 27.296875 
z
" id="DejaVuSans-70"/>
      </defs>
      <g transform="translate(310.534167 395.8425)rotate(-90)scale(0.08 -0.08)">
       <use xlink:href="#DejaVuSans-41"/>
       <use x="68.330078" xlink:href="#DejaVuSans-76"/>
       <use x="127.509766" xlink:href="#DejaVuSans-65"/>
       <use x="189.033203" xlink:href="#DejaVuSans-72"/>
       <use x="230.146484" xlink:href="#DejaVuSans-61"/>
       <use x="291.425781" xlink:href="#DejaVuSans-67"/>
       <use x="354.902344" xlink:href="#DejaVuSans-65"/>
       <use x="416.425781" xlink:href="#DejaVuSans-20"/>
       <use x="448.212891" xlink:href="#DejaVuSans-43"/>
       <use x="518.037109" xlink:href="#DejaVuSans-6f"/>
       <use x="579.21875" xlink:href="#DejaVuSans-70"/>
       <use x="642.695312" xlink:href="#DejaVuSans-69"/>
       <use x="670.478516" xlink:href="#DejaVuSans-65"/>
       <use x="732.001953" xlink:href="#DejaVuSans-72"/>
      </g>
     </g>
    </g>
    <g id="xtick_3">
     <g id="line2d_3">
      <g>
       <use style="stroke:#000000;stroke-width:0.8;" x="443.915" xlink:href="#m39ea8ae966" y="326.99"/>
      </g>
     </g>
     <g id="text_3">
      <!-- Adaptive Pavlov 2011 -->
      <defs>
       <path d="M 45.40625 46.390625 
L 45.40625 75.984375 
L 54.390625 75.984375 
L 54.390625 0 
L 45.40625 0 
L 45.40625 8.203125 
Q 42.578125 3.328125 38.25 0.953125 
Q 33.9375 -1.421875 27.875 -1.421875 
Q 17.96875 -1.421875 11.734375 6.484375 
Q 5.515625 14.40625 5.515625 27.296875 
Q 5.515625 40.1875 11.734375 48.09375 
Q 17.96875 56 27.875 56 
Q 33.9375 56 38.25 53.625 
Q 42.578125 51.265625 45.40625 46.390625 
z
M 14.796875 27.296875 
Q 14.796875 17.390625 18.875 11.75 
Q 22.953125 6.109375 30.078125 6.109375 
Q 37.203125 6.109375 41.296875 11.75 
Q 45.40625 17.390625 45.40625 27.296875 
Q 45.40625 37.203125 41.296875 42.84375 
Q 37.203125 48.484375 30.078125 48.484375 
Q 22.953125 48.484375 18.875 42.84375 
Q 14.796875 37.203125 14.796875 27.296875 
z
" id="DejaVuSans-64"/>
       <path d="M 19.671875 64.796875 
L 19.671875 37.40625 
L 32.078125 37.40625 
Q 38.96875 37.40625 42.71875 40.96875 
Q 46.484375 44.53125 46.484375 51.125 
Q 46.484375 57.671875 42.71875 61.234375 
Q 38.96875 64.796875 32.078125 64.796875 
z
M 9.8125 72.90625 
L 32.078125 72.90625 
Q 44.34375 72.90625 50.609375 67.359375 
Q 56.890625 61.8125 56.890625 51.125 
Q 56.890625 40.328125 50.609375 34.8125 
Q 44.34375 29.296875 32.078125 29.296875 
L 19.671875 29.296875 
L 19.671875 0 
L 9.8125 0 
z
" id="DejaVuSans-50"/>
       <path d="M 9.421875 75.984375 
L 18.40625 75.984375 
L 18.40625 0 
L 9.421875 0 
z
" id="DejaVuSans-6c"/>
       <path d="M 19.1875 8.296875 
L 53.609375 8.296875 
L 53.609375 0 
L 7.328125 0 
L 7.328125 8.296875 
Q 12.9375 14.109375 22.625 23.890625 
Q 32.328125 33.6875 34.8125 36.53125 
Q 39.546875 41.84375 41.421875 45.53125 
Q 43.3125 49.21875 43.3125 52.78125 
Q 43.3125 58.59375 39.234375 62.25 
Q 35.15625 65.921875 28.609375 65.921875 
Q 23.96875 65.921875 18.8125 64.3125 
Q 13.671875 62.703125 7.8125 59.421875 
L 7.8125 69.390625 
Q 13.765625 71.78125 18.9375 73 
Q 24.125 74.21875 28.421875 74.21875 
Q 39.75 74.21875 46.484375 68.546875 
Q 53.21875 62.890625 53.21875 53.421875 
Q 53.21875 48.921875 51.53125 44.890625 
Q 49.859375 40.875 45.40625 35.40625 
Q 44.1875 33.984375 37.640625 27.21875 
Q 31.109375 20.453125 19.1875 8.296875 
z
" id="DejaVuSans-32"/>
       <path d="M 31.78125 66.40625 
Q 24.171875 66.40625 20.328125 58.90625 
Q 16.5 51.421875 16.5 36.375 
Q 16.5 21.390625 20.328125 13.890625 
Q 24.171875 6.390625 31.78125 6.390625 
Q 39.453125 6.390625 43.28125 13.890625 
Q 47.125 21.390625 47.125 36.375 
Q 47.125 51.421875 43.28125 58.90625 
Q 39.453125 66.40625 31.78125 66.40625 
z
M 31.78125 74.21875 
Q 44.046875 74.21875 50.515625 64.515625 
Q 56.984375 54.828125 56.984375 36.375 
Q 56.984375 17.96875 50.515625 8.265625 
Q 44.046875 -1.421875 31.78125 -1.421875 
Q 19.53125 -1.421875 13.0625 8.265625 
Q 6.59375 17.96875 6.59375 36.375 
Q 6.59375 54.828125 13.0625 64.515625 
Q 19.53125 74.21875 31.78125 74.21875 
z
" id="DejaVuSans-30"/>
       <path d="M 12.40625 8.296875 
L 28.515625 8.296875 
L 28.515625 63.921875 
L 10.984375 60.40625 
L 10.984375 69.390625 
L 28.421875 72.90625 
L 38.28125 72.90625 
L 38.28125 8.296875 
L 54.390625 8.296875 
L 54.390625 0 
L 12.40625 0 
z
" id="DejaVuSans-31"/>
      </defs>
      <g transform="translate(446.1225 421.29125)rotate(-90)scale(0.08 -0.08)">
       <use xlink:href="#DejaVuSans-41"/>
       <use x="68.392578" xlink:href="#DejaVuSans-64"/>
       <use x="131.869141" xlink:href="#DejaVuSans-61"/>
       <use x="193.148438" xlink:href="#DejaVuSans-70"/>
       <use x="256.625" xlink:href="#DejaVuSans-74"/>
       <use x="295.833984" xlink:href="#DejaVuSans-69"/>
       <use x="323.617188" xlink:href="#DejaVuSans-76"/>
       <use x="382.796875" xlink:href="#DejaVuSans-65"/>
       <use x="444.320312" xlink:href="#DejaVuSans-20"/>
       <use x="476.107422" xlink:href="#DejaVuSans-50"/>
       <use x="536.347656" xlink:href="#DejaVuSans-61"/>
       <use x="597.626953" xlink:href="#DejaVuSans-76"/>
       <use x="656.806641" xlink:href="#DejaVuSans-6c"/>
       <use x="684.589844" xlink:href="#DejaVuSans-6f"/>
       <use x="745.771484" xlink:href="#DejaVuSans-76"/>
       <use x="804.951172" xlink:href="#DejaVuSans-20"/>
       <use x="836.738281" xlink:href="#DejaVuSans-32"/>
       <use x="900.361328" xlink:href="#DejaVuSans-30"/>
       <use x="963.984375" xlink:href="#DejaVuSans-31"/>
       <use x="1027.607422" xlink:href="#DejaVuSans-31"/>
      </g>
     </g>
    </g>
    <g id="xtick_4">
     <g id="line2d_4">
      <g>
       <use style="stroke:#000000;stroke-width:0.8;" x="579.503333" xlink:href="#m39ea8ae966" y="326.99"/>
      </g>
     </g>
     <g id="text_4">
      <!-- Random: 0.5 -->
      <defs>
       <path d="M 44.390625 34.1875 
Q 47.5625 33.109375 50.5625 29.59375 
Q 53.5625 26.078125 56.59375 19.921875 
L 66.609375 0 
L 56 0 
L 46.6875 18.703125 
Q 43.0625 26.03125 39.671875 28.421875 
Q 36.28125 30.8125 30.421875 30.8125 
L 19.671875 30.8125 
L 19.671875 0 
L 9.8125 0 
L 9.8125 72.90625 
L 32.078125 72.90625 
Q 44.578125 72.90625 50.734375 67.671875 
Q 56.890625 62.453125 56.890625 51.90625 
Q 56.890625 45.015625 53.6875 40.46875 
Q 50.484375 35.9375 44.390625 34.1875 
z
M 19.671875 64.796875 
L 19.671875 38.921875 
L 32.078125 38.921875 
Q 39.203125 38.921875 42.84375 42.21875 
Q 46.484375 45.515625 46.484375 51.90625 
Q 46.484375 58.296875 42.84375 61.546875 
Q 39.203125 64.796875 32.078125 64.796875 
z
" id="DejaVuSans-52"/>
       <path d="M 54.890625 33.015625 
L 54.890625 0 
L 45.90625 0 
L 45.90625 32.71875 
Q 45.90625 40.484375 42.875 44.328125 
Q 39.84375 48.1875 33.796875 48.1875 
Q 26.515625 48.1875 22.3125 43.546875 
Q 18.109375 38.921875 18.109375 30.90625 
L 18.109375 0 
L 9.078125 0 
L 9.078125 54.6875 
L 18.109375 54.6875 
L 18.109375 46.1875 
Q 21.34375 51.125 25.703125 53.5625 
Q 30.078125 56 35.796875 56 
Q 45.21875 56 50.046875 50.171875 
Q 54.890625 44.34375 54.890625 33.015625 
z
" id="DejaVuSans-6e"/>
       <path d="M 52 44.1875 
Q 55.375 50.25 60.0625 53.125 
Q 64.75 56 71.09375 56 
Q 79.640625 56 84.28125 50.015625 
Q 88.921875 44.046875 88.921875 33.015625 
L 88.921875 0 
L 79.890625 0 
L 79.890625 32.71875 
Q 79.890625 40.578125 77.09375 44.375 
Q 74.3125 48.1875 68.609375 48.1875 
Q 61.625 48.1875 57.5625 43.546875 
Q 53.515625 38.921875 53.515625 30.90625 
L 53.515625 0 
L 44.484375 0 
L 44.484375 32.71875 
Q 44.484375 40.625 41.703125 44.40625 
Q 38.921875 48.1875 33.109375 48.1875 
Q 26.21875 48.1875 22.15625 43.53125 
Q 18.109375 38.875 18.109375 30.90625 
L 18.109375 0 
L 9.078125 0 
L 9.078125 54.6875 
L 18.109375 54.6875 
L 18.109375 46.1875 
Q 21.1875 51.21875 25.484375 53.609375 
Q 29.78125 56 35.6875 56 
Q 41.65625 56 45.828125 52.96875 
Q 50 49.953125 52 44.1875 
z
" id="DejaVuSans-6d"/>
       <path d="M 11.71875 12.40625 
L 22.015625 12.40625 
L 22.015625 0 
L 11.71875 0 
z
M 11.71875 51.703125 
L 22.015625 51.703125 
L 22.015625 39.3125 
L 11.71875 39.3125 
z
" id="DejaVuSans-3a"/>
       <path d="M 10.6875 12.40625 
L 21 12.40625 
L 21 0 
L 10.6875 0 
z
" id="DejaVuSans-2e"/>
       <path d="M 10.796875 72.90625 
L 49.515625 72.90625 
L 49.515625 64.59375 
L 19.828125 64.59375 
L 19.828125 46.734375 
Q 21.96875 47.46875 24.109375 47.828125 
Q 26.265625 48.1875 28.421875 48.1875 
Q 40.625 48.1875 47.75 41.5 
Q 54.890625 34.8125 54.890625 23.390625 
Q 54.890625 11.625 47.5625 5.09375 
Q 40.234375 -1.421875 26.90625 -1.421875 
Q 22.3125 -1.421875 17.546875 -0.640625 
Q 12.796875 0.140625 7.71875 1.703125 
L 7.71875 11.625 
Q 12.109375 9.234375 16.796875 8.0625 
Q 21.484375 6.890625 26.703125 6.890625 
Q 35.15625 6.890625 40.078125 11.328125 
Q 45.015625 15.765625 45.015625 23.390625 
Q 45.015625 31 40.078125 35.4375 
Q 35.15625 39.890625 26.703125 39.890625 
Q 22.75 39.890625 18.8125 39.015625 
Q 14.890625 38.140625 10.796875 36.28125 
z
" id="DejaVuSans-35"/>
      </defs>
      <g transform="translate(581.710833 385.245)rotate(-90)scale(0.08 -0.08)">
       <use xlink:href="#DejaVuSans-52"/>
       <use x="69.451172" xlink:href="#DejaVuSans-61"/>
       <use x="130.730469" xlink:href="#DejaVuSans-6e"/>
       <use x="194.109375" xlink:href="#DejaVuSans-64"/>
       <use x="257.585938" xlink:href="#DejaVuSans-6f"/>
       <use x="318.767578" xlink:href="#DejaVuSans-6d"/>
       <use x="416.179688" xlink:href="#DejaVuSans-3a"/>
       <use x="449.871094" xlink:href="#DejaVuSans-20"/>
       <use x="481.658203" xlink:href="#DejaVuSans-30"/>
       <use x="545.28125" xlink:href="#DejaVuSans-2e"/>
       <use x="577.068359" xlink:href="#DejaVuSans-35"/>
      </g>
     </g>
    </g>
    <g id="xtick_5">
     <g id="line2d_5">
      <g>
       <use style="stroke:#000000;stroke-width:0.8;" x="715.091667" xlink:href="#m39ea8ae966" y="326.99"/>
      </g>
     </g>
     <g id="text_5">
      <!-- Defector -->
      <defs>
       <path d="M 19.671875 64.796875 
L 19.671875 8.109375 
L 31.59375 8.109375 
Q 46.6875 8.109375 53.6875 14.9375 
Q 60.6875 21.78125 60.6875 36.53125 
Q 60.6875 51.171875 53.6875 57.984375 
Q 46.6875 64.796875 31.59375 64.796875 
z
M 9.8125 72.90625 
L 30.078125 72.90625 
Q 51.265625 72.90625 61.171875 64.09375 
Q 71.09375 55.28125 71.09375 36.53125 
Q 71.09375 17.671875 61.125 8.828125 
Q 51.171875 0 30.078125 0 
L 9.8125 0 
z
" id="DejaVuSans-44"/>
       <path d="M 37.109375 75.984375 
L 37.109375 68.5 
L 28.515625 68.5 
Q 23.6875 68.5 21.796875 66.546875 
Q 19.921875 64.59375 19.921875 59.515625 
L 19.921875 54.6875 
L 34.71875 54.6875 
L 34.71875 47.703125 
L 19.921875 47.703125 
L 19.921875 0 
L 10.890625 0 
L 10.890625 47.703125 
L 2.296875 47.703125 
L 2.296875 54.6875 
L 10.890625 54.6875 
L 10.890625 58.5 
Q 10.890625 67.625 15.140625 71.796875 
Q 19.390625 75.984375 28.609375 75.984375 
z
" id="DejaVuSans-66"/>
       <path d="M 48.78125 52.59375 
L 48.78125 44.1875 
Q 44.96875 46.296875 41.140625 47.34375 
Q 37.3125 48.390625 33.40625 48.390625 
Q 24.65625 48.390625 19.8125 42.84375 
Q 14.984375 37.3125 14.984375 27.296875 
Q 14.984375 17.28125 19.8125 11.734375 
Q 24.65625 6.203125 33.40625 6.203125 
Q 37.3125 6.203125 41.140625 7.25 
Q 44.96875 8.296875 48.78125 10.40625 
L 48.78125 2.09375 
Q 45.015625 0.34375 40.984375 -0.53125 
Q 36.96875 -1.421875 32.421875 -1.421875 
Q 20.0625 -1.421875 12.78125 6.34375 
Q 5.515625 14.109375 5.515625 27.296875 
Q 5.515625 40.671875 12.859375 48.328125 
Q 20.21875 56 33.015625 56 
Q 37.15625 56 41.109375 55.140625 
Q 45.0625 54.296875 48.78125 52.59375 
z
" id="DejaVuSans-63"/>
      </defs>
      <g transform="translate(717.299167 368.53)rotate(-90)scale(0.08 -0.08)">
       <use xlink:href="#DejaVuSans-44"/>
       <use x="77.001953" xlink:href="#DejaVuSans-65"/>
       <use x="138.525391" xlink:href="#DejaVuSans-66"/>
       <use x="173.730469" xlink:href="#DejaVuSans-65"/>
       <use x="235.253906" xlink:href="#DejaVuSans-63"/>
       <use x="290.234375" xlink:href="#DejaVuSans-74"/>
       <use x="329.443359" xlink:href="#DejaVuSans-6f"/>
       <use x="390.625" xlink:href="#DejaVuSans-72"/>
      </g>
     </g>
    </g>
   </g>
   <g id="matplotlib.axis_2">
    <g id="ytick_1">
     <g id="line2d_6">
      <defs>
       <path d="M 0 0 
L -3.5 0 
" id="m5ea0d9be5a" style="stroke:#000000;stroke-width:0.8;"/>
      </defs>
      <g>
       <use style="stroke:#000000;stroke-width:0.8;" x="37.15" xlink:href="#m5ea0d9be5a" y="298.597305"/>
      </g>
     </g>
     <g id="text_6">
      <!-- −7.5 -->
      <defs>
       <path d="M 10.59375 35.5 
L 73.1875 35.5 
L 73.1875 27.203125 
L 10.59375 27.203125 
z
" id="DejaVuSans-2212"/>
       <path d="M 8.203125 72.90625 
L 55.078125 72.90625 
L 55.078125 68.703125 
L 28.609375 0 
L 18.3125 0 
L 43.21875 64.59375 
L 8.203125 64.59375 
z
" id="DejaVuSans-37"/>
      </defs>
      <g transform="translate(10.72375 301.63668)scale(0.08 -0.08)">
       <use xlink:href="#DejaVuSans-2212"/>
       <use x="83.789062" xlink:href="#DejaVuSans-37"/>
       <use x="147.412109" xlink:href="#DejaVuSans-2e"/>
       <use x="179.199219" xlink:href="#DejaVuSans-35"/>
      </g>
     </g>
    </g>
    <g id="ytick_2">
     <g id="line2d_7">
      <g>
       <use style="stroke:#000000;stroke-width:0.8;" x="37.15" xlink:href="#m5ea0d9be5a" y="257.803203"/>
      </g>
     </g>
     <g id="text_7">
      <!-- −5.0 -->
      <g transform="translate(10.72375 260.842578)scale(0.08 -0.08)">
       <use xlink:href="#DejaVuSans-2212"/>
       <use x="83.789062" xlink:href="#DejaVuSans-35"/>
       <use x="147.412109" xlink:href="#DejaVuSans-2e"/>
       <use x="179.199219" xlink:href="#DejaVuSans-30"/>
      </g>
     </g>
    </g>
    <g id="ytick_3">
     <g id="line2d_8">
      <g>
       <use style="stroke:#000000;stroke-width:0.8;" x="37.15" xlink:href="#m5ea0d9be5a" y="217.009102"/>
      </g>
     </g>
     <g id="text_8">
      <!-- −2.5 -->
      <g transform="translate(10.72375 220.048477)scale(0.08 -0.08)">
       <use xlink:href="#DejaVuSans-2212"/>
       <use x="83.789062" xlink:href="#DejaVuSans-32"/>
       <use x="147.412109" xlink:href="#DejaVuSans-2e"/>
       <use x="179.199219" xlink:href="#DejaVuSans-35"/>
      </g>
     </g>
    </g>
    <g id="ytick_4">
     <g id="line2d_9">
      <g>
       <use style="stroke:#000000;stroke-width:0.8;" x="37.15" xlink:href="#m5ea0d9be5a" y="176.215"/>
      </g>
     </g>
     <g id="text_9">
      <!-- 0.0 -->
      <g transform="translate(17.4275 179.254375)scale(0.08 -0.08)">
       <use xlink:href="#DejaVuSans-30"/>
       <use x="63.623047" xlink:href="#DejaVuSans-2e"/>
       <use x="95.410156" xlink:href="#DejaVuSans-30"/>
      </g>
     </g>
    </g>
    <g id="ytick_5">
     <g id="line2d_10">
      <g>
       <use style="stroke:#000000;stroke-width:0.8;" x="37.15" xlink:href="#m5ea0d9be5a" y="135.420898"/>
      </g>
     </g>
     <g id="text_10">
      <!-- 2.5 -->
      <g transform="translate(17.4275 138.460273)scale(0.08 -0.08)">
       <use xlink:href="#DejaVuSans-32"/>
       <use x="63.623047" xlink:href="#DejaVuSans-2e"/>
       <use x="95.410156" xlink:href="#DejaVuSans-35"/>
      </g>
     </g>
    </g>
    <g id="ytick_6">
     <g id="line2d_11">
      <g>
       <use style="stroke:#000000;stroke-width:0.8;" x="37.15" xlink:href="#m5ea0d9be5a" y="94.626797"/>
      </g>
     </g>
     <g id="text_11">
      <!-- 5.0 -->
      <g transform="translate(17.4275 97.666172)scale(0.08 -0.08)">
       <use xlink:href="#DejaVuSans-35"/>
       <use x="63.623047" xlink:href="#DejaVuSans-2e"/>
       <use x="95.410156" xlink:href="#DejaVuSans-30"/>
      </g>
     </g>
    </g>
    <g id="ytick_7">
     <g id="line2d_12">
      <g>
       <use style="stroke:#000000;stroke-width:0.8;" x="37.15" xlink:href="#m5ea0d9be5a" y="53.832695"/>
      </g>
     </g>
     <g id="text_12">
      <!-- 7.5 -->
      <g transform="translate(17.4275 56.87207)scale(0.08 -0.08)">
       <use xlink:href="#DejaVuSans-37"/>
       <use x="63.623047" xlink:href="#DejaVuSans-2e"/>
       <use x="95.410156" xlink:href="#DejaVuSans-35"/>
      </g>
     </g>
    </g>
   </g>
   <g id="LineCollection_1">
    <path clip-path="url(#pbefdbe2ef1)" d="M 155.789792 176.215 
L 189.686875 176.215 
" style="fill:none;stroke:#1f77b4;stroke-width:1.5;"/>
    <path clip-path="url(#pbefdbe2ef1)" d="M 291.378125 176.215 
L 325.275208 176.215 
" style="fill:none;stroke:#1f77b4;stroke-width:1.5;"/>
    <path clip-path="url(#pbefdbe2ef1)" d="M 426.966458 176.215 
L 460.863542 176.215 
" style="fill:none;stroke:#1f77b4;stroke-width:1.5;"/>
    <path clip-path="url(#pbefdbe2ef1)" d="M 562.554792 176.215 
L 596.451875 176.215 
" style="fill:none;stroke:#1f77b4;stroke-width:1.5;"/>
    <path clip-path="url(#pbefdbe2ef1)" d="M 698.143125 153.370303 
L 732.040208 153.370303 
" style="fill:none;stroke:#1f77b4;stroke-width:1.5;"/>
   </g>
   <g id="patch_3">
    <path d="M 37.15 326.99 
L 37.15 25.44 
" style="fill:none;stroke:#000000;stroke-linecap:square;stroke-linejoin:miter;stroke-width:0.8;"/>
   </g>
   <g id="patch_4">
    <path d="M 850.68 326.99 
L 850.68 25.44 
" style="fill:none;stroke:#000000;stroke-linecap:square;stroke-linejoin:miter;stroke-width:0.8;"/>
   </g>
   <g id="patch_5">
    <path d="M 37.15 326.99 
L 850.68 326.99 
" style="fill:none;stroke:#000000;stroke-linecap:square;stroke-linejoin:miter;stroke-width:0.8;"/>
   </g>
   <g id="patch_6">
    <path d="M 37.15 25.44 
L 850.68 25.44 
" style="fill:none;stroke:#000000;stroke-linecap:square;stroke-linejoin:miter;stroke-width:0.8;"/>
   </g>
   <g id="text_13">
    <!-- axelrod - Payoff differences -->
    <defs>
     <path d="M 54.890625 54.6875 
L 35.109375 28.078125 
L 55.90625 0 
L 45.3125 0 
L 29.390625 21.484375 
L 13.484375 0 
L 2.875 0 
L 24.125 28.609375 
L 4.6875 54.6875 
L 15.28125 54.6875 
L 29.78125 35.203125 
L 44.28125 54.6875 
z
" id="DejaVuSans-78"/>
     <path d="M 4.890625 31.390625 
L 31.203125 31.390625 
L 31.203125 23.390625 
L 4.890625 23.390625 
z
" id="DejaVuSans-2d"/>
     <path d="M 32.171875 -5.078125 
Q 28.375 -14.84375 24.75 -17.8125 
Q 21.140625 -20.796875 15.09375 -20.796875 
L 7.90625 -20.796875 
L 7.90625 -13.28125 
L 13.1875 -13.28125 
Q 16.890625 -13.28125 18.9375 -11.515625 
Q 21 -9.765625 23.484375 -3.21875 
L 25.09375 0.875 
L 2.984375 54.6875 
L 12.5 54.6875 
L 29.59375 11.921875 
L 46.6875 54.6875 
L 56.203125 54.6875 
z
" id="DejaVuSans-79"/>
     <path d="M 44.28125 53.078125 
L 44.28125 44.578125 
Q 40.484375 46.53125 36.375 47.5 
Q 32.28125 48.484375 27.875 48.484375 
Q 21.1875 48.484375 17.84375 46.4375 
Q 14.5 44.390625 14.5 40.28125 
Q 14.5 37.15625 16.890625 35.375 
Q 19.28125 33.59375 26.515625 31.984375 
L 29.59375 31.296875 
Q 39.15625 29.25 43.1875 25.515625 
Q 47.21875 21.78125 47.21875 15.09375 
Q 47.21875 7.46875 41.1875 3.015625 
Q 35.15625 -1.421875 24.609375 -1.421875 
Q 20.21875 -1.421875 15.453125 -0.5625 
Q 10.6875 0.296875 5.421875 2 
L 5.421875 11.28125 
Q 10.40625 8.6875 15.234375 7.390625 
Q 20.0625 6.109375 24.8125 6.109375 
Q 31.15625 6.109375 34.5625 8.28125 
Q 37.984375 10.453125 37.984375 14.40625 
Q 37.984375 18.0625 35.515625 20.015625 
Q 33.0625 21.96875 24.703125 23.78125 
L 21.578125 24.515625 
Q 13.234375 26.265625 9.515625 29.90625 
Q 5.8125 33.546875 5.8125 39.890625 
Q 5.8125 47.609375 11.28125 51.796875 
Q 16.75 56 26.8125 56 
Q 31.78125 56 36.171875 55.265625 
Q 40.578125 54.546875 44.28125 53.078125 
z
" id="DejaVuSans-73"/>
    </defs>
    <g transform="translate(361.295 19.44)scale(0.12 -0.12)">
     <use xlink:href="#DejaVuSans-61"/>
     <use x="61.279297" xlink:href="#DejaVuSans-78"/>
     <use x="120.412109" xlink:href="#DejaVuSans-65"/>
     <use x="181.935547" xlink:href="#DejaVuSans-6c"/>
     <use x="209.71875" xlink:href="#DejaVuSans-72"/>
     <use x="250.800781" xlink:href="#DejaVuSans-6f"/>
     <use x="311.982422" xlink:href="#DejaVuSans-64"/>
     <use x="375.458984" xlink:href="#DejaVuSans-20"/>
     <use x="407.246094" xlink:href="#DejaVuSans-2d"/>
     <use x="443.330078" xlink:href="#DejaVuSans-20"/>
     <use x="475.117188" xlink:href="#DejaVuSans-50"/>
     <use x="535.357422" xlink:href="#DejaVuSans-61"/>
     <use x="596.636719" xlink:href="#DejaVuSans-79"/>
     <use x="655.816406" xlink:href="#DejaVuSans-6f"/>
     <use x="716.998047" xlink:href="#DejaVuSans-66"/>
     <use x="752.203125" xlink:href="#DejaVuSans-66"/>
     <use x="787.408203" xlink:href="#DejaVuSans-20"/>
     <use x="819.195312" xlink:href="#DejaVuSans-64"/>
     <use x="882.671875" xlink:href="#DejaVuSans-69"/>
     <use x="910.455078" xlink:href="#DejaVuSans-66"/>
     <use x="945.660156" xlink:href="#DejaVuSans-66"/>
     <use x="980.865234" xlink:href="#DejaVuSans-65"/>
     <use x="1042.388672" xlink:href="#DejaVuSans-72"/>
     <use x="1083.470703" xlink:href="#DejaVuSans-65"/>
     <use x="1144.994141" xlink:href="#DejaVuSans-6e"/>
     <use x="1208.373047" xlink:href="#DejaVuSans-63"/>
     <use x="1263.353516" xlink:href="#DejaVuSans-65"/>
     <use x="1324.876953" xlink:href="#DejaVuSans-73"/>
    </g>
   </g>
  </g>
 </g>
 <defs>
  <clipPath id="pbefdbe2ef1">
   <rect height="301.55" width="813.53" x="37.15" y="25.44"/>
  </clipPath>
 </defs>
</svg>
