<?xml version="1.0" encoding="utf-8" standalone="no"?>
<!DOCTYPE svg PUBLIC "-//W3C//DTD SVG 1.1//EN"
  "http://www.w3.org/Graphics/SVG/1.1/DTD/svg11.dtd">
<!-- Created with matplotlib (http://matplotlib.org/) -->
<svg height="432pt" version="1.1" viewBox="0 0 864 432" width="864pt" xmlns="http://www.w3.org/2000/svg" xmlns:xlink="http://www.w3.org/1999/xlink">
 <defs>
  <style type="text/css">
*{stroke-linecap:butt;stroke-linejoin:round;}
  </style>
 </defs>
 <g id="figure_1">
  <g id="patch_1">
   <path d="M 0 432 
L 864 432 
L 864 0 
L 0 0 
z
" style="fill:#ffffff;"/>
  </g>
  <g id="axes_1">
   <g id="patch_2">
    <path d="M 30.49 326.99 
L 850.68 326.99 
L 850.68 25.44 
L 30.49 25.44 
z
" style="fill:#ffffff;"/>
   </g>
   <g id="PolyCollection_1">
    <path clip-path="url(#peab925c9a9)" d="M 201.343546 115.905 
L 133.03312 115.905 
L 133.01375 115.295808 
L 133.022584 114.686616 
L 133.059292 114.077424 
L 133.123448 113.468232 
L 133.214531 112.85904 
L 133.331928 112.249848 
L 133.474935 111.640657 
L 133.642756 111.031465 
L 133.834512 110.422273 
L 134.049238 109.813081 
L 134.28589 109.203889 
L 134.543345 108.594697 
L 134.82041 107.985505 
L 135.115822 107.376313 
L 135.428254 106.767121 
L 135.756323 106.157929 
L 136.098589 105.548737 
L 136.453566 104.939545 
L 136.819723 104.330354 
L 137.195496 103.721162 
L 137.579288 103.11197 
L 137.969477 102.502778 
L 138.364423 101.893586 
L 138.762475 101.284394 
L 139.161975 100.675202 
L 139.561266 100.06601 
L 139.958697 99.456818 
L 140.352631 98.847626 
L 140.74145 98.238434 
L 141.123563 97.629242 
L 141.497407 97.020051 
L 141.861461 96.410859 
L 142.214245 95.801667 
L 142.554327 95.192475 
L 142.88033 94.583283 
L 143.190937 93.974091 
L 143.484896 93.364899 
L 143.761021 92.755707 
L 144.018203 92.146515 
L 144.255408 91.537323 
L 144.471685 90.928131 
L 144.666166 90.318939 
L 144.838073 89.709747 
L 144.986718 89.100556 
L 145.111508 88.491364 
L 145.211942 87.882172 
L 145.287621 87.27298 
L 145.338242 86.663788 
L 145.363603 86.054596 
L 145.363603 85.445404 
L 145.338242 84.836212 
L 145.287621 84.22702 
L 145.211942 83.617828 
L 145.111508 83.008636 
L 144.986718 82.399444 
L 144.838073 81.790253 
L 144.666166 81.181061 
L 144.471685 80.571869 
L 144.255408 79.962677 
L 144.018203 79.353485 
L 143.761021 78.744293 
L 143.484896 78.135101 
L 143.190937 77.525909 
L 142.88033 76.916717 
L 142.554327 76.307525 
L 142.214245 75.698333 
L 141.861461 75.089141 
L 141.497407 74.479949 
L 141.123563 73.870758 
L 140.74145 73.261566 
L 140.352631 72.652374 
L 139.958697 72.043182 
L 139.561266 71.43399 
L 139.161975 70.824798 
L 138.762475 70.215606 
L 138.364423 69.606414 
L 137.969477 68.997222 
L 137.579288 68.38803 
L 137.195496 67.778838 
L 136.819723 67.169646 
L 136.453566 66.560455 
L 136.098589 65.951263 
L 135.756323 65.342071 
L 135.428254 64.732879 
L 135.115822 64.123687 
L 134.82041 63.514495 
L 134.543345 62.905303 
L 134.28589 62.296111 
L 134.049238 61.686919 
L 133.834512 61.077727 
L 133.642756 60.468535 
L 133.474935 59.859343 
L 133.331928 59.250152 
L 133.214531 58.64096 
L 133.123448 58.031768 
L 133.059292 57.422576 
L 133.022584 56.813384 
L 133.01375 56.204192 
L 133.03312 55.595 
L 201.343546 55.595 
L 201.343546 55.595 
L 201.362917 56.204192 
L 201.354083 56.813384 
L 201.317375 57.422576 
L 201.253219 58.031768 
L 201.162135 58.64096 
L 201.044738 59.250152 
L 200.901732 59.859343 
L 200.73391 60.468535 
L 200.542154 61.077727 
L 200.327428 61.686919 
L 200.090777 62.296111 
L 199.833322 62.905303 
L 199.556257 63.514495 
L 199.260845 64.123687 
L 198.948412 64.732879 
L 198.620343 65.342071 
L 198.278078 65.951263 
L 197.923101 66.560455 
L 197.556943 67.169646 
L 197.18117 67.778838 
L 196.797379 68.38803 
L 196.40719 68.997222 
L 196.012243 69.606414 
L 195.614191 70.215606 
L 195.214692 70.824798 
L 194.815401 71.43399 
L 194.41797 72.043182 
L 194.024036 72.652374 
L 193.635217 73.261566 
L 193.253104 73.870758 
L 192.879259 74.479949 
L 192.515205 75.089141 
L 192.162422 75.698333 
L 191.82234 76.307525 
L 191.496337 76.916717 
L 191.185729 77.525909 
L 190.891771 78.135101 
L 190.615645 78.744293 
L 190.358464 79.353485 
L 190.121258 79.962677 
L 189.904982 80.571869 
L 189.710501 81.181061 
L 189.538594 81.790253 
L 189.389948 82.399444 
L 189.265159 83.008636 
L 189.164724 83.617828 
L 189.089046 84.22702 
L 189.038425 84.836212 
L 189.013063 85.445404 
L 189.013063 86.054596 
L 189.038425 86.663788 
L 189.089046 87.27298 
L 189.164724 87.882172 
L 189.265159 88.491364 
L 189.389948 89.100556 
L 189.538594 89.709747 
L 189.710501 90.318939 
L 189.904982 90.928131 
L 190.121258 91.537323 
L 190.358464 92.146515 
L 190.615645 92.755707 
L 190.891771 93.364899 
L 191.185729 93.974091 
L 191.496337 94.583283 
L 191.82234 95.192475 
L 192.162422 95.801667 
L 192.515205 96.410859 
L 192.879259 97.020051 
L 193.253104 97.629242 
L 193.635217 98.238434 
L 194.024036 98.847626 
L 194.41797 99.456818 
L 194.815401 100.06601 
L 195.214692 100.675202 
L 195.614191 101.284394 
L 196.012243 101.893586 
L 196.40719 102.502778 
L 196.797379 103.11197 
L 197.18117 103.721162 
L 197.556943 104.330354 
L 197.923101 104.939545 
L 198.278078 105.548737 
L 198.620343 106.157929 
L 198.948412 106.767121 
L 199.260845 107.376313 
L 199.556257 107.985505 
L 199.833322 108.594697 
L 200.090777 109.203889 
L 200.327428 109.813081 
L 200.542154 110.422273 
L 200.73391 111.031465 
L 200.901732 111.640657 
L 201.044738 112.249848 
L 201.162135 112.85904 
L 201.253219 113.468232 
L 201.317375 114.077424 
L 201.354083 114.686616 
L 201.362917 115.295808 
L 201.343546 115.905 
z
" style="fill:#1f77b4;fill-opacity:0.3;"/>
   </g>
   <g id="PolyCollection_2">
    <path clip-path="url(#peab925c9a9)" d="M 335.505435 296.835 
L 272.267899 296.835 
L 271.978379 295.616616 
L 271.715542 294.398232 
L 271.478599 293.179848 
L 271.266596 291.961465 
L 271.078434 290.743081 
L 270.912876 289.524697 
L 270.768569 288.306313 
L 270.644052 287.087929 
L 270.537785 285.869545 
L 270.448158 284.651162 
L 270.373516 283.432778 
L 270.312182 282.214394 
L 270.262468 280.99601 
L 270.222705 279.777626 
L 270.191261 278.559242 
L 270.166556 277.340859 
L 270.147087 276.122475 
L 270.131442 274.904091 
L 270.118319 273.685707 
L 270.106539 272.467323 
L 270.095061 271.248939 
L 270.082992 270.030556 
L 270.069597 268.812172 
L 270.054308 267.593788 
L 270.036725 266.375404 
L 270.016624 265.15702 
L 269.993951 263.938636 
L 269.968826 262.720253 
L 269.941533 261.501869 
L 269.912518 260.283485 
L 269.882378 259.065101 
L 269.85185 257.846717 
L 269.821798 256.628333 
L 269.7932 255.409949 
L 269.767132 254.191566 
L 269.744749 252.973182 
L 269.727268 251.754798 
L 269.715952 250.536414 
L 269.712083 249.31803 
L 269.716953 248.099646 
L 269.731836 246.881263 
L 269.757972 245.662879 
L 269.796551 244.444495 
L 269.84869 243.226111 
L 269.915422 242.007727 
L 269.997677 240.789343 
L 270.096273 239.57096 
L 270.211898 238.352576 
L 270.345105 237.134192 
L 270.496303 235.915808 
L 270.665749 234.697424 
L 270.853547 233.47904 
L 271.059645 232.260657 
L 271.283837 231.042273 
L 271.525761 229.823889 
L 271.784913 228.605505 
L 272.060644 227.387121 
L 272.352174 226.168737 
L 272.658604 224.950354 
L 272.978921 223.73197 
L 273.312019 222.513586 
L 273.656708 221.295202 
L 274.011731 220.076818 
L 274.375783 218.858434 
L 274.747521 217.640051 
L 275.125586 216.421667 
L 275.508618 215.203283 
L 275.895272 213.984899 
L 276.284234 212.766515 
L 276.674237 211.548131 
L 277.064075 210.329747 
L 277.452614 209.111364 
L 277.838807 207.89298 
L 278.221704 206.674596 
L 278.600459 205.456212 
L 278.974339 204.237828 
L 279.342732 203.019444 
L 279.705145 201.801061 
L 280.061212 200.582677 
L 280.410692 199.364293 
L 280.753468 198.145909 
L 281.089545 196.927525 
L 281.419045 195.709141 
L 281.742199 194.490758 
L 282.059345 193.272374 
L 282.370915 192.05399 
L 282.677427 190.835606 
L 282.979474 189.617222 
L 283.277713 188.398838 
L 283.572854 187.180455 
L 283.865648 185.962071 
L 284.156871 184.743687 
L 284.447317 183.525303 
L 284.737781 182.306919 
L 285.029051 181.088535 
L 285.321891 179.870152 
L 285.617035 178.651768 
L 285.915176 177.433384 
L 286.216951 176.215 
L 321.556382 176.215 
L 321.556382 176.215 
L 321.858158 177.433384 
L 322.156298 178.651768 
L 322.451442 179.870152 
L 322.744282 181.088535 
L 323.035552 182.306919 
L 323.326016 183.525303 
L 323.616462 184.743687 
L 323.907686 185.962071 
L 324.200479 187.180455 
L 324.495621 188.398838 
L 324.79386 189.617222 
L 325.095906 190.835606 
L 325.402418 192.05399 
L 325.713988 193.272374 
L 326.031134 194.490758 
L 326.354289 195.709141 
L 326.683788 196.927525 
L 327.019865 198.145909 
L 327.362641 199.364293 
L 327.712121 200.582677 
L 328.068189 201.801061 
L 328.430602 203.019444 
L 328.798994 204.237828 
L 329.172875 205.456212 
L 329.55163 206.674596 
L 329.934526 207.89298 
L 330.32072 209.111364 
L 330.709258 210.329747 
L 331.099096 211.548131 
L 331.489099 212.766515 
L 331.878062 213.984899 
L 332.264716 215.203283 
L 332.647748 216.421667 
L 333.025813 217.640051 
L 333.39755 218.858434 
L 333.761602 220.076818 
L 334.116626 221.295202 
L 334.461315 222.513586 
L 334.794412 223.73197 
L 335.11473 224.950354 
L 335.421159 226.168737 
L 335.71269 227.387121 
L 335.988421 228.605505 
L 336.247572 229.823889 
L 336.489497 231.042273 
L 336.713688 232.260657 
L 336.919786 233.47904 
L 337.107584 234.697424 
L 337.27703 235.915808 
L 337.428228 237.134192 
L 337.561435 238.352576 
L 337.67706 239.57096 
L 337.775656 240.789343 
L 337.857912 242.007727 
L 337.924644 243.226111 
L 337.976783 244.444495 
L 338.015361 245.662879 
L 338.041497 246.881263 
L 338.05638 248.099646 
L 338.06125 249.31803 
L 338.057382 250.536414 
L 338.046065 251.754798 
L 338.028585 252.973182 
L 338.006201 254.191566 
L 337.980133 255.409949 
L 337.951536 256.628333 
L 337.921484 257.846717 
L 337.890955 259.065101 
L 337.860815 260.283485 
L 337.831801 261.501869 
L 337.804508 262.720253 
L 337.779382 263.938636 
L 337.756709 265.15702 
L 337.736608 266.375404 
L 337.719026 267.593788 
L 337.703736 268.812172 
L 337.690342 270.030556 
L 337.678272 271.248939 
L 337.666794 272.467323 
L 337.655014 273.685707 
L 337.641891 274.904091 
L 337.626246 276.122475 
L 337.606777 277.340859 
L 337.582072 278.559242 
L 337.550628 279.777626 
L 337.510866 280.99601 
L 337.461152 282.214394 
L 337.399817 283.432778 
L 337.325176 284.651162 
L 337.235549 285.869545 
L 337.129281 287.087929 
L 337.004765 288.306313 
L 336.860457 289.524697 
L 336.694899 290.743081 
L 336.506737 291.961465 
L 336.294735 293.179848 
L 336.057791 294.398232 
L 335.794955 295.616616 
L 335.505435 296.835 
z
" style="fill:#1f77b4;fill-opacity:0.3;"/>
   </g>
   <g id="PolyCollection_3">
    <path clip-path="url(#peab925c9a9)" d="M 444.975477 296.835 
L 436.194523 296.835 
L 436.173935 295.616616 
L 436.16604 294.398232 
L 436.169121 293.179848 
L 436.181008 291.961465 
L 436.199074 290.743081 
L 436.220244 289.524697 
L 436.241005 288.306313 
L 436.257427 287.087929 
L 436.265192 285.869545 
L 436.259627 284.651162 
L 436.235746 283.432778 
L 436.188303 282.214394 
L 436.111846 280.99601 
L 436.000785 279.777626 
L 435.849469 278.559242 
L 435.652263 277.340859 
L 435.403638 276.122475 
L 435.098275 274.904091 
L 434.731161 273.685707 
L 434.297705 272.467323 
L 433.793853 271.248939 
L 433.216202 270.030556 
L 432.562127 268.812172 
L 431.829891 267.593788 
L 431.018767 266.375404 
L 430.12914 265.15702 
L 429.162603 263.938636 
L 428.122041 262.720253 
L 427.011688 261.501869 
L 425.837174 260.283485 
L 424.605535 259.065101 
L 423.325199 257.846717 
L 422.005942 256.628333 
L 420.658809 255.409949 
L 419.295997 254.191566 
L 417.930713 252.973182 
L 416.576995 251.754798 
L 415.249495 250.536414 
L 413.963252 249.31803 
L 412.733428 248.099646 
L 411.575033 246.881263 
L 410.502647 245.662879 
L 409.530127 244.444495 
L 408.67033 243.226111 
L 407.934844 242.007727 
L 407.333742 240.789343 
L 406.875365 239.57096 
L 406.566135 238.352576 
L 406.410417 237.134192 
L 406.410417 235.915808 
L 406.566135 234.697424 
L 406.875365 233.47904 
L 407.333742 232.260657 
L 407.934844 231.042273 
L 408.67033 229.823889 
L 409.530127 228.605505 
L 410.502647 227.387121 
L 411.575033 226.168737 
L 412.733428 224.950354 
L 413.963252 223.73197 
L 415.249495 222.513586 
L 416.576995 221.295202 
L 417.930713 220.076818 
L 419.295997 218.858434 
L 420.658809 217.640051 
L 422.005942 216.421667 
L 423.325199 215.203283 
L 424.605535 213.984899 
L 425.837174 212.766515 
L 427.011688 211.548131 
L 428.122041 210.329747 
L 429.162603 209.111364 
L 430.12914 207.89298 
L 431.018767 206.674596 
L 431.829891 205.456212 
L 432.562127 204.237828 
L 433.216202 203.019444 
L 433.793853 201.801061 
L 434.297705 200.582677 
L 434.731161 199.364293 
L 435.098275 198.145909 
L 435.403638 196.927525 
L 435.652263 195.709141 
L 435.849469 194.490758 
L 436.000785 193.272374 
L 436.111846 192.05399 
L 436.188303 190.835606 
L 436.235746 189.617222 
L 436.259627 188.398838 
L 436.265192 187.180455 
L 436.257427 185.962071 
L 436.241005 184.743687 
L 436.220244 183.525303 
L 436.199074 182.306919 
L 436.181008 181.088535 
L 436.169121 179.870152 
L 436.16604 178.651768 
L 436.173935 177.433384 
L 436.194523 176.215 
L 444.975477 176.215 
L 444.975477 176.215 
L 444.996065 177.433384 
L 445.00396 178.651768 
L 445.000879 179.870152 
L 444.988992 181.088535 
L 444.970926 182.306919 
L 444.949756 183.525303 
L 444.928995 184.743687 
L 444.912573 185.962071 
L 444.904808 187.180455 
L 444.910373 188.398838 
L 444.934254 189.617222 
L 444.981697 190.835606 
L 445.058154 192.05399 
L 445.169215 193.272374 
L 445.320531 194.490758 
L 445.517737 195.709141 
L 445.766362 196.927525 
L 446.071725 198.145909 
L 446.438839 199.364293 
L 446.872295 200.582677 
L 447.376147 201.801061 
L 447.953798 203.019444 
L 448.607873 204.237828 
L 449.340109 205.456212 
L 450.151233 206.674596 
L 451.04086 207.89298 
L 452.007397 209.111364 
L 453.047959 210.329747 
L 454.158312 211.548131 
L 455.332826 212.766515 
L 456.564465 213.984899 
L 457.844801 215.203283 
L 459.164058 216.421667 
L 460.511191 217.640051 
L 461.874003 218.858434 
L 463.239287 220.076818 
L 464.593005 221.295202 
L 465.920505 222.513586 
L 467.206748 223.73197 
L 468.436572 224.950354 
L 469.594967 226.168737 
L 470.667353 227.387121 
L 471.639873 228.605505 
L 472.49967 229.823889 
L 473.235156 231.042273 
L 473.836258 232.260657 
L 474.294635 233.47904 
L 474.603865 234.697424 
L 474.759583 235.915808 
L 474.759583 237.134192 
L 474.603865 238.352576 
L 474.294635 239.57096 
L 473.836258 240.789343 
L 473.235156 242.007727 
L 472.49967 243.226111 
L 471.639873 244.444495 
L 470.667353 245.662879 
L 469.594967 246.881263 
L 468.436572 248.099646 
L 467.206748 249.31803 
L 465.920505 250.536414 
L 464.593005 251.754798 
L 463.239287 252.973182 
L 461.874003 254.191566 
L 460.511191 255.409949 
L 459.164058 256.628333 
L 457.844801 257.846717 
L 456.564465 259.065101 
L 455.332826 260.283485 
L 454.158312 261.501869 
L 453.047959 262.720253 
L 452.007397 263.938636 
L 451.04086 265.15702 
L 450.151233 266.375404 
L 449.340109 267.593788 
L 448.607873 268.812172 
L 447.953798 270.030556 
L 447.376147 271.248939 
L 446.872295 272.467323 
L 446.438839 273.685707 
L 446.071725 274.904091 
L 445.766362 276.122475 
L 445.517737 277.340859 
L 445.320531 278.559242 
L 445.169215 279.777626 
L 445.058154 280.99601 
L 444.981697 282.214394 
L 444.934254 283.432778 
L 444.910373 284.651162 
L 444.904808 285.869545 
L 444.912573 287.087929 
L 444.928995 288.306313 
L 444.949756 289.524697 
L 444.970926 290.743081 
L 444.988992 291.961465 
L 445.000879 293.179848 
L 445.00396 294.398232 
L 444.996065 295.616616 
L 444.975477 296.835 
z
" style="fill:#1f77b4;fill-opacity:0.3;"/>
   </g>
   <g id="PolyCollection_4">
    <path clip-path="url(#peab925c9a9)" d="M 600.233727 296.835 
L 554.33294 296.835 
L 554.313442 296.225808 
L 554.313011 295.616616 
L 554.331356 295.007424 
L 554.368117 294.398232 
L 554.42286 293.78904 
L 554.495082 293.179848 
L 554.584208 292.570657 
L 554.689597 291.961465 
L 554.810538 291.352273 
L 554.946259 290.743081 
L 555.095926 290.133889 
L 555.258643 289.524697 
L 555.433462 288.915505 
L 555.619379 288.306313 
L 555.815341 287.697121 
L 556.020252 287.087929 
L 556.232971 286.478737 
L 556.452323 285.869545 
L 556.677096 285.260354 
L 556.906054 284.651162 
L 557.137932 284.04197 
L 557.37145 283.432778 
L 557.605313 282.823586 
L 557.838214 282.214394 
L 558.068845 281.605202 
L 558.295896 280.99601 
L 558.518064 280.386818 
L 558.734057 279.777626 
L 558.942598 279.168434 
L 559.142433 278.559242 
L 559.332331 277.950051 
L 559.511093 277.340859 
L 559.677557 276.731667 
L 559.830598 276.122475 
L 559.969139 275.513283 
L 560.092151 274.904091 
L 560.198658 274.294899 
L 560.287742 273.685707 
L 560.358546 273.076515 
L 560.41028 272.467323 
L 560.442222 271.858131 
L 560.45372 271.248939 
L 560.444199 270.639747 
L 560.413163 270.030556 
L 560.360194 269.421364 
L 560.284957 268.812172 
L 560.187204 268.20298 
L 560.066771 267.593788 
L 559.923582 266.984596 
L 559.75765 266.375404 
L 559.56908 265.766212 
L 559.358063 265.15702 
L 559.124882 264.547828 
L 558.869912 263.938636 
L 558.593615 263.329444 
L 558.296542 262.720253 
L 557.979332 262.111061 
L 557.64271 261.501869 
L 557.287485 260.892677 
L 556.914546 260.283485 
L 556.524863 259.674293 
L 556.119483 259.065101 
L 555.699524 258.455909 
L 555.266175 257.846717 
L 554.82069 257.237525 
L 554.364385 256.628333 
L 553.898632 256.019141 
L 553.424858 255.409949 
L 552.944535 254.800758 
L 552.459178 254.191566 
L 551.970339 253.582374 
L 551.4796 252.973182 
L 550.98857 252.36399 
L 550.498877 251.754798 
L 550.012161 251.145606 
L 549.530069 250.536414 
L 549.054251 249.927222 
L 548.586348 249.31803 
L 548.127992 248.708838 
L 547.680794 248.099646 
L 547.246341 247.490455 
L 546.826189 246.881263 
L 546.421858 246.272071 
L 546.034821 245.662879 
L 545.666505 245.053687 
L 545.31828 244.444495 
L 544.991456 243.835303 
L 544.687278 243.226111 
L 544.40692 242.616919 
L 544.151478 242.007727 
L 543.921973 241.398535 
L 543.719337 240.789343 
L 543.544418 240.180152 
L 543.397973 239.57096 
L 543.280666 238.961768 
L 543.193062 238.352576 
L 543.135634 237.743384 
L 543.10875 237.134192 
L 543.112682 236.525 
L 611.453984 236.525 
L 611.453984 236.525 
L 611.457917 237.134192 
L 611.431033 237.743384 
L 611.373604 238.352576 
L 611.286001 238.961768 
L 611.168693 239.57096 
L 611.022248 240.180152 
L 610.84733 240.789343 
L 610.644694 241.398535 
L 610.415188 242.007727 
L 610.159747 242.616919 
L 609.879388 243.226111 
L 609.575211 243.835303 
L 609.248387 244.444495 
L 608.900162 245.053687 
L 608.531846 245.662879 
L 608.144809 246.272071 
L 607.740477 246.881263 
L 607.320326 247.490455 
L 606.885873 248.099646 
L 606.438675 248.708838 
L 605.980319 249.31803 
L 605.512416 249.927222 
L 605.036598 250.536414 
L 604.554506 251.145606 
L 604.06779 251.754798 
L 603.578096 252.36399 
L 603.087066 252.973182 
L 602.596328 253.582374 
L 602.107488 254.191566 
L 601.622131 254.800758 
L 601.141808 255.409949 
L 600.668034 256.019141 
L 600.202282 256.628333 
L 599.745977 257.237525 
L 599.300492 257.846717 
L 598.867143 258.455909 
L 598.447184 259.065101 
L 598.041804 259.674293 
L 597.652121 260.283485 
L 597.279182 260.892677 
L 596.923956 261.501869 
L 596.587334 262.111061 
L 596.270124 262.720253 
L 595.973051 263.329444 
L 595.696754 263.938636 
L 595.441784 264.547828 
L 595.208604 265.15702 
L 594.997587 265.766212 
L 594.809016 266.375404 
L 594.643085 266.984596 
L 594.499896 267.593788 
L 594.379463 268.20298 
L 594.281709 268.812172 
L 594.206473 269.421364 
L 594.153504 270.030556 
L 594.122468 270.639747 
L 594.112947 271.248939 
L 594.124445 271.858131 
L 594.156386 272.467323 
L 594.20812 273.076515 
L 594.278925 273.685707 
L 594.368009 274.294899 
L 594.474515 274.904091 
L 594.597527 275.513283 
L 594.736068 276.122475 
L 594.88911 276.731667 
L 595.055573 277.340859 
L 595.234336 277.950051 
L 595.424234 278.559242 
L 595.624068 279.168434 
L 595.83261 279.777626 
L 596.048603 280.386818 
L 596.270771 280.99601 
L 596.497822 281.605202 
L 596.728453 282.214394 
L 596.961354 282.823586 
L 597.195216 283.432778 
L 597.428735 284.04197 
L 597.660613 284.651162 
L 597.88957 285.260354 
L 598.114344 285.869545 
L 598.333695 286.478737 
L 598.546415 287.087929 
L 598.751325 287.697121 
L 598.947288 288.306313 
L 599.133205 288.915505 
L 599.308023 289.524697 
L 599.470741 290.133889 
L 599.620407 290.743081 
L 599.756129 291.352273 
L 599.87707 291.961465 
L 599.982458 292.570657 
L 600.071584 293.179848 
L 600.143806 293.78904 
L 600.19855 294.398232 
L 600.235311 295.007424 
L 600.253656 295.616616 
L 600.253224 296.225808 
L 600.233727 296.835 
z
" style="fill:#1f77b4;fill-opacity:0.3;"/>
   </g>
   <g id="PolyCollection_5">
    <path clip-path="url(#peab925c9a9)" d="M 748.15625 296.835 
L 679.807083 296.835 
L 679.807083 296.835 
L 679.807083 296.835 
L 679.807083 296.835 
L 679.807083 296.835 
L 679.807083 296.835 
L 679.807083 296.835 
L 679.807083 296.835 
L 679.807083 296.835 
L 679.807083 296.835 
L 679.807083 296.835 
L 679.807083 296.835 
L 679.807083 296.835 
L 679.807083 296.835 
L 679.807083 296.835 
L 679.807083 296.835 
L 679.807083 296.835 
L 679.807083 296.835 
L 679.807083 296.835 
L 679.807083 296.835 
L 679.807083 296.835 
L 679.807083 296.835 
L 679.807083 296.835 
L 679.807083 296.835 
L 679.807083 296.835 
L 679.807083 296.835 
L 679.807083 296.835 
L 679.807083 296.835 
L 679.807083 296.835 
L 679.807083 296.835 
L 679.807083 296.835 
L 679.807083 296.835 
L 679.807083 296.835 
L 679.807083 296.835 
L 679.807083 296.835 
L 679.807083 296.835 
L 679.807083 296.835 
L 679.807083 296.835 
L 679.807083 296.835 
L 679.807083 296.835 
L 679.807083 296.835 
L 679.807083 296.835 
L 679.807083 296.835 
L 679.807083 296.835 
L 679.807083 296.835 
L 679.807083 296.835 
L 679.807083 296.835 
L 679.807083 296.835 
L 679.807083 296.835 
L 679.807083 296.835 
L 679.807083 296.835 
L 679.807083 296.835 
L 679.807083 296.835 
L 679.807083 296.835 
L 679.807083 296.835 
L 679.807083 296.835 
L 679.807083 296.835 
L 679.807083 296.835 
L 679.807083 296.835 
L 679.807083 296.835 
L 679.807083 296.835 
L 679.807083 296.835 
L 679.807083 296.835 
L 679.807083 296.835 
L 679.807083 296.835 
L 679.807083 296.835 
L 679.807083 296.835 
L 679.807083 296.835 
L 679.807083 296.835 
L 679.807083 296.835 
L 679.807083 296.835 
L 679.807083 296.835 
L 679.807083 296.835 
L 679.807083 296.835 
L 679.807083 296.835 
L 679.807083 296.835 
L 679.807083 296.835 
L 679.807083 296.835 
L 679.807083 296.835 
L 679.807083 296.835 
L 679.807083 296.835 
L 679.807083 296.835 
L 679.807083 296.835 
L 679.807083 296.835 
L 679.807083 296.835 
L 679.807083 296.835 
L 679.807083 296.835 
L 679.807083 296.835 
L 679.807083 296.835 
L 679.807083 296.835 
L 679.807083 296.835 
L 679.807083 296.835 
L 679.807083 296.835 
L 679.807083 296.835 
L 679.807083 296.835 
L 679.807083 296.835 
L 679.807083 296.835 
L 679.807083 296.835 
L 679.807083 296.835 
L 679.807083 296.835 
L 748.15625 296.835 
L 748.15625 296.835 
L 748.15625 296.835 
L 748.15625 296.835 
L 748.15625 296.835 
L 748.15625 296.835 
L 748.15625 296.835 
L 748.15625 296.835 
L 748.15625 296.835 
L 748.15625 296.835 
L 748.15625 296.835 
L 748.15625 296.835 
L 748.15625 296.835 
L 748.15625 296.835 
L 748.15625 296.835 
L 748.15625 296.835 
L 748.15625 296.835 
L 748.15625 296.835 
L 748.15625 296.835 
L 748.15625 296.835 
L 748.15625 296.835 
L 748.15625 296.835 
L 748.15625 296.835 
L 748.15625 296.835 
L 748.15625 296.835 
L 748.15625 296.835 
L 748.15625 296.835 
L 748.15625 296.835 
L 748.15625 296.835 
L 748.15625 296.835 
L 748.15625 296.835 
L 748.15625 296.835 
L 748.15625 296.835 
L 748.15625 296.835 
L 748.15625 296.835 
L 748.15625 296.835 
L 748.15625 296.835 
L 748.15625 296.835 
L 748.15625 296.835 
L 748.15625 296.835 
L 748.15625 296.835 
L 748.15625 296.835 
L 748.15625 296.835 
L 748.15625 296.835 
L 748.15625 296.835 
L 748.15625 296.835 
L 748.15625 296.835 
L 748.15625 296.835 
L 748.15625 296.835 
L 748.15625 296.835 
L 748.15625 296.835 
L 748.15625 296.835 
L 748.15625 296.835 
L 748.15625 296.835 
L 748.15625 296.835 
L 748.15625 296.835 
L 748.15625 296.835 
L 748.15625 296.835 
L 748.15625 296.835 
L 748.15625 296.835 
L 748.15625 296.835 
L 748.15625 296.835 
L 748.15625 296.835 
L 748.15625 296.835 
L 748.15625 296.835 
L 748.15625 296.835 
L 748.15625 296.835 
L 748.15625 296.835 
L 748.15625 296.835 
L 748.15625 296.835 
L 748.15625 296.835 
L 748.15625 296.835 
L 748.15625 296.835 
L 748.15625 296.835 
L 748.15625 296.835 
L 748.15625 296.835 
L 748.15625 296.835 
L 748.15625 296.835 
L 748.15625 296.835 
L 748.15625 296.835 
L 748.15625 296.835 
L 748.15625 296.835 
L 748.15625 296.835 
L 748.15625 296.835 
L 748.15625 296.835 
L 748.15625 296.835 
L 748.15625 296.835 
L 748.15625 296.835 
L 748.15625 296.835 
L 748.15625 296.835 
L 748.15625 296.835 
L 748.15625 296.835 
L 748.15625 296.835 
L 748.15625 296.835 
L 748.15625 296.835 
L 748.15625 296.835 
L 748.15625 296.835 
L 748.15625 296.835 
L 748.15625 296.835 
L 748.15625 296.835 
L 748.15625 296.835 
z
" style="fill:#1f77b4;fill-opacity:0.3;"/>
   </g>
   <g id="matplotlib.axis_1">
    <g id="xtick_1">
     <g id="line2d_1">
      <defs>
       <path d="M 0 0 
L 0 3.5 
" id="m601c3954fc" style="stroke:#000000;stroke-width:0.8;"/>
      </defs>
      <g>
       <use style="stroke:#000000;stroke-width:0.8;" x="167.188333" xlink:href="#m601c3954fc" y="326.99"/>
      </g>
     </g>
     <g id="text_1">
      <!-- Defector -->
      <defs>
       <path d="M 19.671875 64.796875 
L 19.671875 8.109375 
L 31.59375 8.109375 
Q 46.6875 8.109375 53.6875 14.9375 
Q 60.6875 21.78125 60.6875 36.53125 
Q 60.6875 51.171875 53.6875 57.984375 
Q 46.6875 64.796875 31.59375 64.796875 
z
M 9.8125 72.90625 
L 30.078125 72.90625 
Q 51.265625 72.90625 61.171875 64.09375 
Q 71.09375 55.28125 71.09375 36.53125 
Q 71.09375 17.671875 61.125 8.828125 
Q 51.171875 0 30.078125 0 
L 9.8125 0 
z
" id="DejaVuSans-44"/>
       <path d="M 56.203125 29.59375 
L 56.203125 25.203125 
L 14.890625 25.203125 
Q 15.484375 15.921875 20.484375 11.0625 
Q 25.484375 6.203125 34.421875 6.203125 
Q 39.59375 6.203125 44.453125 7.46875 
Q 49.3125 8.734375 54.109375 11.28125 
L 54.109375 2.78125 
Q 49.265625 0.734375 44.1875 -0.34375 
Q 39.109375 -1.421875 33.890625 -1.421875 
Q 20.796875 -1.421875 13.15625 6.1875 
Q 5.515625 13.8125 5.515625 26.8125 
Q 5.515625 40.234375 12.765625 48.109375 
Q 20.015625 56 32.328125 56 
Q 43.359375 56 49.78125 48.890625 
Q 56.203125 41.796875 56.203125 29.59375 
z
M 47.21875 32.234375 
Q 47.125 39.59375 43.09375 43.984375 
Q 39.0625 48.390625 32.421875 48.390625 
Q 24.90625 48.390625 20.390625 44.140625 
Q 15.875 39.890625 15.1875 32.171875 
z
" id="DejaVuSans-65"/>
       <path d="M 37.109375 75.984375 
L 37.109375 68.5 
L 28.515625 68.5 
Q 23.6875 68.5 21.796875 66.546875 
Q 19.921875 64.59375 19.921875 59.515625 
L 19.921875 54.6875 
L 34.71875 54.6875 
L 34.71875 47.703125 
L 19.921875 47.703125 
L 19.921875 0 
L 10.890625 0 
L 10.890625 47.703125 
L 2.296875 47.703125 
L 2.296875 54.6875 
L 10.890625 54.6875 
L 10.890625 58.5 
Q 10.890625 67.625 15.140625 71.796875 
Q 19.390625 75.984375 28.609375 75.984375 
z
" id="DejaVuSans-66"/>
       <path d="M 48.78125 52.59375 
L 48.78125 44.1875 
Q 44.96875 46.296875 41.140625 47.34375 
Q 37.3125 48.390625 33.40625 48.390625 
Q 24.65625 48.390625 19.8125 42.84375 
Q 14.984375 37.3125 14.984375 27.296875 
Q 14.984375 17.28125 19.8125 11.734375 
Q 24.65625 6.203125 33.40625 6.203125 
Q 37.3125 6.203125 41.140625 7.25 
Q 44.96875 8.296875 48.78125 10.40625 
L 48.78125 2.09375 
Q 45.015625 0.34375 40.984375 -0.53125 
Q 36.96875 -1.421875 32.421875 -1.421875 
Q 20.0625 -1.421875 12.78125 6.34375 
Q 5.515625 14.109375 5.515625 27.296875 
Q 5.515625 40.671875 12.859375 48.328125 
Q 20.21875 56 33.015625 56 
Q 37.15625 56 41.109375 55.140625 
Q 45.0625 54.296875 48.78125 52.59375 
z
" id="DejaVuSans-63"/>
       <path d="M 18.3125 70.21875 
L 18.3125 54.6875 
L 36.8125 54.6875 
L 36.8125 47.703125 
L 18.3125 47.703125 
L 18.3125 18.015625 
Q 18.3125 11.328125 20.140625 9.421875 
Q 21.96875 7.515625 27.59375 7.515625 
L 36.8125 7.515625 
L 36.8125 0 
L 27.59375 0 
Q 17.1875 0 13.234375 3.875 
Q 9.28125 7.765625 9.28125 18.015625 
L 9.28125 47.703125 
L 2.6875 47.703125 
L 2.6875 54.6875 
L 9.28125 54.6875 
L 9.28125 70.21875 
z
" id="DejaVuSans-74"/>
       <path d="M 30.609375 48.390625 
Q 23.390625 48.390625 19.1875 42.75 
Q 14.984375 37.109375 14.984375 27.296875 
Q 14.984375 17.484375 19.15625 11.84375 
Q 23.34375 6.203125 30.609375 6.203125 
Q 37.796875 6.203125 41.984375 11.859375 
Q 46.1875 17.53125 46.1875 27.296875 
Q 46.1875 37.015625 41.984375 42.703125 
Q 37.796875 48.390625 30.609375 48.390625 
z
M 30.609375 56 
Q 42.328125 56 49.015625 48.375 
Q 55.71875 40.765625 55.71875 27.296875 
Q 55.71875 13.875 49.015625 6.21875 
Q 42.328125 -1.421875 30.609375 -1.421875 
Q 18.84375 -1.421875 12.171875 6.21875 
Q 5.515625 13.875 5.515625 27.296875 
Q 5.515625 40.765625 12.171875 48.375 
Q 18.84375 56 30.609375 56 
z
" id="DejaVuSans-6f"/>
       <path d="M 41.109375 46.296875 
Q 39.59375 47.171875 37.8125 47.578125 
Q 36.03125 48 33.890625 48 
Q 26.265625 48 22.1875 43.046875 
Q 18.109375 38.09375 18.109375 28.8125 
L 18.109375 0 
L 9.078125 0 
L 9.078125 54.6875 
L 18.109375 54.6875 
L 18.109375 46.1875 
Q 20.953125 51.171875 25.484375 53.578125 
Q 30.03125 56 36.53125 56 
Q 37.453125 56 38.578125 55.875 
Q 39.703125 55.765625 41.0625 55.515625 
z
" id="DejaVuSans-72"/>
      </defs>
      <g transform="translate(169.395833 368.53)rotate(-90)scale(0.08 -0.08)">
       <use xlink:href="#DejaVuSans-44"/>
       <use x="77.001953" xlink:href="#DejaVuSans-65"/>
       <use x="138.525391" xlink:href="#DejaVuSans-66"/>
       <use x="173.730469" xlink:href="#DejaVuSans-65"/>
       <use x="235.253906" xlink:href="#DejaVuSans-63"/>
       <use x="290.234375" xlink:href="#DejaVuSans-74"/>
       <use x="329.443359" xlink:href="#DejaVuSans-6f"/>
       <use x="390.625" xlink:href="#DejaVuSans-72"/>
      </g>
     </g>
    </g>
    <g id="xtick_2">
     <g id="line2d_2">
      <g>
       <use style="stroke:#000000;stroke-width:0.8;" x="303.886667" xlink:href="#m601c3954fc" y="326.99"/>
      </g>
     </g>
     <g id="text_2">
      <!-- Random: 0.5 -->
      <defs>
       <path d="M 44.390625 34.1875 
Q 47.5625 33.109375 50.5625 29.59375 
Q 53.5625 26.078125 56.59375 19.921875 
L 66.609375 0 
L 56 0 
L 46.6875 18.703125 
Q 43.0625 26.03125 39.671875 28.421875 
Q 36.28125 30.8125 30.421875 30.8125 
L 19.671875 30.8125 
L 19.671875 0 
L 9.8125 0 
L 9.8125 72.90625 
L 32.078125 72.90625 
Q 44.578125 72.90625 50.734375 67.671875 
Q 56.890625 62.453125 56.890625 51.90625 
Q 56.890625 45.015625 53.6875 40.46875 
Q 50.484375 35.9375 44.390625 34.1875 
z
M 19.671875 64.796875 
L 19.671875 38.921875 
L 32.078125 38.921875 
Q 39.203125 38.921875 42.84375 42.21875 
Q 46.484375 45.515625 46.484375 51.90625 
Q 46.484375 58.296875 42.84375 61.546875 
Q 39.203125 64.796875 32.078125 64.796875 
z
" id="DejaVuSans-52"/>
       <path d="M 34.28125 27.484375 
Q 23.390625 27.484375 19.1875 25 
Q 14.984375 22.515625 14.984375 16.5 
Q 14.984375 11.71875 18.140625 8.90625 
Q 21.296875 6.109375 26.703125 6.109375 
Q 34.1875 6.109375 38.703125 11.40625 
Q 43.21875 16.703125 43.21875 25.484375 
L 43.21875 27.484375 
z
M 52.203125 31.203125 
L 52.203125 0 
L 43.21875 0 
L 43.21875 8.296875 
Q 40.140625 3.328125 35.546875 0.953125 
Q 30.953125 -1.421875 24.3125 -1.421875 
Q 15.921875 -1.421875 10.953125 3.296875 
Q 6 8.015625 6 15.921875 
Q 6 25.140625 12.171875 29.828125 
Q 18.359375 34.515625 30.609375 34.515625 
L 43.21875 34.515625 
L 43.21875 35.40625 
Q 43.21875 41.609375 39.140625 45 
Q 35.0625 48.390625 27.6875 48.390625 
Q 23 48.390625 18.546875 47.265625 
Q 14.109375 46.140625 10.015625 43.890625 
L 10.015625 52.203125 
Q 14.9375 54.109375 19.578125 55.046875 
Q 24.21875 56 28.609375 56 
Q 40.484375 56 46.34375 49.84375 
Q 52.203125 43.703125 52.203125 31.203125 
z
" id="DejaVuSans-61"/>
       <path d="M 54.890625 33.015625 
L 54.890625 0 
L 45.90625 0 
L 45.90625 32.71875 
Q 45.90625 40.484375 42.875 44.328125 
Q 39.84375 48.1875 33.796875 48.1875 
Q 26.515625 48.1875 22.3125 43.546875 
Q 18.109375 38.921875 18.109375 30.90625 
L 18.109375 0 
L 9.078125 0 
L 9.078125 54.6875 
L 18.109375 54.6875 
L 18.109375 46.1875 
Q 21.34375 51.125 25.703125 53.5625 
Q 30.078125 56 35.796875 56 
Q 45.21875 56 50.046875 50.171875 
Q 54.890625 44.34375 54.890625 33.015625 
z
" id="DejaVuSans-6e"/>
       <path d="M 45.40625 46.390625 
L 45.40625 75.984375 
L 54.390625 75.984375 
L 54.390625 0 
L 45.40625 0 
L 45.40625 8.203125 
Q 42.578125 3.328125 38.25 0.953125 
Q 33.9375 -1.421875 27.875 -1.421875 
Q 17.96875 -1.421875 11.734375 6.484375 
Q 5.515625 14.40625 5.515625 27.296875 
Q 5.515625 40.1875 11.734375 48.09375 
Q 17.96875 56 27.875 56 
Q 33.9375 56 38.25 53.625 
Q 42.578125 51.265625 45.40625 46.390625 
z
M 14.796875 27.296875 
Q 14.796875 17.390625 18.875 11.75 
Q 22.953125 6.109375 30.078125 6.109375 
Q 37.203125 6.109375 41.296875 11.75 
Q 45.40625 17.390625 45.40625 27.296875 
Q 45.40625 37.203125 41.296875 42.84375 
Q 37.203125 48.484375 30.078125 48.484375 
Q 22.953125 48.484375 18.875 42.84375 
Q 14.796875 37.203125 14.796875 27.296875 
z
" id="DejaVuSans-64"/>
       <path d="M 52 44.1875 
Q 55.375 50.25 60.0625 53.125 
Q 64.75 56 71.09375 56 
Q 79.640625 56 84.28125 50.015625 
Q 88.921875 44.046875 88.921875 33.015625 
L 88.921875 0 
L 79.890625 0 
L 79.890625 32.71875 
Q 79.890625 40.578125 77.09375 44.375 
Q 74.3125 48.1875 68.609375 48.1875 
Q 61.625 48.1875 57.5625 43.546875 
Q 53.515625 38.921875 53.515625 30.90625 
L 53.515625 0 
L 44.484375 0 
L 44.484375 32.71875 
Q 44.484375 40.625 41.703125 44.40625 
Q 38.921875 48.1875 33.109375 48.1875 
Q 26.21875 48.1875 22.15625 43.53125 
Q 18.109375 38.875 18.109375 30.90625 
L 18.109375 0 
L 9.078125 0 
L 9.078125 54.6875 
L 18.109375 54.6875 
L 18.109375 46.1875 
Q 21.1875 51.21875 25.484375 53.609375 
Q 29.78125 56 35.6875 56 
Q 41.65625 56 45.828125 52.96875 
Q 50 49.953125 52 44.1875 
z
" id="DejaVuSans-6d"/>
       <path d="M 11.71875 12.40625 
L 22.015625 12.40625 
L 22.015625 0 
L 11.71875 0 
z
M 11.71875 51.703125 
L 22.015625 51.703125 
L 22.015625 39.3125 
L 11.71875 39.3125 
z
" id="DejaVuSans-3a"/>
       <path id="DejaVuSans-20"/>
       <path d="M 31.78125 66.40625 
Q 24.171875 66.40625 20.328125 58.90625 
Q 16.5 51.421875 16.5 36.375 
Q 16.5 21.390625 20.328125 13.890625 
Q 24.171875 6.390625 31.78125 6.390625 
Q 39.453125 6.390625 43.28125 13.890625 
Q 47.125 21.390625 47.125 36.375 
Q 47.125 51.421875 43.28125 58.90625 
Q 39.453125 66.40625 31.78125 66.40625 
z
M 31.78125 74.21875 
Q 44.046875 74.21875 50.515625 64.515625 
Q 56.984375 54.828125 56.984375 36.375 
Q 56.984375 17.96875 50.515625 8.265625 
Q 44.046875 -1.421875 31.78125 -1.421875 
Q 19.53125 -1.421875 13.0625 8.265625 
Q 6.59375 17.96875 6.59375 36.375 
Q 6.59375 54.828125 13.0625 64.515625 
Q 19.53125 74.21875 31.78125 74.21875 
z
" id="DejaVuSans-30"/>
       <path d="M 10.6875 12.40625 
L 21 12.40625 
L 21 0 
L 10.6875 0 
z
" id="DejaVuSans-2e"/>
       <path d="M 10.796875 72.90625 
L 49.515625 72.90625 
L 49.515625 64.59375 
L 19.828125 64.59375 
L 19.828125 46.734375 
Q 21.96875 47.46875 24.109375 47.828125 
Q 26.265625 48.1875 28.421875 48.1875 
Q 40.625 48.1875 47.75 41.5 
Q 54.890625 34.8125 54.890625 23.390625 
Q 54.890625 11.625 47.5625 5.09375 
Q 40.234375 -1.421875 26.90625 -1.421875 
Q 22.3125 -1.421875 17.546875 -0.640625 
Q 12.796875 0.140625 7.71875 1.703125 
L 7.71875 11.625 
Q 12.109375 9.234375 16.796875 8.0625 
Q 21.484375 6.890625 26.703125 6.890625 
Q 35.15625 6.890625 40.078125 11.328125 
Q 45.015625 15.765625 45.015625 23.390625 
Q 45.015625 31 40.078125 35.4375 
Q 35.15625 39.890625 26.703125 39.890625 
Q 22.75 39.890625 18.8125 39.015625 
Q 14.890625 38.140625 10.796875 36.28125 
z
" id="DejaVuSans-35"/>
      </defs>
      <g transform="translate(306.094167 385.245)rotate(-90)scale(0.08 -0.08)">
       <use xlink:href="#DejaVuSans-52"/>
       <use x="69.451172" xlink:href="#DejaVuSans-61"/>
       <use x="130.730469" xlink:href="#DejaVuSans-6e"/>
       <use x="194.109375" xlink:href="#DejaVuSans-64"/>
       <use x="257.585938" xlink:href="#DejaVuSans-6f"/>
       <use x="318.767578" xlink:href="#DejaVuSans-6d"/>
       <use x="416.179688" xlink:href="#DejaVuSans-3a"/>
       <use x="449.871094" xlink:href="#DejaVuSans-20"/>
       <use x="481.658203" xlink:href="#DejaVuSans-30"/>
       <use x="545.28125" xlink:href="#DejaVuSans-2e"/>
       <use x="577.068359" xlink:href="#DejaVuSans-35"/>
      </g>
     </g>
    </g>
    <g id="xtick_3">
     <g id="line2d_3">
      <g>
       <use style="stroke:#000000;stroke-width:0.8;" x="440.585" xlink:href="#m601c3954fc" y="326.99"/>
      </g>
     </g>
     <g id="text_3">
      <!-- Adaptive Pavlov 2011 -->
      <defs>
       <path d="M 34.1875 63.1875 
L 20.796875 26.90625 
L 47.609375 26.90625 
z
M 28.609375 72.90625 
L 39.796875 72.90625 
L 67.578125 0 
L 57.328125 0 
L 50.6875 18.703125 
L 17.828125 18.703125 
L 11.1875 0 
L 0.78125 0 
z
" id="DejaVuSans-41"/>
       <path d="M 18.109375 8.203125 
L 18.109375 -20.796875 
L 9.078125 -20.796875 
L 9.078125 54.6875 
L 18.109375 54.6875 
L 18.109375 46.390625 
Q 20.953125 51.265625 25.265625 53.625 
Q 29.59375 56 35.59375 56 
Q 45.5625 56 51.78125 48.09375 
Q 58.015625 40.1875 58.015625 27.296875 
Q 58.015625 14.40625 51.78125 6.484375 
Q 45.5625 -1.421875 35.59375 -1.421875 
Q 29.59375 -1.421875 25.265625 0.953125 
Q 20.953125 3.328125 18.109375 8.203125 
z
M 48.6875 27.296875 
Q 48.6875 37.203125 44.609375 42.84375 
Q 40.53125 48.484375 33.40625 48.484375 
Q 26.265625 48.484375 22.1875 42.84375 
Q 18.109375 37.203125 18.109375 27.296875 
Q 18.109375 17.390625 22.1875 11.75 
Q 26.265625 6.109375 33.40625 6.109375 
Q 40.53125 6.109375 44.609375 11.75 
Q 48.6875 17.390625 48.6875 27.296875 
z
" id="DejaVuSans-70"/>
       <path d="M 9.421875 54.6875 
L 18.40625 54.6875 
L 18.40625 0 
L 9.421875 0 
z
M 9.421875 75.984375 
L 18.40625 75.984375 
L 18.40625 64.59375 
L 9.421875 64.59375 
z
" id="DejaVuSans-69"/>
       <path d="M 2.984375 54.6875 
L 12.5 54.6875 
L 29.59375 8.796875 
L 46.6875 54.6875 
L 56.203125 54.6875 
L 35.6875 0 
L 23.484375 0 
z
" id="DejaVuSans-76"/>
       <path d="M 19.671875 64.796875 
L 19.671875 37.40625 
L 32.078125 37.40625 
Q 38.96875 37.40625 42.71875 40.96875 
Q 46.484375 44.53125 46.484375 51.125 
Q 46.484375 57.671875 42.71875 61.234375 
Q 38.96875 64.796875 32.078125 64.796875 
z
M 9.8125 72.90625 
L 32.078125 72.90625 
Q 44.34375 72.90625 50.609375 67.359375 
Q 56.890625 61.8125 56.890625 51.125 
Q 56.890625 40.328125 50.609375 34.8125 
Q 44.34375 29.296875 32.078125 29.296875 
L 19.671875 29.296875 
L 19.671875 0 
L 9.8125 0 
z
" id="DejaVuSans-50"/>
       <path d="M 9.421875 75.984375 
L 18.40625 75.984375 
L 18.40625 0 
L 9.421875 0 
z
" id="DejaVuSans-6c"/>
       <path d="M 19.1875 8.296875 
L 53.609375 8.296875 
L 53.609375 0 
L 7.328125 0 
L 7.328125 8.296875 
Q 12.9375 14.109375 22.625 23.890625 
Q 32.328125 33.6875 34.8125 36.53125 
Q 39.546875 41.84375 41.421875 45.53125 
Q 43.3125 49.21875 43.3125 52.78125 
Q 43.3125 58.59375 39.234375 62.25 
Q 35.15625 65.921875 28.609375 65.921875 
Q 23.96875 65.921875 18.8125 64.3125 
Q 13.671875 62.703125 7.8125 59.421875 
L 7.8125 69.390625 
Q 13.765625 71.78125 18.9375 73 
Q 24.125 74.21875 28.421875 74.21875 
Q 39.75 74.21875 46.484375 68.546875 
Q 53.21875 62.890625 53.21875 53.421875 
Q 53.21875 48.921875 51.53125 44.890625 
Q 49.859375 40.875 45.40625 35.40625 
Q 44.1875 33.984375 37.640625 27.21875 
Q 31.109375 20.453125 19.1875 8.296875 
z
" id="DejaVuSans-32"/>
       <path d="M 12.40625 8.296875 
L 28.515625 8.296875 
L 28.515625 63.921875 
L 10.984375 60.40625 
L 10.984375 69.390625 
L 28.421875 72.90625 
L 38.28125 72.90625 
L 38.28125 8.296875 
L 54.390625 8.296875 
L 54.390625 0 
L 12.40625 0 
z
" id="DejaVuSans-31"/>
      </defs>
      <g transform="translate(442.7925 421.29125)rotate(-90)scale(0.08 -0.08)">
       <use xlink:href="#DejaVuSans-41"/>
       <use x="68.392578" xlink:href="#DejaVuSans-64"/>
       <use x="131.869141" xlink:href="#DejaVuSans-61"/>
       <use x="193.148438" xlink:href="#DejaVuSans-70"/>
       <use x="256.625" xlink:href="#DejaVuSans-74"/>
       <use x="295.833984" xlink:href="#DejaVuSans-69"/>
       <use x="323.617188" xlink:href="#DejaVuSans-76"/>
       <use x="382.796875" xlink:href="#DejaVuSans-65"/>
       <use x="444.320312" xlink:href="#DejaVuSans-20"/>
       <use x="476.107422" xlink:href="#DejaVuSans-50"/>
       <use x="536.347656" xlink:href="#DejaVuSans-61"/>
       <use x="597.626953" xlink:href="#DejaVuSans-76"/>
       <use x="656.806641" xlink:href="#DejaVuSans-6c"/>
       <use x="684.589844" xlink:href="#DejaVuSans-6f"/>
       <use x="745.771484" xlink:href="#DejaVuSans-76"/>
       <use x="804.951172" xlink:href="#DejaVuSans-20"/>
       <use x="836.738281" xlink:href="#DejaVuSans-32"/>
       <use x="900.361328" xlink:href="#DejaVuSans-30"/>
       <use x="963.984375" xlink:href="#DejaVuSans-31"/>
       <use x="1027.607422" xlink:href="#DejaVuSans-31"/>
      </g>
     </g>
    </g>
    <g id="xtick_4">
     <g id="line2d_4">
      <g>
       <use style="stroke:#000000;stroke-width:0.8;" x="577.283333" xlink:href="#m601c3954fc" y="326.99"/>
      </g>
     </g>
     <g id="text_4">
      <!-- Average Copier -->
      <defs>
       <path d="M 45.40625 27.984375 
Q 45.40625 37.75 41.375 43.109375 
Q 37.359375 48.484375 30.078125 48.484375 
Q 22.859375 48.484375 18.828125 43.109375 
Q 14.796875 37.75 14.796875 27.984375 
Q 14.796875 18.265625 18.828125 12.890625 
Q 22.859375 7.515625 30.078125 7.515625 
Q 37.359375 7.515625 41.375 12.890625 
Q 45.40625 18.265625 45.40625 27.984375 
z
M 54.390625 6.78125 
Q 54.390625 -7.171875 48.1875 -13.984375 
Q 42 -20.796875 29.203125 -20.796875 
Q 24.46875 -20.796875 20.265625 -20.09375 
Q 16.0625 -19.390625 12.109375 -17.921875 
L 12.109375 -9.1875 
Q 16.0625 -11.328125 19.921875 -12.34375 
Q 23.78125 -13.375 27.78125 -13.375 
Q 36.625 -13.375 41.015625 -8.765625 
Q 45.40625 -4.15625 45.40625 5.171875 
L 45.40625 9.625 
Q 42.625 4.78125 38.28125 2.390625 
Q 33.9375 0 27.875 0 
Q 17.828125 0 11.671875 7.65625 
Q 5.515625 15.328125 5.515625 27.984375 
Q 5.515625 40.671875 11.671875 48.328125 
Q 17.828125 56 27.875 56 
Q 33.9375 56 38.28125 53.609375 
Q 42.625 51.21875 45.40625 46.390625 
L 45.40625 54.6875 
L 54.390625 54.6875 
z
" id="DejaVuSans-67"/>
       <path d="M 64.40625 67.28125 
L 64.40625 56.890625 
Q 59.421875 61.53125 53.78125 63.8125 
Q 48.140625 66.109375 41.796875 66.109375 
Q 29.296875 66.109375 22.65625 58.46875 
Q 16.015625 50.828125 16.015625 36.375 
Q 16.015625 21.96875 22.65625 14.328125 
Q 29.296875 6.6875 41.796875 6.6875 
Q 48.140625 6.6875 53.78125 8.984375 
Q 59.421875 11.28125 64.40625 15.921875 
L 64.40625 5.609375 
Q 59.234375 2.09375 53.4375 0.328125 
Q 47.65625 -1.421875 41.21875 -1.421875 
Q 24.65625 -1.421875 15.125 8.703125 
Q 5.609375 18.84375 5.609375 36.375 
Q 5.609375 53.953125 15.125 64.078125 
Q 24.65625 74.21875 41.21875 74.21875 
Q 47.75 74.21875 53.53125 72.484375 
Q 59.328125 70.75 64.40625 67.28125 
z
" id="DejaVuSans-43"/>
      </defs>
      <g transform="translate(579.490833 395.8425)rotate(-90)scale(0.08 -0.08)">
       <use xlink:href="#DejaVuSans-41"/>
       <use x="68.330078" xlink:href="#DejaVuSans-76"/>
       <use x="127.509766" xlink:href="#DejaVuSans-65"/>
       <use x="189.033203" xlink:href="#DejaVuSans-72"/>
       <use x="230.146484" xlink:href="#DejaVuSans-61"/>
       <use x="291.425781" xlink:href="#DejaVuSans-67"/>
       <use x="354.902344" xlink:href="#DejaVuSans-65"/>
       <use x="416.425781" xlink:href="#DejaVuSans-20"/>
       <use x="448.212891" xlink:href="#DejaVuSans-43"/>
       <use x="518.037109" xlink:href="#DejaVuSans-6f"/>
       <use x="579.21875" xlink:href="#DejaVuSans-70"/>
       <use x="642.695312" xlink:href="#DejaVuSans-69"/>
       <use x="670.478516" xlink:href="#DejaVuSans-65"/>
       <use x="732.001953" xlink:href="#DejaVuSans-72"/>
      </g>
     </g>
    </g>
    <g id="xtick_5">
     <g id="line2d_5">
      <g>
       <use style="stroke:#000000;stroke-width:0.8;" x="713.981667" xlink:href="#m601c3954fc" y="326.99"/>
      </g>
     </g>
     <g id="text_5">
      <!-- Tit For Tat -->
      <defs>
       <path d="M -0.296875 72.90625 
L 61.375 72.90625 
L 61.375 64.59375 
L 35.5 64.59375 
L 35.5 0 
L 25.59375 0 
L 25.59375 64.59375 
L -0.296875 64.59375 
z
" id="DejaVuSans-54"/>
       <path d="M 9.8125 72.90625 
L 51.703125 72.90625 
L 51.703125 64.59375 
L 19.671875 64.59375 
L 19.671875 43.109375 
L 48.578125 43.109375 
L 48.578125 34.8125 
L 19.671875 34.8125 
L 19.671875 0 
L 9.8125 0 
z
" id="DejaVuSans-46"/>
      </defs>
      <g transform="translate(716.189167 375.0025)rotate(-90)scale(0.08 -0.08)">
       <use xlink:href="#DejaVuSans-54"/>
       <use x="61.037109" xlink:href="#DejaVuSans-69"/>
       <use x="88.820312" xlink:href="#DejaVuSans-74"/>
       <use x="128.029297" xlink:href="#DejaVuSans-20"/>
       <use x="159.816406" xlink:href="#DejaVuSans-46"/>
       <use x="217.289062" xlink:href="#DejaVuSans-6f"/>
       <use x="278.470703" xlink:href="#DejaVuSans-72"/>
       <use x="319.583984" xlink:href="#DejaVuSans-20"/>
       <use x="351.371094" xlink:href="#DejaVuSans-54"/>
       <use x="412.205078" xlink:href="#DejaVuSans-61"/>
       <use x="473.484375" xlink:href="#DejaVuSans-74"/>
      </g>
     </g>
    </g>
   </g>
   <g id="matplotlib.axis_2">
    <g id="ytick_1">
     <g id="line2d_6">
      <defs>
       <path d="M 0 0 
L -3.5 0 
" id="m1d4cd895b5" style="stroke:#000000;stroke-width:0.8;"/>
      </defs>
      <g>
       <use style="stroke:#000000;stroke-width:0.8;" x="30.49" xlink:href="#m1d4cd895b5" y="296.835"/>
      </g>
     </g>
     <g id="text_6">
      <!-- 0 -->
      <g transform="translate(18.4 299.874375)scale(0.08 -0.08)">
       <use xlink:href="#DejaVuSans-30"/>
      </g>
     </g>
    </g>
    <g id="ytick_2">
     <g id="line2d_7">
      <g>
       <use style="stroke:#000000;stroke-width:0.8;" x="30.49" xlink:href="#m1d4cd895b5" y="236.525"/>
      </g>
     </g>
     <g id="text_7">
      <!-- 1 -->
      <g transform="translate(18.4 239.564375)scale(0.08 -0.08)">
       <use xlink:href="#DejaVuSans-31"/>
      </g>
     </g>
    </g>
    <g id="ytick_3">
     <g id="line2d_8">
      <g>
       <use style="stroke:#000000;stroke-width:0.8;" x="30.49" xlink:href="#m1d4cd895b5" y="176.215"/>
      </g>
     </g>
     <g id="text_8">
      <!-- 2 -->
      <g transform="translate(18.4 179.254375)scale(0.08 -0.08)">
       <use xlink:href="#DejaVuSans-32"/>
      </g>
     </g>
    </g>
    <g id="ytick_4">
     <g id="line2d_9">
      <g>
       <use style="stroke:#000000;stroke-width:0.8;" x="30.49" xlink:href="#m1d4cd895b5" y="115.905"/>
      </g>
     </g>
     <g id="text_9">
      <!-- 3 -->
      <defs>
       <path d="M 40.578125 39.3125 
Q 47.65625 37.796875 51.625 33 
Q 55.609375 28.21875 55.609375 21.1875 
Q 55.609375 10.40625 48.1875 4.484375 
Q 40.765625 -1.421875 27.09375 -1.421875 
Q 22.515625 -1.421875 17.65625 -0.515625 
Q 12.796875 0.390625 7.625 2.203125 
L 7.625 11.71875 
Q 11.71875 9.328125 16.59375 8.109375 
Q 21.484375 6.890625 26.8125 6.890625 
Q 36.078125 6.890625 40.9375 10.546875 
Q 45.796875 14.203125 45.796875 21.1875 
Q 45.796875 27.640625 41.28125 31.265625 
Q 36.765625 34.90625 28.71875 34.90625 
L 20.21875 34.90625 
L 20.21875 43.015625 
L 29.109375 43.015625 
Q 36.375 43.015625 40.234375 45.921875 
Q 44.09375 48.828125 44.09375 54.296875 
Q 44.09375 59.90625 40.109375 62.90625 
Q 36.140625 65.921875 28.71875 65.921875 
Q 24.65625 65.921875 20.015625 65.03125 
Q 15.375 64.15625 9.8125 62.3125 
L 9.8125 71.09375 
Q 15.4375 72.65625 20.34375 73.4375 
Q 25.25 74.21875 29.59375 74.21875 
Q 40.828125 74.21875 47.359375 69.109375 
Q 53.90625 64.015625 53.90625 55.328125 
Q 53.90625 49.265625 50.4375 45.09375 
Q 46.96875 40.921875 40.578125 39.3125 
z
" id="DejaVuSans-33"/>
      </defs>
      <g transform="translate(18.4 118.944375)scale(0.08 -0.08)">
       <use xlink:href="#DejaVuSans-33"/>
      </g>
     </g>
    </g>
    <g id="ytick_5">
     <g id="line2d_10">
      <g>
       <use style="stroke:#000000;stroke-width:0.8;" x="30.49" xlink:href="#m1d4cd895b5" y="55.595"/>
      </g>
     </g>
     <g id="text_10">
      <!-- 4 -->
      <defs>
       <path d="M 37.796875 64.3125 
L 12.890625 25.390625 
L 37.796875 25.390625 
z
M 35.203125 72.90625 
L 47.609375 72.90625 
L 47.609375 25.390625 
L 58.015625 25.390625 
L 58.015625 17.1875 
L 47.609375 17.1875 
L 47.609375 0 
L 37.796875 0 
L 37.796875 17.1875 
L 4.890625 17.1875 
L 4.890625 26.703125 
z
" id="DejaVuSans-34"/>
      </defs>
      <g transform="translate(18.4 58.634375)scale(0.08 -0.08)">
       <use xlink:href="#DejaVuSans-34"/>
      </g>
     </g>
    </g>
   </g>
   <g id="LineCollection_1">
    <path clip-path="url(#peab925c9a9)" d="M 150.101042 85.75 
L 184.275625 85.75 
" style="fill:none;stroke:#1f77b4;stroke-width:1.5;"/>
    <path clip-path="url(#peab925c9a9)" d="M 286.799375 236.525 
L 320.973958 236.525 
" style="fill:none;stroke:#1f77b4;stroke-width:1.5;"/>
    <path clip-path="url(#peab925c9a9)" d="M 423.497708 236.525 
L 457.672292 236.525 
" style="fill:none;stroke:#1f77b4;stroke-width:1.5;"/>
    <path clip-path="url(#peab925c9a9)" d="M 560.196042 236.525 
L 594.370625 236.525 
" style="fill:none;stroke:#1f77b4;stroke-width:1.5;"/>
    <path clip-path="url(#peab925c9a9)" d="M 696.894375 296.835 
L 731.068958 296.835 
" style="fill:none;stroke:#1f77b4;stroke-width:1.5;"/>
   </g>
   <g id="patch_3">
    <path d="M 30.49 326.99 
L 30.49 25.44 
" style="fill:none;stroke:#000000;stroke-linecap:square;stroke-linejoin:miter;stroke-width:0.8;"/>
   </g>
   <g id="patch_4">
    <path d="M 850.68 326.99 
L 850.68 25.44 
" style="fill:none;stroke:#000000;stroke-linecap:square;stroke-linejoin:miter;stroke-width:0.8;"/>
   </g>
   <g id="patch_5">
    <path d="M 30.49 326.99 
L 850.68 326.99 
" style="fill:none;stroke:#000000;stroke-linecap:square;stroke-linejoin:miter;stroke-width:0.8;"/>
   </g>
   <g id="patch_6">
    <path d="M 30.49 25.44 
L 850.68 25.44 
" style="fill:none;stroke:#000000;stroke-linecap:square;stroke-linejoin:miter;stroke-width:0.8;"/>
   </g>
   <g id="text_11">
    <!-- axelrod - Wins -->
    <defs>
     <path d="M 54.890625 54.6875 
L 35.109375 28.078125 
L 55.90625 0 
L 45.3125 0 
L 29.390625 21.484375 
L 13.484375 0 
L 2.875 0 
L 24.125 28.609375 
L 4.6875 54.6875 
L 15.28125 54.6875 
L 29.78125 35.203125 
L 44.28125 54.6875 
z
" id="DejaVuSans-78"/>
     <path d="M 4.890625 31.390625 
L 31.203125 31.390625 
L 31.203125 23.390625 
L 4.890625 23.390625 
z
" id="DejaVuSans-2d"/>
     <path d="M 3.328125 72.90625 
L 13.28125 72.90625 
L 28.609375 11.28125 
L 43.890625 72.90625 
L 54.984375 72.90625 
L 70.3125 11.28125 
L 85.59375 72.90625 
L 95.609375 72.90625 
L 77.296875 0 
L 64.890625 0 
L 49.515625 63.28125 
L 33.984375 0 
L 21.578125 0 
z
" id="DejaVuSans-57"/>
     <path d="M 44.28125 53.078125 
L 44.28125 44.578125 
Q 40.484375 46.53125 36.375 47.5 
Q 32.28125 48.484375 27.875 48.484375 
Q 21.1875 48.484375 17.84375 46.4375 
Q 14.5 44.390625 14.5 40.28125 
Q 14.5 37.15625 16.890625 35.375 
Q 19.28125 33.59375 26.515625 31.984375 
L 29.59375 31.296875 
Q 39.15625 29.25 43.1875 25.515625 
Q 47.21875 21.78125 47.21875 15.09375 
Q 47.21875 7.46875 41.1875 3.015625 
Q 35.15625 -1.421875 24.609375 -1.421875 
Q 20.21875 -1.421875 15.453125 -0.5625 
Q 10.6875 0.296875 5.421875 2 
L 5.421875 11.28125 
Q 10.40625 8.6875 15.234375 7.390625 
Q 20.0625 6.109375 24.8125 6.109375 
Q 31.15625 6.109375 34.5625 8.28125 
Q 37.984375 10.453125 37.984375 14.40625 
Q 37.984375 18.0625 35.515625 20.015625 
Q 33.0625 21.96875 24.703125 23.78125 
L 21.578125 24.515625 
Q 13.234375 26.265625 9.515625 29.90625 
Q 5.8125 33.546875 5.8125 39.890625 
Q 5.8125 47.609375 11.28125 51.796875 
Q 16.75 56 26.8125 56 
Q 31.78125 56 36.171875 55.265625 
Q 40.578125 54.546875 44.28125 53.078125 
z
" id="DejaVuSans-73"/>
    </defs>
    <g transform="translate(397.551875 19.44)scale(0.12 -0.12)">
     <use xlink:href="#DejaVuSans-61"/>
     <use x="61.279297" xlink:href="#DejaVuSans-78"/>
     <use x="120.412109" xlink:href="#DejaVuSans-65"/>
     <use x="181.935547" xlink:href="#DejaVuSans-6c"/>
     <use x="209.71875" xlink:href="#DejaVuSans-72"/>
     <use x="250.800781" xlink:href="#DejaVuSans-6f"/>
     <use x="311.982422" xlink:href="#DejaVuSans-64"/>
     <use x="375.458984" xlink:href="#DejaVuSans-20"/>
     <use x="407.246094" xlink:href="#DejaVuSans-2d"/>
     <use x="443.330078" xlink:href="#DejaVuSans-20"/>
     <use x="475.117188" xlink:href="#DejaVuSans-57"/>
     <use x="573.962891" xlink:href="#DejaVuSans-69"/>
     <use x="601.746094" xlink:href="#DejaVuSans-6e"/>
     <use x="665.125" xlink:href="#DejaVuSans-73"/>
    </g>
   </g>
  </g>
 </g>
 <defs>
  <clipPath id="peab925c9a9">
   <rect height="301.55" width="820.19" x="30.49" y="25.44"/>
  </clipPath>
 </defs>
</svg>
